M48
;DRILL file {PCBnew (2011-05-25)-stable} date Sat 11 Apr 2015 08:54:26 PM CDT
;FORMAT={-:-/ absolute / inch / decimal}
FMAT,2
INCH,TZ
T1C0.025
T2C0.032
T3C0.033
T4C0.040
T5C0.045
T6C0.045
T7C0.120
%
G90
G05
M72
T1
X1.050Y3.150
X1.050Y3.450
X1.300Y6.400
X1.350Y4.750
X1.450Y3.300
X1.450Y4.950
X1.500Y5.100
X1.500Y5.550
X1.500Y6.600
X1.550Y2.900
X1.600Y3.050
X1.600Y6.900
X1.650Y4.400
X1.700Y5.500
X1.750Y3.850
X1.800Y3.050
X1.900Y6.400
X2.000Y6.400
X2.000Y6.650
X2.050Y3.650
X2.100Y2.350
X2.100Y2.400
X2.100Y2.500
X2.200Y2.550
X2.200Y3.050
X2.200Y4.250
X2.250Y4.000
X2.250Y5.150
X2.350Y2.650
X2.350Y4.250
X2.450Y3.850
X2.500Y3.250
X2.500Y3.500
X2.500Y3.650
X2.500Y4.850
X2.550Y2.900
X2.600Y2.500
X2.650Y2.500
X2.650Y2.600
X2.750Y3.000
X2.750Y3.750
X2.750Y4.050
X2.750Y4.300
X2.750Y5.600
X2.750Y5.800
X2.750Y5.950
X2.750Y6.850
X2.800Y2.700
X2.800Y2.950
X2.800Y3.600
X2.800Y6.600
X2.900Y2.350
X2.900Y2.850
X2.900Y6.350
X2.950Y2.650
X3.000Y2.600
X3.050Y1.900
X3.050Y3.100
X3.050Y6.850
X3.100Y4.900
X3.150Y2.700
X3.150Y6.950
X3.200Y6.100
X3.250Y4.950
X3.300Y2.150
X3.300Y5.100
X3.300Y5.550
X3.300Y5.850
X3.450Y3.850
X3.500Y2.850
X3.500Y3.750
X3.500Y5.500
X3.550Y3.100
X3.550Y6.650
X3.550Y7.250
X3.650Y2.250
X3.750Y2.650
X3.750Y6.750
X3.750Y6.950
X3.800Y1.700
X3.900Y2.450
X3.950Y1.950
X4.050Y5.150
X4.150Y3.100
X4.150Y5.300
X4.200Y1.700
X4.200Y6.450
X4.400Y5.300
X4.400Y6.950
X4.450Y6.100
X4.500Y7.150
X4.550Y4.250
X4.550Y5.950
X4.550Y7.250
X4.800Y1.900
X4.800Y2.750
T2
X1.050Y2.950
X1.050Y3.050
X1.050Y3.550
X1.050Y3.650
X1.500Y6.150
X1.500Y6.250
X1.500Y6.350
X1.500Y6.450
X1.800Y6.150
X1.800Y6.250
X1.800Y6.350
X1.800Y6.450
X2.350Y2.850
X2.350Y2.950
X2.350Y3.050
X2.350Y3.150
X2.350Y3.250
X2.350Y3.350
X2.350Y3.450
X2.350Y3.550
X2.350Y3.650
X2.350Y3.750
X2.350Y3.850
X2.350Y3.950
X2.350Y4.050
X2.350Y4.150
X2.450Y6.049
X2.450Y7.151
X2.650Y2.850
X2.650Y2.950
X2.650Y3.050
X2.650Y3.150
X2.650Y3.250
X2.650Y3.350
X2.650Y3.450
X2.650Y3.550
X2.650Y3.650
X2.650Y3.750
X2.650Y3.850
X2.650Y3.950
X2.650Y4.050
X2.650Y4.150
X3.000Y1.750
X3.000Y1.850
X3.150Y6.550
X3.150Y6.650
X3.150Y6.750
X3.150Y6.850
X3.450Y6.550
X3.450Y6.650
X3.450Y6.750
X3.450Y6.850
X4.725Y1.775
X4.725Y1.875
T3
X4.150Y6.239
X4.150Y6.661
T4
X1.200Y5.500
X1.200Y5.700
X1.200Y6.800
X1.200Y7.000
X1.600Y5.700
X1.700Y3.100
X1.700Y3.200
X1.700Y3.300
X1.700Y3.400
X1.700Y3.500
X1.800Y5.700
X1.935Y1.850
X1.990Y1.750
X2.000Y6.800
X2.000Y7.000
X2.045Y1.850
X2.100Y1.750
X2.100Y6.100
X2.100Y6.300
X2.150Y1.850
X2.205Y1.750
X2.260Y1.850
X2.300Y5.600
X2.315Y1.750
X2.370Y1.850
X2.500Y5.600
X2.800Y6.300
X3.000Y5.500
X3.000Y5.700
X3.000Y6.300
X3.350Y6.250
X3.400Y5.700
X3.550Y6.250
X3.600Y5.700
X3.750Y7.050
X3.750Y7.250
X4.100Y5.600
X4.300Y5.600
X4.700Y5.750
X4.700Y5.850
X4.700Y5.950
X4.700Y6.050
X4.700Y6.550
X4.700Y6.650
X4.700Y7.150
X4.700Y7.250
T5
X2.500Y4.684
X2.500Y5.117
X4.300Y4.684
X4.300Y5.117
T6
X1.450Y4.650
X1.500Y4.800
X1.550Y4.650
X1.600Y4.800
X1.650Y4.650
X1.700Y4.800
X1.750Y4.650
X3.250Y4.650
X3.300Y4.800
X3.350Y4.650
X3.400Y4.800
X3.450Y4.650
X3.500Y4.800
X3.550Y4.650
T7
X0.900Y1.350
X0.900Y7.500
X1.655Y1.750
X2.655Y1.750
X4.900Y1.350
X4.900Y7.500
T0
M30
