G04 (created by PCBNEW-RS274X (2011-05-25)-stable) date Sun 12 Apr 2015 12:36:59 AM CDT*
G01*
G70*
G90*
%MOIN*%
G04 Gerber Fmt 3.4, Leading zero omitted, Abs format*
%FSLAX34Y34*%
G04 APERTURE LIST*
%ADD10C,0.006000*%
%ADD11R,0.027600X0.039400*%
%ADD12R,0.035000X0.055000*%
%ADD13R,0.055000X0.035000*%
%ADD14R,0.086600X0.047200*%
%ADD15R,0.086600X0.110200*%
%ADD16R,0.060000X0.060000*%
%ADD17C,0.060000*%
%ADD18C,0.066000*%
%ADD19C,0.055000*%
%ADD20R,0.090000X0.062000*%
%ADD21O,0.090000X0.062000*%
%ADD22C,0.150000*%
%ADD23C,0.089800*%
%ADD24C,0.065400*%
%ADD25R,0.070000X0.070000*%
%ADD26C,0.070000*%
%ADD27R,0.090000X0.042000*%
%ADD28R,0.350000X0.420000*%
%ADD29R,0.048000X0.015700*%
%ADD30R,0.039400X0.055100*%
%ADD31C,0.160000*%
%ADD32R,0.039400X0.023600*%
%ADD33R,0.112200X0.029500*%
%ADD34C,0.035000*%
%ADD35C,0.008000*%
%ADD36C,0.023600*%
%ADD37C,0.051200*%
G04 APERTURE END LIST*
G54D10*
G54D11*
X19500Y-24000D03*
X19875Y-25000D03*
X19125Y-25000D03*
G54D12*
X24875Y-23000D03*
X24125Y-23000D03*
G54D13*
X30000Y-20375D03*
X30000Y-19625D03*
X32000Y-33875D03*
X32000Y-33125D03*
X29500Y-24125D03*
X29500Y-24875D03*
X34000Y-32375D03*
X34000Y-31625D03*
X31000Y-24625D03*
X31000Y-25375D03*
G54D12*
X20875Y-26000D03*
X20125Y-26000D03*
G54D13*
X29000Y-32125D03*
X29000Y-32875D03*
X34500Y-40375D03*
X34500Y-39625D03*
X35500Y-40875D03*
X35500Y-40125D03*
X33000Y-32875D03*
X33000Y-32125D03*
G54D12*
X29875Y-34000D03*
X29125Y-34000D03*
X32875Y-37000D03*
X32125Y-37000D03*
X11125Y-33500D03*
X11875Y-33500D03*
X33875Y-38000D03*
X33125Y-38000D03*
G54D13*
X15000Y-52125D03*
X15000Y-52875D03*
X18500Y-39625D03*
X18500Y-40375D03*
X16000Y-38375D03*
X16000Y-37625D03*
X13000Y-65375D03*
X13000Y-64625D03*
X15000Y-67375D03*
X15000Y-66625D03*
X35000Y-52625D03*
X35000Y-53375D03*
G54D12*
X36875Y-52000D03*
X36125Y-52000D03*
G54D13*
X17000Y-52625D03*
X17000Y-53375D03*
G54D12*
X18875Y-52000D03*
X18125Y-52000D03*
G54D13*
X33000Y-52125D03*
X33000Y-52875D03*
X48250Y-24875D03*
X48250Y-25625D03*
G54D12*
X33875Y-72500D03*
X33125Y-72500D03*
X29375Y-68500D03*
X28625Y-68500D03*
G54D13*
X31500Y-71875D03*
X31500Y-71125D03*
X36500Y-66125D03*
X36500Y-66875D03*
X47250Y-20625D03*
X47250Y-19875D03*
X46750Y-24375D03*
X46750Y-25125D03*
G54D12*
X37125Y-25000D03*
X37875Y-25000D03*
G54D13*
X28000Y-41625D03*
X28000Y-42375D03*
G54D12*
X11125Y-32500D03*
X11875Y-32500D03*
G54D13*
X28500Y-37375D03*
X28500Y-36625D03*
X17500Y-25875D03*
X17500Y-25125D03*
X46000Y-28625D03*
X46000Y-29375D03*
X44500Y-28625D03*
X44500Y-29375D03*
X43000Y-28625D03*
X43000Y-29375D03*
G54D12*
X39875Y-15000D03*
X39125Y-15000D03*
G54D13*
X36500Y-68125D03*
X36500Y-68875D03*
X42000Y-72375D03*
X42000Y-71625D03*
X15000Y-54125D03*
X15000Y-54875D03*
X33000Y-54125D03*
X33000Y-54875D03*
X20000Y-64625D03*
X20000Y-65375D03*
X17500Y-39625D03*
X17500Y-40375D03*
G54D12*
X16625Y-29000D03*
X17375Y-29000D03*
G54D14*
X35693Y-20000D03*
X42307Y-20000D03*
G54D15*
X42307Y-21276D03*
X42307Y-18724D03*
X35693Y-18724D03*
X35693Y-21276D03*
G54D16*
X17000Y-31000D03*
G54D17*
X17000Y-32000D03*
X17000Y-33000D03*
X17000Y-34000D03*
X17000Y-35000D03*
G54D16*
X47000Y-66500D03*
G54D17*
X47000Y-65500D03*
G54D16*
X47000Y-72500D03*
G54D17*
X47000Y-71500D03*
X35500Y-62500D03*
X33500Y-62500D03*
X18000Y-57000D03*
X16000Y-57000D03*
X36000Y-57000D03*
X34000Y-57000D03*
X21000Y-61000D03*
X21000Y-63000D03*
G54D18*
X30000Y-17500D03*
X30000Y-18500D03*
X10500Y-36500D03*
X10500Y-35500D03*
X10500Y-29500D03*
X10500Y-30500D03*
X47250Y-17750D03*
X47250Y-18750D03*
G54D19*
X24500Y-71512D03*
X24500Y-60488D03*
G54D20*
X15000Y-61500D03*
G54D21*
X15000Y-62500D03*
X15000Y-63500D03*
X15000Y-64500D03*
X18000Y-64500D03*
X18000Y-63500D03*
X18000Y-62500D03*
X18000Y-61500D03*
G54D20*
X31500Y-65500D03*
G54D21*
X31500Y-66500D03*
X31500Y-67500D03*
X31500Y-68500D03*
X34500Y-68500D03*
X34500Y-67500D03*
X34500Y-66500D03*
X34500Y-65500D03*
X23500Y-29500D03*
X23500Y-30500D03*
X23500Y-31500D03*
X23500Y-32500D03*
X23500Y-33500D03*
X23500Y-34500D03*
X23500Y-35500D03*
X23500Y-36500D03*
X23500Y-37500D03*
X23500Y-38500D03*
X23500Y-39500D03*
X23500Y-40500D03*
X23500Y-41500D03*
G54D20*
X23500Y-28500D03*
G54D21*
X26500Y-41500D03*
X26500Y-40500D03*
X26500Y-39500D03*
X26500Y-38500D03*
X26500Y-37500D03*
X26500Y-36500D03*
X26500Y-35500D03*
X26500Y-34500D03*
X26500Y-33500D03*
X26500Y-32500D03*
X26500Y-31500D03*
X26500Y-30500D03*
X26500Y-29500D03*
X26500Y-28500D03*
G54D22*
X26550Y-17500D03*
X16550Y-17500D03*
G54D16*
X19350Y-18500D03*
G54D17*
X20450Y-18500D03*
X21500Y-18500D03*
X22600Y-18500D03*
X23700Y-18500D03*
X19900Y-17500D03*
X21000Y-17500D03*
X22050Y-17500D03*
X23150Y-17500D03*
G54D23*
X43000Y-51165D03*
X43000Y-46835D03*
X25000Y-51165D03*
X25000Y-46835D03*
G54D24*
X41500Y-66606D03*
X41500Y-62394D03*
G54D25*
X12000Y-55000D03*
G54D26*
X12000Y-57000D03*
G54D25*
X30000Y-55000D03*
G54D26*
X30000Y-57000D03*
G54D25*
X25000Y-56000D03*
G54D26*
X23000Y-56000D03*
G54D25*
X37500Y-72500D03*
G54D26*
X37500Y-70500D03*
G54D25*
X43000Y-56000D03*
G54D26*
X41000Y-56000D03*
G54D25*
X12000Y-68000D03*
G54D26*
X12000Y-70000D03*
G54D25*
X20000Y-70000D03*
G54D26*
X20000Y-68000D03*
G54D25*
X28000Y-63000D03*
G54D26*
X30000Y-63000D03*
G54D16*
X47000Y-60500D03*
G54D17*
X47000Y-59500D03*
X47000Y-58500D03*
X47000Y-57500D03*
G54D27*
X15000Y-42340D03*
G54D28*
X11550Y-41000D03*
G54D27*
X15000Y-41000D03*
X15000Y-41670D03*
X15000Y-40330D03*
X15000Y-39660D03*
G54D29*
X44516Y-70372D03*
X44516Y-70628D03*
X44516Y-70116D03*
X44516Y-70884D03*
X43484Y-70116D03*
X43484Y-70372D03*
X43484Y-70628D03*
X43484Y-70884D03*
G54D30*
X30126Y-33000D03*
X30874Y-33000D03*
X30500Y-32134D03*
X29626Y-22500D03*
X30374Y-22500D03*
X30000Y-21634D03*
X46876Y-22750D03*
X47624Y-22750D03*
X47250Y-21884D03*
G54D31*
X09000Y-13500D03*
X49000Y-13500D03*
X09000Y-75000D03*
X49000Y-75000D03*
G54D26*
X35500Y-46500D03*
X34500Y-46500D03*
X33500Y-46500D03*
X32500Y-46500D03*
X35000Y-48000D03*
X34000Y-48000D03*
X33000Y-48000D03*
X17500Y-46500D03*
X16500Y-46500D03*
X15500Y-46500D03*
X14500Y-46500D03*
X17000Y-48000D03*
X16000Y-48000D03*
X15000Y-48000D03*
G54D32*
X24028Y-24500D03*
X24028Y-24126D03*
X24028Y-24874D03*
X24972Y-24874D03*
X24972Y-24500D03*
X24972Y-24126D03*
G54D33*
X37144Y-27500D03*
X37144Y-28000D03*
X37144Y-28500D03*
X37144Y-29000D03*
X37144Y-29500D03*
X37144Y-30000D03*
X37144Y-30500D03*
X37144Y-31000D03*
X37144Y-31500D03*
X37144Y-32000D03*
X37144Y-32500D03*
X37144Y-33000D03*
X37144Y-33500D03*
X37144Y-34000D03*
X37144Y-34500D03*
X37144Y-35000D03*
X37144Y-35500D03*
X37144Y-36000D03*
X37144Y-36500D03*
X37144Y-37000D03*
X37144Y-37500D03*
X37144Y-38000D03*
X37144Y-38500D03*
X37144Y-39000D03*
X37144Y-39500D03*
X37144Y-40500D03*
X37144Y-40000D03*
X37144Y-41000D03*
X37144Y-41500D03*
X37144Y-42000D03*
X38856Y-42000D03*
X38856Y-41500D03*
X38856Y-41000D03*
X38856Y-40000D03*
X38856Y-40500D03*
X38856Y-39500D03*
X38856Y-39000D03*
X38856Y-38500D03*
X38856Y-38000D03*
X38856Y-37500D03*
X38856Y-37000D03*
X38856Y-36500D03*
X38856Y-36000D03*
X38856Y-35500D03*
X38856Y-35000D03*
X38856Y-34500D03*
X38856Y-34000D03*
X38856Y-33500D03*
X38856Y-33000D03*
X38856Y-32500D03*
X38856Y-32000D03*
X38856Y-31500D03*
X38856Y-31000D03*
X38856Y-30500D03*
X38856Y-30000D03*
X38856Y-29500D03*
X38856Y-29000D03*
X38856Y-28500D03*
X38856Y-28000D03*
X38856Y-27500D03*
G54D34*
X25500Y-23500D03*
X25000Y-26000D03*
X23500Y-27500D03*
X22000Y-29500D03*
X17500Y-38500D03*
X27500Y-43000D03*
X16000Y-30500D03*
X25000Y-35000D03*
X24500Y-38500D03*
X25500Y-29000D03*
X25000Y-32500D03*
X36000Y-26500D03*
X22500Y-51500D03*
X25000Y-48500D03*
X40500Y-51500D03*
X35500Y-72500D03*
X20000Y-66500D03*
X27500Y-59500D03*
X45500Y-59500D03*
X13000Y-64000D03*
X16500Y-44000D03*
X22500Y-24500D03*
X21500Y-26500D03*
X29000Y-23500D03*
X28000Y-29500D03*
X29000Y-28500D03*
X19500Y-37500D03*
X27500Y-68500D03*
X44000Y-53000D03*
X41500Y-53000D03*
X28000Y-66000D03*
X29000Y-63500D03*
X33000Y-55500D03*
X27500Y-30000D03*
X27500Y-37500D03*
X45500Y-42500D03*
X15500Y-29000D03*
X14500Y-33000D03*
X45500Y-72500D03*
X15000Y-55500D03*
X35000Y-55000D03*
X17000Y-55000D03*
X37500Y-69500D03*
X16000Y-69000D03*
X30500Y-19000D03*
X35000Y-28500D03*
X31500Y-27000D03*
X48000Y-19000D03*
X38000Y-17000D03*
X36500Y-22500D03*
X20500Y-25000D03*
X29500Y-26500D03*
X10500Y-31500D03*
X10500Y-34500D03*
X23500Y-26500D03*
X28000Y-27000D03*
X30000Y-26000D03*
X27500Y-40500D03*
X25000Y-36500D03*
X22500Y-39500D03*
X34500Y-38500D03*
X35000Y-37500D03*
X23500Y-42500D03*
X22000Y-42500D03*
X22000Y-30500D03*
X28000Y-36000D03*
X35500Y-31000D03*
X30500Y-31000D03*
X48000Y-27500D03*
X41500Y-31000D03*
X21000Y-23500D03*
X18000Y-30500D03*
X39500Y-19500D03*
X39000Y-24500D03*
X42000Y-17000D03*
X33000Y-21500D03*
X44000Y-69500D03*
X32000Y-61000D03*
X44500Y-61000D03*
X27500Y-58000D03*
X27500Y-56000D03*
X15000Y-51000D03*
X14500Y-49500D03*
X33000Y-51000D03*
X35500Y-66500D03*
X15000Y-66000D03*
X45000Y-71500D03*
X20000Y-64000D03*
X30500Y-68500D03*
X31500Y-69500D03*
X42000Y-64500D03*
X33000Y-58500D03*
X37500Y-67500D03*
X19000Y-64000D03*
X13500Y-47500D03*
X31000Y-49000D03*
X32500Y-49500D03*
G54D35*
X24875Y-23000D02*
X25000Y-23000D01*
X25000Y-23000D02*
X25500Y-23500D01*
G54D36*
X24972Y-25972D02*
X24972Y-24874D01*
X25000Y-26000D02*
X24972Y-25972D01*
G54D35*
X24972Y-24874D02*
X24972Y-24972D01*
G54D36*
X23000Y-27500D02*
X23500Y-27500D01*
X22500Y-28000D02*
X23000Y-27500D01*
X22500Y-29000D02*
X22500Y-28000D01*
X22000Y-29500D02*
X22500Y-29000D01*
G54D35*
X17500Y-39625D02*
X17125Y-39625D01*
X16750Y-39250D02*
X16500Y-39500D01*
X17125Y-39625D02*
X16750Y-39250D01*
X16000Y-38375D02*
X16000Y-40000D01*
G54D37*
X15000Y-40330D02*
X15670Y-40330D01*
X15670Y-40330D02*
X16000Y-40000D01*
X16000Y-40000D02*
X16500Y-39500D01*
X16500Y-39500D02*
X17500Y-38500D01*
G54D35*
X28000Y-42375D02*
X28000Y-42500D01*
X28000Y-42500D02*
X27500Y-43000D01*
X16000Y-29500D02*
X16500Y-29000D01*
X16000Y-30500D02*
X16000Y-29500D01*
X16500Y-29000D02*
X16625Y-29000D01*
G54D36*
X25000Y-35000D02*
X24500Y-35500D01*
X24500Y-35500D02*
X24500Y-38500D01*
X25500Y-29000D02*
X25000Y-29500D01*
X25000Y-29500D02*
X25000Y-32500D01*
G54D35*
X37144Y-29500D02*
X36000Y-29500D01*
G54D37*
X36000Y-29500D02*
X36000Y-29000D01*
G54D35*
X37144Y-29000D02*
X36000Y-29000D01*
X37144Y-28500D02*
X36000Y-28500D01*
X37144Y-28000D02*
X36000Y-28000D01*
X37144Y-27500D02*
X36000Y-27500D01*
G54D37*
X36000Y-29000D02*
X36000Y-28500D01*
X36000Y-28500D02*
X36000Y-28000D01*
X36000Y-28000D02*
X36000Y-27500D01*
X36000Y-26500D02*
X36000Y-27500D01*
G54D35*
X22000Y-52000D02*
X22500Y-51500D01*
X18875Y-52000D02*
X22000Y-52000D01*
G54D37*
X18170Y-41670D02*
X15000Y-41670D01*
X25000Y-48500D02*
X18170Y-41670D01*
G54D35*
X36875Y-52000D02*
X40000Y-52000D01*
X40000Y-52000D02*
X40500Y-51500D01*
X33875Y-72500D02*
X35500Y-72500D01*
X20000Y-65375D02*
X20000Y-66500D01*
G54D37*
X27500Y-59500D02*
X45500Y-59500D01*
G54D35*
X13000Y-64000D02*
X13000Y-64625D01*
X45500Y-71000D02*
X44632Y-71000D01*
X46000Y-71500D02*
X45500Y-71000D01*
X12000Y-44000D02*
X16500Y-44000D01*
X11000Y-45000D02*
X12000Y-44000D01*
X11000Y-73000D02*
X11000Y-45000D01*
X11500Y-73500D02*
X11000Y-73000D01*
X45500Y-73500D02*
X11500Y-73500D01*
X46000Y-73000D02*
X45500Y-73500D01*
X46000Y-73000D02*
X46000Y-71500D01*
X44632Y-71000D02*
X44516Y-70884D01*
G54D36*
X21000Y-27000D02*
X21500Y-26500D01*
X17500Y-27000D02*
X21000Y-27000D01*
X22874Y-24126D02*
X24028Y-24126D01*
X22500Y-24500D02*
X22874Y-24126D01*
G54D35*
X24027Y-24125D02*
X24028Y-24126D01*
X24027Y-24125D02*
X24028Y-24126D01*
X29500Y-24125D02*
X29500Y-24000D01*
X29500Y-24000D02*
X29000Y-23500D01*
G54D36*
X29000Y-28500D02*
X28000Y-29500D01*
G54D35*
X45500Y-34000D02*
X45500Y-33000D01*
X46000Y-32500D02*
X45500Y-33000D01*
X46000Y-32500D02*
X46000Y-29375D01*
X44500Y-33000D02*
X44500Y-30000D01*
X44500Y-30000D02*
X44500Y-29375D01*
X43000Y-31500D02*
X43000Y-30000D01*
X43000Y-30000D02*
X43000Y-29375D01*
X47500Y-32000D02*
X45500Y-34000D01*
X38856Y-29500D02*
X41500Y-29500D01*
X38856Y-29000D02*
X41500Y-29000D01*
X38856Y-28500D02*
X41500Y-28500D01*
X38856Y-28000D02*
X41500Y-28000D01*
X38856Y-27500D02*
X41500Y-27500D01*
G54D37*
X41500Y-30000D02*
X41500Y-29500D01*
X41500Y-30000D02*
X43000Y-31500D01*
X43000Y-31500D02*
X44500Y-33000D01*
X44500Y-33000D02*
X45500Y-34000D01*
X41500Y-29500D02*
X41500Y-29000D01*
X41500Y-29000D02*
X41500Y-28500D01*
X41500Y-28500D02*
X41500Y-28000D01*
X41500Y-28000D02*
X41500Y-27500D01*
G54D35*
X35500Y-44500D02*
X35500Y-43000D01*
X35500Y-43000D02*
X35500Y-40875D01*
X34500Y-44500D02*
X34500Y-42000D01*
X34500Y-42000D02*
X34500Y-40375D01*
G54D37*
X37000Y-44500D02*
X35500Y-44500D01*
X35500Y-44500D02*
X34500Y-44500D01*
X34500Y-44500D02*
X29500Y-44500D01*
X19500Y-41000D02*
X19500Y-37500D01*
G54D35*
X18500Y-40375D02*
X18500Y-40875D01*
X18500Y-40875D02*
X18375Y-41000D01*
G54D37*
X24000Y-45500D02*
X19500Y-41000D01*
X24000Y-45500D02*
X28500Y-45500D01*
X28500Y-45500D02*
X29500Y-44500D01*
X18375Y-41000D02*
X15000Y-41000D01*
X18375Y-41000D02*
X19500Y-41000D01*
G54D35*
X28625Y-68500D02*
X27500Y-68500D01*
G54D37*
X41500Y-53000D02*
X44000Y-53000D01*
X28000Y-66000D02*
X29000Y-65000D01*
X29000Y-65000D02*
X29000Y-63500D01*
X11550Y-41000D02*
X11550Y-38450D01*
X11550Y-38450D02*
X13500Y-36500D01*
X13500Y-36500D02*
X13500Y-34000D01*
X13500Y-34000D02*
X14500Y-33000D01*
G54D35*
X33000Y-54875D02*
X33000Y-55500D01*
G54D37*
X42000Y-44500D02*
X45500Y-41000D01*
X37000Y-44500D02*
X42000Y-44500D01*
G54D35*
X29000Y-32125D02*
X29000Y-31500D01*
X29000Y-31500D02*
X27500Y-30000D01*
X27625Y-37375D02*
X28500Y-37375D01*
X27500Y-37500D02*
X27625Y-37375D01*
X30126Y-33000D02*
X30126Y-32626D01*
X29625Y-32125D02*
X29000Y-32125D01*
X30126Y-32626D02*
X29625Y-32125D01*
X29500Y-24125D02*
X29500Y-22626D01*
X29500Y-22626D02*
X29626Y-22500D01*
X46750Y-24375D02*
X44875Y-24375D01*
X44875Y-24375D02*
X45000Y-24500D01*
X39875Y-15000D02*
X42500Y-15000D01*
X43224Y-21276D02*
X42307Y-21276D01*
X44000Y-20500D02*
X43224Y-21276D01*
X44000Y-16500D02*
X44000Y-20500D01*
X42500Y-15000D02*
X44000Y-16500D01*
X38856Y-29500D02*
X39500Y-29500D01*
X42307Y-21276D02*
X42307Y-21807D01*
X42307Y-21807D02*
X45000Y-24500D01*
X45000Y-24500D02*
X47500Y-27000D01*
X47500Y-27000D02*
X47500Y-32000D01*
G54D37*
X45500Y-42500D02*
X45500Y-41000D01*
X45500Y-41000D02*
X45500Y-35500D01*
X45500Y-35500D02*
X45500Y-34000D01*
G54D35*
X17500Y-27000D02*
X17500Y-25875D01*
G54D36*
X15500Y-29000D02*
X17500Y-27000D01*
G54D35*
X11875Y-33500D02*
X13000Y-33500D01*
X13000Y-33500D02*
X13500Y-33000D01*
X11875Y-32500D02*
X13000Y-32500D01*
X13500Y-33000D02*
X14500Y-33000D01*
X13000Y-32500D02*
X13500Y-33000D01*
X15000Y-41000D02*
X16875Y-41000D01*
X16875Y-41000D02*
X17500Y-40375D01*
X46750Y-24375D02*
X46750Y-22876D01*
X46750Y-22876D02*
X46876Y-22750D01*
X43484Y-70884D02*
X43484Y-71484D01*
X44500Y-72500D02*
X45500Y-72500D01*
X43484Y-71484D02*
X44500Y-72500D01*
X42000Y-72375D02*
X42625Y-72375D01*
X43484Y-71516D02*
X43484Y-70884D01*
X42625Y-72375D02*
X43484Y-71516D01*
X15000Y-54875D02*
X15000Y-55500D01*
X35000Y-55000D02*
X35000Y-53375D01*
X17000Y-53375D02*
X17000Y-55000D01*
X37500Y-69500D02*
X36875Y-68875D01*
X36875Y-68875D02*
X36500Y-68875D01*
X15000Y-68000D02*
X15000Y-67375D01*
X16000Y-69000D02*
X15000Y-68000D01*
X30000Y-19625D02*
X30375Y-19625D01*
X30500Y-19500D02*
X30500Y-19000D01*
X30375Y-19625D02*
X30500Y-19500D01*
X30000Y-21634D02*
X30000Y-20375D01*
X31500Y-27000D02*
X31000Y-26500D01*
X35000Y-31000D02*
X35000Y-28500D01*
X37144Y-32000D02*
X36000Y-32000D01*
X36000Y-32000D02*
X35000Y-31000D01*
X31000Y-26500D02*
X31000Y-25375D01*
X31000Y-24625D02*
X31000Y-23126D01*
X31000Y-23126D02*
X30374Y-22500D01*
X29500Y-24875D02*
X30125Y-24875D01*
X30375Y-24625D02*
X31000Y-24625D01*
X30125Y-24875D02*
X30375Y-24625D01*
X36000Y-38000D02*
X35500Y-38500D01*
X35500Y-38500D02*
X35500Y-40125D01*
X37144Y-38000D02*
X36000Y-38000D01*
X36000Y-38000D02*
X33875Y-38000D01*
X46750Y-25125D02*
X47375Y-25125D01*
X47625Y-24875D02*
X48250Y-24875D01*
X47375Y-25125D02*
X47625Y-24875D01*
X48250Y-24875D02*
X48250Y-23376D01*
X48250Y-23376D02*
X47624Y-22750D01*
X47250Y-21884D02*
X47250Y-20625D01*
X47625Y-19875D02*
X47250Y-19875D01*
X48000Y-19500D02*
X47625Y-19875D01*
X48000Y-19000D02*
X48000Y-19500D01*
X36000Y-33500D02*
X35500Y-33000D01*
X37144Y-33500D02*
X36000Y-33500D01*
X35500Y-32500D02*
X34500Y-31500D01*
X35500Y-33000D02*
X35500Y-32500D01*
X35693Y-21276D02*
X35693Y-23568D01*
X35693Y-23568D02*
X37125Y-25000D01*
X35693Y-22807D02*
X35693Y-21276D01*
X34500Y-24000D02*
X35693Y-22807D01*
X34500Y-31500D02*
X34500Y-24000D01*
X35693Y-21276D02*
X35693Y-21693D01*
X38500Y-15000D02*
X39125Y-15000D01*
X38000Y-15500D02*
X38500Y-15000D01*
X38000Y-17000D02*
X38000Y-15500D01*
X35693Y-21693D02*
X36500Y-22500D01*
X20875Y-26000D02*
X20875Y-25375D01*
X20875Y-25375D02*
X20500Y-25000D01*
X22000Y-25500D02*
X23402Y-25500D01*
X23402Y-25500D02*
X24028Y-24874D01*
X20875Y-26000D02*
X21500Y-26000D01*
X21500Y-26000D02*
X22000Y-25500D01*
X24000Y-25000D02*
X24000Y-24902D01*
X24000Y-24902D02*
X24028Y-24874D01*
X29000Y-26000D02*
X27000Y-26000D01*
X29500Y-26500D02*
X29000Y-26000D01*
X25500Y-24500D02*
X24972Y-24500D01*
X27000Y-26000D02*
X25500Y-24500D01*
X11125Y-32125D02*
X11125Y-32500D01*
X10500Y-31500D02*
X11125Y-32125D01*
X11125Y-33875D02*
X11125Y-33500D01*
X10500Y-34500D02*
X11125Y-33875D01*
X27500Y-26500D02*
X23500Y-26500D01*
X28000Y-27000D02*
X27500Y-26500D01*
X24972Y-24126D02*
X24626Y-24126D01*
X24000Y-23125D02*
X24125Y-23000D01*
X24000Y-23500D02*
X24000Y-23125D01*
X24626Y-24126D02*
X24000Y-23500D01*
X27500Y-25500D02*
X26500Y-24500D01*
X25098Y-24000D02*
X24972Y-24126D01*
X26000Y-24000D02*
X25098Y-24000D01*
X26500Y-24500D02*
X26000Y-24000D01*
X27500Y-25500D02*
X29000Y-25500D01*
X29500Y-25500D02*
X29000Y-25500D01*
X30000Y-26000D02*
X29500Y-25500D01*
X29000Y-25500D02*
X28625Y-25500D01*
X28000Y-41000D02*
X28000Y-41625D01*
X27500Y-40500D02*
X28000Y-41000D01*
X25500Y-36000D02*
X27000Y-36000D01*
X25000Y-36500D02*
X25500Y-36000D01*
X29000Y-34000D02*
X29125Y-34000D01*
X27000Y-36000D02*
X29000Y-34000D01*
X34000Y-31625D02*
X34000Y-21000D01*
X35000Y-20000D02*
X35693Y-20000D01*
X34000Y-21000D02*
X35000Y-20000D01*
X43000Y-28625D02*
X43000Y-26500D01*
X36500Y-20000D02*
X35693Y-20000D01*
X43000Y-26500D02*
X36500Y-20000D01*
X37144Y-35000D02*
X33125Y-35000D01*
X33125Y-35000D02*
X32000Y-33875D01*
X29500Y-43500D02*
X29500Y-40500D01*
X29500Y-40500D02*
X32000Y-38000D01*
X32000Y-38000D02*
X33125Y-38000D01*
X25000Y-45000D02*
X22500Y-42500D01*
X28000Y-45000D02*
X25000Y-45000D01*
X29000Y-44000D02*
X28000Y-45000D01*
X29000Y-44000D02*
X29500Y-43500D01*
X22000Y-42000D02*
X22500Y-42500D01*
X22000Y-40000D02*
X22000Y-42000D01*
X22500Y-39500D02*
X22000Y-40000D01*
X36000Y-37500D02*
X35000Y-37500D01*
X34500Y-38500D02*
X34500Y-39625D01*
X37144Y-37500D02*
X36000Y-37500D01*
X35500Y-37000D02*
X32875Y-37000D01*
X36000Y-37500D02*
X35500Y-37000D01*
X29000Y-43000D02*
X29000Y-40125D01*
X29000Y-43000D02*
X27500Y-44500D01*
X27500Y-44500D02*
X25500Y-44500D01*
X25500Y-44500D02*
X23500Y-42500D01*
X22000Y-42500D02*
X21500Y-42000D01*
X21500Y-42000D02*
X21500Y-31000D01*
X21500Y-31000D02*
X22000Y-30500D01*
X29000Y-40125D02*
X32125Y-37000D01*
X28500Y-36625D02*
X28500Y-36500D01*
X28500Y-36500D02*
X28000Y-36000D01*
X37144Y-34500D02*
X34625Y-34500D01*
X34625Y-34500D02*
X33000Y-32875D01*
X37144Y-34000D02*
X35625Y-34000D01*
X35625Y-34000D02*
X34000Y-32375D01*
X36000Y-31500D02*
X35500Y-31000D01*
X37144Y-31500D02*
X36000Y-31500D01*
X30500Y-31000D02*
X30500Y-32134D01*
X29875Y-34000D02*
X29875Y-33750D01*
X29875Y-33750D02*
X29000Y-32875D01*
X29875Y-34000D02*
X30500Y-34000D01*
X30874Y-33626D02*
X30874Y-33000D01*
X30500Y-34000D02*
X30874Y-33626D01*
X38856Y-31000D02*
X41500Y-31000D01*
X48250Y-27250D02*
X48250Y-25625D01*
X48000Y-27500D02*
X48250Y-27250D01*
X19125Y-25000D02*
X20125Y-26000D01*
X17500Y-25125D02*
X19000Y-25125D01*
X19000Y-25125D02*
X19125Y-25000D01*
X19500Y-24000D02*
X20000Y-23500D01*
X20000Y-23500D02*
X20500Y-23500D01*
X22000Y-25000D02*
X21000Y-24000D01*
X21000Y-24000D02*
X20000Y-24000D01*
X24028Y-24500D02*
X23500Y-24500D01*
X23000Y-25000D02*
X22000Y-25000D01*
X23500Y-24500D02*
X23000Y-25000D01*
X20500Y-23500D02*
X21000Y-23500D01*
X19500Y-24000D02*
X20000Y-24000D01*
X18000Y-30500D02*
X18000Y-29625D01*
X18000Y-29625D02*
X17375Y-29000D01*
X32000Y-33125D02*
X32000Y-21000D01*
X34276Y-18724D02*
X35693Y-18724D01*
X32000Y-21000D02*
X34276Y-18724D01*
X35693Y-18724D02*
X36724Y-18724D01*
X44500Y-26500D02*
X44500Y-28625D01*
X36724Y-18724D02*
X44500Y-26500D01*
X37875Y-25000D02*
X38500Y-25000D01*
X40276Y-18724D02*
X42307Y-18724D01*
X39500Y-19500D02*
X40276Y-18724D01*
X38500Y-25000D02*
X39000Y-24500D01*
X33000Y-32125D02*
X33000Y-21500D01*
X42307Y-17307D02*
X42307Y-18724D01*
X42000Y-17000D02*
X42307Y-17307D01*
X40500Y-21000D02*
X40500Y-21500D01*
X40500Y-21000D02*
X40500Y-19500D01*
X40500Y-19500D02*
X41276Y-18724D01*
X42307Y-18724D02*
X41276Y-18724D01*
X46000Y-27000D02*
X46000Y-28625D01*
X40500Y-21500D02*
X46000Y-27000D01*
X15000Y-52875D02*
X15000Y-54125D01*
X15000Y-39660D02*
X15000Y-38000D01*
X15375Y-37625D02*
X16000Y-37625D01*
X15000Y-38000D02*
X15375Y-37625D01*
X18500Y-39625D02*
X18500Y-38500D01*
X17625Y-37625D02*
X16000Y-37625D01*
X18500Y-38500D02*
X17625Y-37625D01*
X31500Y-71875D02*
X31500Y-72000D01*
X33000Y-72500D02*
X33125Y-72500D01*
X32000Y-72500D02*
X33000Y-72500D01*
X31500Y-72000D02*
X32000Y-72500D01*
X43484Y-70016D02*
X43484Y-70116D01*
X44000Y-69500D02*
X43484Y-70016D01*
G54D37*
X44500Y-61000D02*
X32000Y-61000D01*
X27500Y-58000D02*
X27500Y-56000D01*
G54D35*
X15000Y-52125D02*
X15000Y-51000D01*
X18125Y-52000D02*
X17500Y-52000D01*
X17500Y-52000D02*
X17000Y-52000D01*
X16500Y-51500D02*
X14500Y-49500D01*
X17000Y-52000D02*
X16500Y-51500D01*
X17000Y-52000D02*
X17000Y-52625D01*
X33000Y-52125D02*
X33000Y-51000D01*
X33000Y-52875D02*
X33000Y-54125D01*
X36500Y-66875D02*
X36500Y-68125D01*
X35875Y-66125D02*
X36500Y-66125D01*
X35500Y-66500D02*
X35875Y-66125D01*
X13000Y-65375D02*
X13000Y-66000D01*
X13625Y-66625D02*
X15000Y-66625D01*
X13000Y-66000D02*
X13625Y-66625D01*
X15000Y-66000D02*
X15000Y-66625D01*
X43484Y-70628D02*
X42997Y-70628D01*
X42997Y-70628D02*
X42000Y-71625D01*
X43484Y-70372D02*
X43872Y-70372D01*
X44500Y-71500D02*
X45000Y-71500D01*
X44000Y-71000D02*
X44500Y-71500D01*
X44000Y-70500D02*
X44000Y-71000D01*
X43872Y-70372D02*
X44000Y-70500D01*
X20000Y-64625D02*
X20000Y-64000D01*
X30500Y-68500D02*
X29375Y-68500D01*
X31500Y-71125D02*
X31500Y-69500D01*
X32000Y-57500D02*
X33000Y-58500D01*
X32000Y-54000D02*
X32000Y-57500D01*
X44000Y-67500D02*
X45000Y-67500D01*
X42000Y-65500D02*
X44000Y-67500D01*
X42000Y-64500D02*
X42000Y-65500D01*
X46000Y-68500D02*
X46000Y-68000D01*
X46000Y-68000D02*
X45500Y-67500D01*
X45500Y-67500D02*
X45000Y-67500D01*
X45000Y-67500D02*
X37500Y-67500D01*
X31000Y-53000D02*
X32000Y-54000D01*
X23500Y-53000D02*
X31000Y-53000D01*
X19500Y-57000D02*
X23500Y-53000D01*
X19500Y-63500D02*
X19500Y-57000D01*
X19000Y-64000D02*
X19500Y-63500D01*
X15000Y-42340D02*
X16840Y-42340D01*
X16840Y-42340D02*
X24000Y-49500D01*
X32000Y-51000D02*
X30500Y-49500D01*
X15500Y-49500D02*
X13500Y-47500D01*
X30500Y-49500D02*
X24000Y-49500D01*
X24000Y-49500D02*
X15500Y-49500D01*
X32000Y-50000D02*
X31000Y-49000D01*
X32000Y-54000D02*
X32000Y-51000D01*
X32000Y-51000D02*
X32000Y-50000D01*
X45372Y-70628D02*
X46000Y-70000D01*
X46000Y-70000D02*
X46000Y-68500D01*
X44516Y-70628D02*
X45372Y-70628D01*
X34000Y-51000D02*
X32500Y-49500D01*
X35000Y-52000D02*
X34000Y-51000D01*
X35500Y-52000D02*
X36125Y-52000D01*
X35000Y-52000D02*
X35500Y-52000D01*
X35000Y-52625D02*
X35000Y-52000D01*
M02*
