G04 (created by PCBNEW-RS274X (2011-05-25)-stable) date Sun 12 Apr 2015 12:36:59 AM CDT*
G01*
G70*
G90*
%MOIN*%
G04 Gerber Fmt 3.4, Leading zero omitted, Abs format*
%FSLAX34Y34*%
G04 APERTURE LIST*
%ADD10C,0.006000*%
%ADD11C,0.007500*%
%ADD12C,0.012000*%
%ADD13C,0.005000*%
%ADD14C,0.015000*%
%ADD15C,0.010000*%
%ADD16C,0.002000*%
%ADD17C,0.003000*%
%ADD18C,0.008000*%
%ADD19C,0.003500*%
G04 APERTURE END LIST*
G54D10*
G54D11*
X48772Y-65336D02*
X48743Y-65321D01*
X48700Y-65321D01*
X48657Y-65336D01*
X48629Y-65364D01*
X48614Y-65393D01*
X48600Y-65450D01*
X48600Y-65493D01*
X48614Y-65550D01*
X48629Y-65579D01*
X48657Y-65607D01*
X48700Y-65621D01*
X48729Y-65621D01*
X48772Y-65607D01*
X48786Y-65593D01*
X48786Y-65493D01*
X48729Y-65493D01*
X48914Y-65621D02*
X48914Y-65321D01*
X49086Y-65621D01*
X49086Y-65321D01*
X49228Y-65621D02*
X49228Y-65321D01*
X49300Y-65321D01*
X49343Y-65336D01*
X49371Y-65364D01*
X49386Y-65393D01*
X49400Y-65450D01*
X49400Y-65493D01*
X49386Y-65550D01*
X49371Y-65579D01*
X49343Y-65607D01*
X49300Y-65621D01*
X49228Y-65621D01*
X48672Y-66321D02*
X48772Y-66621D01*
X48872Y-66321D01*
X48971Y-66621D02*
X48971Y-66321D01*
X49114Y-66621D02*
X49114Y-66321D01*
X49286Y-66621D01*
X49286Y-66321D01*
X48772Y-60336D02*
X48743Y-60321D01*
X48700Y-60321D01*
X48657Y-60336D01*
X48629Y-60364D01*
X48614Y-60393D01*
X48600Y-60450D01*
X48600Y-60493D01*
X48614Y-60550D01*
X48629Y-60579D01*
X48657Y-60607D01*
X48700Y-60621D01*
X48729Y-60621D01*
X48772Y-60607D01*
X48786Y-60593D01*
X48786Y-60493D01*
X48729Y-60493D01*
X48914Y-60621D02*
X48914Y-60321D01*
X49086Y-60621D01*
X49086Y-60321D01*
X49228Y-60621D02*
X49228Y-60321D01*
X49300Y-60321D01*
X49343Y-60336D01*
X49371Y-60364D01*
X49386Y-60393D01*
X49400Y-60450D01*
X49400Y-60493D01*
X49386Y-60550D01*
X49371Y-60579D01*
X49343Y-60607D01*
X49300Y-60621D01*
X49228Y-60621D01*
X48385Y-59507D02*
X48614Y-59507D01*
X48899Y-59321D02*
X48756Y-59321D01*
X48742Y-59464D01*
X48756Y-59450D01*
X48785Y-59436D01*
X48856Y-59436D01*
X48885Y-59450D01*
X48899Y-59464D01*
X48914Y-59493D01*
X48914Y-59564D01*
X48899Y-59593D01*
X48885Y-59607D01*
X48856Y-59621D01*
X48785Y-59621D01*
X48756Y-59607D01*
X48742Y-59593D01*
X49042Y-59593D02*
X49057Y-59607D01*
X49042Y-59621D01*
X49028Y-59607D01*
X49042Y-59593D01*
X49042Y-59621D01*
X49157Y-59321D02*
X49357Y-59321D01*
X49228Y-59621D01*
X49614Y-59321D02*
X49471Y-59321D01*
X49457Y-59464D01*
X49471Y-59450D01*
X49500Y-59436D01*
X49571Y-59436D01*
X49600Y-59450D01*
X49614Y-59464D01*
X49629Y-59493D01*
X49629Y-59564D01*
X49614Y-59593D01*
X49600Y-59607D01*
X49571Y-59621D01*
X49500Y-59621D01*
X49471Y-59607D01*
X49457Y-59593D01*
X48385Y-58507D02*
X48614Y-58507D01*
X48500Y-58621D02*
X48500Y-58393D01*
X48771Y-58621D02*
X48828Y-58621D01*
X48856Y-58607D01*
X48871Y-58593D01*
X48899Y-58550D01*
X48914Y-58493D01*
X48914Y-58379D01*
X48899Y-58350D01*
X48885Y-58336D01*
X48856Y-58321D01*
X48799Y-58321D01*
X48771Y-58336D01*
X48756Y-58350D01*
X48742Y-58379D01*
X48742Y-58450D01*
X48756Y-58479D01*
X48771Y-58493D01*
X48799Y-58507D01*
X48856Y-58507D01*
X48885Y-58493D01*
X48899Y-58479D01*
X48914Y-58450D01*
X49042Y-58593D02*
X49057Y-58607D01*
X49042Y-58621D01*
X49028Y-58607D01*
X49042Y-58593D01*
X49042Y-58621D01*
X49157Y-58321D02*
X49357Y-58321D01*
X49228Y-58621D01*
X49614Y-58321D02*
X49471Y-58321D01*
X49457Y-58464D01*
X49471Y-58450D01*
X49500Y-58436D01*
X49571Y-58436D01*
X49600Y-58450D01*
X49614Y-58464D01*
X49629Y-58493D01*
X49629Y-58564D01*
X49614Y-58593D01*
X49600Y-58607D01*
X49571Y-58621D01*
X49500Y-58621D01*
X49471Y-58607D01*
X49457Y-58593D01*
X48385Y-57507D02*
X48614Y-57507D01*
X48500Y-57621D02*
X48500Y-57393D01*
X48899Y-57321D02*
X48756Y-57321D01*
X48742Y-57464D01*
X48756Y-57450D01*
X48785Y-57436D01*
X48856Y-57436D01*
X48885Y-57450D01*
X48899Y-57464D01*
X48914Y-57493D01*
X48914Y-57564D01*
X48899Y-57593D01*
X48885Y-57607D01*
X48856Y-57621D01*
X48785Y-57621D01*
X48756Y-57607D01*
X48742Y-57593D01*
X49042Y-57593D02*
X49057Y-57607D01*
X49042Y-57621D01*
X49028Y-57607D01*
X49042Y-57593D01*
X49042Y-57621D01*
X49157Y-57321D02*
X49357Y-57321D01*
X49228Y-57621D01*
X49614Y-57321D02*
X49471Y-57321D01*
X49457Y-57464D01*
X49471Y-57450D01*
X49500Y-57436D01*
X49571Y-57436D01*
X49600Y-57450D01*
X49614Y-57464D01*
X49629Y-57493D01*
X49629Y-57564D01*
X49614Y-57593D01*
X49600Y-57607D01*
X49571Y-57621D01*
X49500Y-57621D01*
X49471Y-57607D01*
X49457Y-57593D01*
G54D12*
X09524Y-23899D02*
X09524Y-23556D01*
X10324Y-23727D02*
X09524Y-23727D01*
X10324Y-23013D02*
X09943Y-23213D01*
X10324Y-23356D02*
X09524Y-23356D01*
X09524Y-23128D01*
X09562Y-23070D01*
X09600Y-23042D01*
X09676Y-23013D01*
X09790Y-23013D01*
X09867Y-23042D01*
X09905Y-23070D01*
X09943Y-23128D01*
X09943Y-23356D01*
X10095Y-22785D02*
X10095Y-22499D01*
X10324Y-22842D02*
X09524Y-22642D01*
X10324Y-22442D01*
X10248Y-21899D02*
X10286Y-21928D01*
X10324Y-22014D01*
X10324Y-22071D01*
X10286Y-22156D01*
X10210Y-22214D01*
X10133Y-22242D01*
X09981Y-22271D01*
X09867Y-22271D01*
X09714Y-22242D01*
X09638Y-22214D01*
X09562Y-22156D01*
X09524Y-22071D01*
X09524Y-22014D01*
X09562Y-21928D01*
X09600Y-21899D01*
X09600Y-21214D02*
X09562Y-21185D01*
X09524Y-21128D01*
X09524Y-20985D01*
X09562Y-20928D01*
X09600Y-20899D01*
X09676Y-20871D01*
X09752Y-20871D01*
X09867Y-20899D01*
X10324Y-21242D01*
X10324Y-20871D01*
X09524Y-20500D02*
X09524Y-20443D01*
X09562Y-20386D01*
X09600Y-20357D01*
X09676Y-20328D01*
X09829Y-20300D01*
X10019Y-20300D01*
X10171Y-20328D01*
X10248Y-20357D01*
X10286Y-20386D01*
X10324Y-20443D01*
X10324Y-20500D01*
X10286Y-20557D01*
X10248Y-20586D01*
X10171Y-20614D01*
X10019Y-20643D01*
X09829Y-20643D01*
X09676Y-20614D01*
X09600Y-20586D01*
X09562Y-20557D01*
X09524Y-20500D01*
X10324Y-19729D02*
X10324Y-20072D01*
X10324Y-19900D02*
X09524Y-19900D01*
X09638Y-19957D01*
X09714Y-20015D01*
X09752Y-20072D01*
X09524Y-19186D02*
X09524Y-19472D01*
X09905Y-19501D01*
X09867Y-19472D01*
X09829Y-19415D01*
X09829Y-19272D01*
X09867Y-19215D01*
X09905Y-19186D01*
X09981Y-19158D01*
X10171Y-19158D01*
X10248Y-19186D01*
X10286Y-19215D01*
X10324Y-19272D01*
X10324Y-19415D01*
X10286Y-19472D01*
X10248Y-19501D01*
X11145Y-25813D02*
X11145Y-25613D01*
X11564Y-25527D02*
X11564Y-25813D01*
X10764Y-25813D01*
X10764Y-25527D01*
X11488Y-25270D02*
X11526Y-25242D01*
X11564Y-25270D01*
X11526Y-25299D01*
X11488Y-25270D01*
X11564Y-25270D01*
X11564Y-24527D02*
X10764Y-24527D01*
X11145Y-24527D02*
X11145Y-24184D01*
X11564Y-24184D02*
X10764Y-24184D01*
X11526Y-23670D02*
X11564Y-23727D01*
X11564Y-23841D01*
X11526Y-23898D01*
X11450Y-23927D01*
X11145Y-23927D01*
X11069Y-23898D01*
X11030Y-23841D01*
X11030Y-23727D01*
X11069Y-23670D01*
X11145Y-23641D01*
X11221Y-23641D01*
X11297Y-23927D01*
X11030Y-23441D02*
X11564Y-23298D01*
X11030Y-23156D01*
X11526Y-22699D02*
X11564Y-22756D01*
X11564Y-22870D01*
X11526Y-22927D01*
X11450Y-22956D01*
X11145Y-22956D01*
X11069Y-22927D01*
X11030Y-22870D01*
X11030Y-22756D01*
X11069Y-22699D01*
X11145Y-22670D01*
X11221Y-22670D01*
X11297Y-22956D01*
X11564Y-22327D02*
X11526Y-22385D01*
X11450Y-22413D01*
X10764Y-22413D01*
X11564Y-21156D02*
X11564Y-21185D01*
X11526Y-21242D01*
X11411Y-21328D01*
X11183Y-21471D01*
X11069Y-21528D01*
X10954Y-21556D01*
X10878Y-21556D01*
X10802Y-21528D01*
X10764Y-21471D01*
X10764Y-21442D01*
X10802Y-21385D01*
X10878Y-21356D01*
X10916Y-21356D01*
X10992Y-21385D01*
X11030Y-21414D01*
X11183Y-21585D01*
X11221Y-21614D01*
X11297Y-21642D01*
X11411Y-21642D01*
X11488Y-21614D01*
X11526Y-21585D01*
X11564Y-21528D01*
X11564Y-21442D01*
X11526Y-21385D01*
X11488Y-21356D01*
X11335Y-21271D01*
X11221Y-21242D01*
X11145Y-21242D01*
X10802Y-20128D02*
X10764Y-20185D01*
X10764Y-20271D01*
X10802Y-20356D01*
X10878Y-20414D01*
X10954Y-20442D01*
X11107Y-20471D01*
X11221Y-20471D01*
X11373Y-20442D01*
X11450Y-20414D01*
X11526Y-20356D01*
X11564Y-20271D01*
X11564Y-20214D01*
X11526Y-20128D01*
X11488Y-20099D01*
X11221Y-20099D01*
X11221Y-20214D01*
X11488Y-19842D02*
X11526Y-19814D01*
X11564Y-19842D01*
X11526Y-19871D01*
X11488Y-19842D01*
X11564Y-19842D01*
X11564Y-19099D02*
X10764Y-19099D01*
X11564Y-18756D02*
X11107Y-19013D01*
X10764Y-18756D02*
X11221Y-19099D01*
X11526Y-18271D02*
X11564Y-18328D01*
X11564Y-18442D01*
X11526Y-18499D01*
X11450Y-18528D01*
X11145Y-18528D01*
X11069Y-18499D01*
X11030Y-18442D01*
X11030Y-18328D01*
X11069Y-18271D01*
X11145Y-18242D01*
X11221Y-18242D01*
X11297Y-18528D01*
X11564Y-17899D02*
X11526Y-17957D01*
X11450Y-17985D01*
X10764Y-17985D01*
X11564Y-17585D02*
X11526Y-17643D01*
X11450Y-17671D01*
X10764Y-17671D01*
X11030Y-17414D02*
X11564Y-17271D01*
X11030Y-17129D02*
X11564Y-17271D01*
X11754Y-17329D01*
X11792Y-17357D01*
X11830Y-17414D01*
G54D13*
X19300Y-24800D02*
X19000Y-24600D01*
X20000Y-24800D02*
X18975Y-24800D01*
X18975Y-24800D02*
X18975Y-24200D01*
X18975Y-24200D02*
X20000Y-24200D01*
X20000Y-24200D02*
X20000Y-24800D01*
X25200Y-22700D02*
X25199Y-22709D01*
X25196Y-22719D01*
X25191Y-22727D01*
X25185Y-22735D01*
X25177Y-22741D01*
X25169Y-22746D01*
X25160Y-22748D01*
X25150Y-22749D01*
X25141Y-22749D01*
X25132Y-22746D01*
X25123Y-22741D01*
X25116Y-22735D01*
X25109Y-22728D01*
X25105Y-22719D01*
X25102Y-22710D01*
X25101Y-22700D01*
X25101Y-22691D01*
X25104Y-22682D01*
X25108Y-22673D01*
X25115Y-22666D01*
X25122Y-22659D01*
X25130Y-22655D01*
X25140Y-22652D01*
X25149Y-22651D01*
X25158Y-22651D01*
X25168Y-22654D01*
X25176Y-22658D01*
X25184Y-22664D01*
X25190Y-22672D01*
X25195Y-22680D01*
X25198Y-22689D01*
X25199Y-22699D01*
X25200Y-22700D01*
X24700Y-22700D02*
X25100Y-22700D01*
X25100Y-22700D02*
X25100Y-23300D01*
X25100Y-23300D02*
X24700Y-23300D01*
X24300Y-23300D02*
X23900Y-23300D01*
X23900Y-23300D02*
X23900Y-22700D01*
X23900Y-22700D02*
X24300Y-22700D01*
X30350Y-20650D02*
X30349Y-20659D01*
X30346Y-20669D01*
X30341Y-20677D01*
X30335Y-20685D01*
X30327Y-20691D01*
X30319Y-20696D01*
X30310Y-20698D01*
X30300Y-20699D01*
X30291Y-20699D01*
X30282Y-20696D01*
X30273Y-20691D01*
X30266Y-20685D01*
X30259Y-20678D01*
X30255Y-20669D01*
X30252Y-20660D01*
X30251Y-20650D01*
X30251Y-20641D01*
X30254Y-20632D01*
X30258Y-20623D01*
X30265Y-20616D01*
X30272Y-20609D01*
X30280Y-20605D01*
X30290Y-20602D01*
X30299Y-20601D01*
X30308Y-20601D01*
X30318Y-20604D01*
X30326Y-20608D01*
X30334Y-20614D01*
X30340Y-20622D01*
X30345Y-20630D01*
X30348Y-20639D01*
X30349Y-20649D01*
X30350Y-20650D01*
X30300Y-20200D02*
X30300Y-20600D01*
X30300Y-20600D02*
X29700Y-20600D01*
X29700Y-20600D02*
X29700Y-20200D01*
X29700Y-19800D02*
X29700Y-19400D01*
X29700Y-19400D02*
X30300Y-19400D01*
X30300Y-19400D02*
X30300Y-19800D01*
X32350Y-34150D02*
X32349Y-34159D01*
X32346Y-34169D01*
X32341Y-34177D01*
X32335Y-34185D01*
X32327Y-34191D01*
X32319Y-34196D01*
X32310Y-34198D01*
X32300Y-34199D01*
X32291Y-34199D01*
X32282Y-34196D01*
X32273Y-34191D01*
X32266Y-34185D01*
X32259Y-34178D01*
X32255Y-34169D01*
X32252Y-34160D01*
X32251Y-34150D01*
X32251Y-34141D01*
X32254Y-34132D01*
X32258Y-34123D01*
X32265Y-34116D01*
X32272Y-34109D01*
X32280Y-34105D01*
X32290Y-34102D01*
X32299Y-34101D01*
X32308Y-34101D01*
X32318Y-34104D01*
X32326Y-34108D01*
X32334Y-34114D01*
X32340Y-34122D01*
X32345Y-34130D01*
X32348Y-34139D01*
X32349Y-34149D01*
X32350Y-34150D01*
X32300Y-33700D02*
X32300Y-34100D01*
X32300Y-34100D02*
X31700Y-34100D01*
X31700Y-34100D02*
X31700Y-33700D01*
X31700Y-33300D02*
X31700Y-32900D01*
X31700Y-32900D02*
X32300Y-32900D01*
X32300Y-32900D02*
X32300Y-33300D01*
X29250Y-23850D02*
X29249Y-23859D01*
X29246Y-23869D01*
X29241Y-23877D01*
X29235Y-23885D01*
X29227Y-23891D01*
X29219Y-23896D01*
X29210Y-23898D01*
X29200Y-23899D01*
X29191Y-23899D01*
X29182Y-23896D01*
X29173Y-23891D01*
X29166Y-23885D01*
X29159Y-23878D01*
X29155Y-23869D01*
X29152Y-23860D01*
X29151Y-23850D01*
X29151Y-23841D01*
X29154Y-23832D01*
X29158Y-23823D01*
X29165Y-23816D01*
X29172Y-23809D01*
X29180Y-23805D01*
X29190Y-23802D01*
X29199Y-23801D01*
X29208Y-23801D01*
X29218Y-23804D01*
X29226Y-23808D01*
X29234Y-23814D01*
X29240Y-23822D01*
X29245Y-23830D01*
X29248Y-23839D01*
X29249Y-23849D01*
X29250Y-23850D01*
X29200Y-24300D02*
X29200Y-23900D01*
X29200Y-23900D02*
X29800Y-23900D01*
X29800Y-23900D02*
X29800Y-24300D01*
X29800Y-24700D02*
X29800Y-25100D01*
X29800Y-25100D02*
X29200Y-25100D01*
X29200Y-25100D02*
X29200Y-24700D01*
X34350Y-32650D02*
X34349Y-32659D01*
X34346Y-32669D01*
X34341Y-32677D01*
X34335Y-32685D01*
X34327Y-32691D01*
X34319Y-32696D01*
X34310Y-32698D01*
X34300Y-32699D01*
X34291Y-32699D01*
X34282Y-32696D01*
X34273Y-32691D01*
X34266Y-32685D01*
X34259Y-32678D01*
X34255Y-32669D01*
X34252Y-32660D01*
X34251Y-32650D01*
X34251Y-32641D01*
X34254Y-32632D01*
X34258Y-32623D01*
X34265Y-32616D01*
X34272Y-32609D01*
X34280Y-32605D01*
X34290Y-32602D01*
X34299Y-32601D01*
X34308Y-32601D01*
X34318Y-32604D01*
X34326Y-32608D01*
X34334Y-32614D01*
X34340Y-32622D01*
X34345Y-32630D01*
X34348Y-32639D01*
X34349Y-32649D01*
X34350Y-32650D01*
X34300Y-32200D02*
X34300Y-32600D01*
X34300Y-32600D02*
X33700Y-32600D01*
X33700Y-32600D02*
X33700Y-32200D01*
X33700Y-31800D02*
X33700Y-31400D01*
X33700Y-31400D02*
X34300Y-31400D01*
X34300Y-31400D02*
X34300Y-31800D01*
X30750Y-24350D02*
X30749Y-24359D01*
X30746Y-24369D01*
X30741Y-24377D01*
X30735Y-24385D01*
X30727Y-24391D01*
X30719Y-24396D01*
X30710Y-24398D01*
X30700Y-24399D01*
X30691Y-24399D01*
X30682Y-24396D01*
X30673Y-24391D01*
X30666Y-24385D01*
X30659Y-24378D01*
X30655Y-24369D01*
X30652Y-24360D01*
X30651Y-24350D01*
X30651Y-24341D01*
X30654Y-24332D01*
X30658Y-24323D01*
X30665Y-24316D01*
X30672Y-24309D01*
X30680Y-24305D01*
X30690Y-24302D01*
X30699Y-24301D01*
X30708Y-24301D01*
X30718Y-24304D01*
X30726Y-24308D01*
X30734Y-24314D01*
X30740Y-24322D01*
X30745Y-24330D01*
X30748Y-24339D01*
X30749Y-24349D01*
X30750Y-24350D01*
X30700Y-24800D02*
X30700Y-24400D01*
X30700Y-24400D02*
X31300Y-24400D01*
X31300Y-24400D02*
X31300Y-24800D01*
X31300Y-25200D02*
X31300Y-25600D01*
X31300Y-25600D02*
X30700Y-25600D01*
X30700Y-25600D02*
X30700Y-25200D01*
X21200Y-25700D02*
X21199Y-25709D01*
X21196Y-25719D01*
X21191Y-25727D01*
X21185Y-25735D01*
X21177Y-25741D01*
X21169Y-25746D01*
X21160Y-25748D01*
X21150Y-25749D01*
X21141Y-25749D01*
X21132Y-25746D01*
X21123Y-25741D01*
X21116Y-25735D01*
X21109Y-25728D01*
X21105Y-25719D01*
X21102Y-25710D01*
X21101Y-25700D01*
X21101Y-25691D01*
X21104Y-25682D01*
X21108Y-25673D01*
X21115Y-25666D01*
X21122Y-25659D01*
X21130Y-25655D01*
X21140Y-25652D01*
X21149Y-25651D01*
X21158Y-25651D01*
X21168Y-25654D01*
X21176Y-25658D01*
X21184Y-25664D01*
X21190Y-25672D01*
X21195Y-25680D01*
X21198Y-25689D01*
X21199Y-25699D01*
X21200Y-25700D01*
X20700Y-25700D02*
X21100Y-25700D01*
X21100Y-25700D02*
X21100Y-26300D01*
X21100Y-26300D02*
X20700Y-26300D01*
X20300Y-26300D02*
X19900Y-26300D01*
X19900Y-26300D02*
X19900Y-25700D01*
X19900Y-25700D02*
X20300Y-25700D01*
X28750Y-31850D02*
X28749Y-31859D01*
X28746Y-31869D01*
X28741Y-31877D01*
X28735Y-31885D01*
X28727Y-31891D01*
X28719Y-31896D01*
X28710Y-31898D01*
X28700Y-31899D01*
X28691Y-31899D01*
X28682Y-31896D01*
X28673Y-31891D01*
X28666Y-31885D01*
X28659Y-31878D01*
X28655Y-31869D01*
X28652Y-31860D01*
X28651Y-31850D01*
X28651Y-31841D01*
X28654Y-31832D01*
X28658Y-31823D01*
X28665Y-31816D01*
X28672Y-31809D01*
X28680Y-31805D01*
X28690Y-31802D01*
X28699Y-31801D01*
X28708Y-31801D01*
X28718Y-31804D01*
X28726Y-31808D01*
X28734Y-31814D01*
X28740Y-31822D01*
X28745Y-31830D01*
X28748Y-31839D01*
X28749Y-31849D01*
X28750Y-31850D01*
X28700Y-32300D02*
X28700Y-31900D01*
X28700Y-31900D02*
X29300Y-31900D01*
X29300Y-31900D02*
X29300Y-32300D01*
X29300Y-32700D02*
X29300Y-33100D01*
X29300Y-33100D02*
X28700Y-33100D01*
X28700Y-33100D02*
X28700Y-32700D01*
X34850Y-40650D02*
X34849Y-40659D01*
X34846Y-40669D01*
X34841Y-40677D01*
X34835Y-40685D01*
X34827Y-40691D01*
X34819Y-40696D01*
X34810Y-40698D01*
X34800Y-40699D01*
X34791Y-40699D01*
X34782Y-40696D01*
X34773Y-40691D01*
X34766Y-40685D01*
X34759Y-40678D01*
X34755Y-40669D01*
X34752Y-40660D01*
X34751Y-40650D01*
X34751Y-40641D01*
X34754Y-40632D01*
X34758Y-40623D01*
X34765Y-40616D01*
X34772Y-40609D01*
X34780Y-40605D01*
X34790Y-40602D01*
X34799Y-40601D01*
X34808Y-40601D01*
X34818Y-40604D01*
X34826Y-40608D01*
X34834Y-40614D01*
X34840Y-40622D01*
X34845Y-40630D01*
X34848Y-40639D01*
X34849Y-40649D01*
X34850Y-40650D01*
X34800Y-40200D02*
X34800Y-40600D01*
X34800Y-40600D02*
X34200Y-40600D01*
X34200Y-40600D02*
X34200Y-40200D01*
X34200Y-39800D02*
X34200Y-39400D01*
X34200Y-39400D02*
X34800Y-39400D01*
X34800Y-39400D02*
X34800Y-39800D01*
X35850Y-41150D02*
X35849Y-41159D01*
X35846Y-41169D01*
X35841Y-41177D01*
X35835Y-41185D01*
X35827Y-41191D01*
X35819Y-41196D01*
X35810Y-41198D01*
X35800Y-41199D01*
X35791Y-41199D01*
X35782Y-41196D01*
X35773Y-41191D01*
X35766Y-41185D01*
X35759Y-41178D01*
X35755Y-41169D01*
X35752Y-41160D01*
X35751Y-41150D01*
X35751Y-41141D01*
X35754Y-41132D01*
X35758Y-41123D01*
X35765Y-41116D01*
X35772Y-41109D01*
X35780Y-41105D01*
X35790Y-41102D01*
X35799Y-41101D01*
X35808Y-41101D01*
X35818Y-41104D01*
X35826Y-41108D01*
X35834Y-41114D01*
X35840Y-41122D01*
X35845Y-41130D01*
X35848Y-41139D01*
X35849Y-41149D01*
X35850Y-41150D01*
X35800Y-40700D02*
X35800Y-41100D01*
X35800Y-41100D02*
X35200Y-41100D01*
X35200Y-41100D02*
X35200Y-40700D01*
X35200Y-40300D02*
X35200Y-39900D01*
X35200Y-39900D02*
X35800Y-39900D01*
X35800Y-39900D02*
X35800Y-40300D01*
X33350Y-33150D02*
X33349Y-33159D01*
X33346Y-33169D01*
X33341Y-33177D01*
X33335Y-33185D01*
X33327Y-33191D01*
X33319Y-33196D01*
X33310Y-33198D01*
X33300Y-33199D01*
X33291Y-33199D01*
X33282Y-33196D01*
X33273Y-33191D01*
X33266Y-33185D01*
X33259Y-33178D01*
X33255Y-33169D01*
X33252Y-33160D01*
X33251Y-33150D01*
X33251Y-33141D01*
X33254Y-33132D01*
X33258Y-33123D01*
X33265Y-33116D01*
X33272Y-33109D01*
X33280Y-33105D01*
X33290Y-33102D01*
X33299Y-33101D01*
X33308Y-33101D01*
X33318Y-33104D01*
X33326Y-33108D01*
X33334Y-33114D01*
X33340Y-33122D01*
X33345Y-33130D01*
X33348Y-33139D01*
X33349Y-33149D01*
X33350Y-33150D01*
X33300Y-32700D02*
X33300Y-33100D01*
X33300Y-33100D02*
X32700Y-33100D01*
X32700Y-33100D02*
X32700Y-32700D01*
X32700Y-32300D02*
X32700Y-31900D01*
X32700Y-31900D02*
X33300Y-31900D01*
X33300Y-31900D02*
X33300Y-32300D01*
X30200Y-33700D02*
X30199Y-33709D01*
X30196Y-33719D01*
X30191Y-33727D01*
X30185Y-33735D01*
X30177Y-33741D01*
X30169Y-33746D01*
X30160Y-33748D01*
X30150Y-33749D01*
X30141Y-33749D01*
X30132Y-33746D01*
X30123Y-33741D01*
X30116Y-33735D01*
X30109Y-33728D01*
X30105Y-33719D01*
X30102Y-33710D01*
X30101Y-33700D01*
X30101Y-33691D01*
X30104Y-33682D01*
X30108Y-33673D01*
X30115Y-33666D01*
X30122Y-33659D01*
X30130Y-33655D01*
X30140Y-33652D01*
X30149Y-33651D01*
X30158Y-33651D01*
X30168Y-33654D01*
X30176Y-33658D01*
X30184Y-33664D01*
X30190Y-33672D01*
X30195Y-33680D01*
X30198Y-33689D01*
X30199Y-33699D01*
X30200Y-33700D01*
X29700Y-33700D02*
X30100Y-33700D01*
X30100Y-33700D02*
X30100Y-34300D01*
X30100Y-34300D02*
X29700Y-34300D01*
X29300Y-34300D02*
X28900Y-34300D01*
X28900Y-34300D02*
X28900Y-33700D01*
X28900Y-33700D02*
X29300Y-33700D01*
X33200Y-36700D02*
X33199Y-36709D01*
X33196Y-36719D01*
X33191Y-36727D01*
X33185Y-36735D01*
X33177Y-36741D01*
X33169Y-36746D01*
X33160Y-36748D01*
X33150Y-36749D01*
X33141Y-36749D01*
X33132Y-36746D01*
X33123Y-36741D01*
X33116Y-36735D01*
X33109Y-36728D01*
X33105Y-36719D01*
X33102Y-36710D01*
X33101Y-36700D01*
X33101Y-36691D01*
X33104Y-36682D01*
X33108Y-36673D01*
X33115Y-36666D01*
X33122Y-36659D01*
X33130Y-36655D01*
X33140Y-36652D01*
X33149Y-36651D01*
X33158Y-36651D01*
X33168Y-36654D01*
X33176Y-36658D01*
X33184Y-36664D01*
X33190Y-36672D01*
X33195Y-36680D01*
X33198Y-36689D01*
X33199Y-36699D01*
X33200Y-36700D01*
X32700Y-36700D02*
X33100Y-36700D01*
X33100Y-36700D02*
X33100Y-37300D01*
X33100Y-37300D02*
X32700Y-37300D01*
X32300Y-37300D02*
X31900Y-37300D01*
X31900Y-37300D02*
X31900Y-36700D01*
X31900Y-36700D02*
X32300Y-36700D01*
X10900Y-33800D02*
X10899Y-33809D01*
X10896Y-33819D01*
X10891Y-33827D01*
X10885Y-33835D01*
X10877Y-33841D01*
X10869Y-33846D01*
X10860Y-33848D01*
X10850Y-33849D01*
X10841Y-33849D01*
X10832Y-33846D01*
X10823Y-33841D01*
X10816Y-33835D01*
X10809Y-33828D01*
X10805Y-33819D01*
X10802Y-33810D01*
X10801Y-33800D01*
X10801Y-33791D01*
X10804Y-33782D01*
X10808Y-33773D01*
X10815Y-33766D01*
X10822Y-33759D01*
X10830Y-33755D01*
X10840Y-33752D01*
X10849Y-33751D01*
X10858Y-33751D01*
X10868Y-33754D01*
X10876Y-33758D01*
X10884Y-33764D01*
X10890Y-33772D01*
X10895Y-33780D01*
X10898Y-33789D01*
X10899Y-33799D01*
X10900Y-33800D01*
X11300Y-33800D02*
X10900Y-33800D01*
X10900Y-33800D02*
X10900Y-33200D01*
X10900Y-33200D02*
X11300Y-33200D01*
X11700Y-33200D02*
X12100Y-33200D01*
X12100Y-33200D02*
X12100Y-33800D01*
X12100Y-33800D02*
X11700Y-33800D01*
X34200Y-37700D02*
X34199Y-37709D01*
X34196Y-37719D01*
X34191Y-37727D01*
X34185Y-37735D01*
X34177Y-37741D01*
X34169Y-37746D01*
X34160Y-37748D01*
X34150Y-37749D01*
X34141Y-37749D01*
X34132Y-37746D01*
X34123Y-37741D01*
X34116Y-37735D01*
X34109Y-37728D01*
X34105Y-37719D01*
X34102Y-37710D01*
X34101Y-37700D01*
X34101Y-37691D01*
X34104Y-37682D01*
X34108Y-37673D01*
X34115Y-37666D01*
X34122Y-37659D01*
X34130Y-37655D01*
X34140Y-37652D01*
X34149Y-37651D01*
X34158Y-37651D01*
X34168Y-37654D01*
X34176Y-37658D01*
X34184Y-37664D01*
X34190Y-37672D01*
X34195Y-37680D01*
X34198Y-37689D01*
X34199Y-37699D01*
X34200Y-37700D01*
X33700Y-37700D02*
X34100Y-37700D01*
X34100Y-37700D02*
X34100Y-38300D01*
X34100Y-38300D02*
X33700Y-38300D01*
X33300Y-38300D02*
X32900Y-38300D01*
X32900Y-38300D02*
X32900Y-37700D01*
X32900Y-37700D02*
X33300Y-37700D01*
X14750Y-51850D02*
X14749Y-51859D01*
X14746Y-51869D01*
X14741Y-51877D01*
X14735Y-51885D01*
X14727Y-51891D01*
X14719Y-51896D01*
X14710Y-51898D01*
X14700Y-51899D01*
X14691Y-51899D01*
X14682Y-51896D01*
X14673Y-51891D01*
X14666Y-51885D01*
X14659Y-51878D01*
X14655Y-51869D01*
X14652Y-51860D01*
X14651Y-51850D01*
X14651Y-51841D01*
X14654Y-51832D01*
X14658Y-51823D01*
X14665Y-51816D01*
X14672Y-51809D01*
X14680Y-51805D01*
X14690Y-51802D01*
X14699Y-51801D01*
X14708Y-51801D01*
X14718Y-51804D01*
X14726Y-51808D01*
X14734Y-51814D01*
X14740Y-51822D01*
X14745Y-51830D01*
X14748Y-51839D01*
X14749Y-51849D01*
X14750Y-51850D01*
X14700Y-52300D02*
X14700Y-51900D01*
X14700Y-51900D02*
X15300Y-51900D01*
X15300Y-51900D02*
X15300Y-52300D01*
X15300Y-52700D02*
X15300Y-53100D01*
X15300Y-53100D02*
X14700Y-53100D01*
X14700Y-53100D02*
X14700Y-52700D01*
X18250Y-39350D02*
X18249Y-39359D01*
X18246Y-39369D01*
X18241Y-39377D01*
X18235Y-39385D01*
X18227Y-39391D01*
X18219Y-39396D01*
X18210Y-39398D01*
X18200Y-39399D01*
X18191Y-39399D01*
X18182Y-39396D01*
X18173Y-39391D01*
X18166Y-39385D01*
X18159Y-39378D01*
X18155Y-39369D01*
X18152Y-39360D01*
X18151Y-39350D01*
X18151Y-39341D01*
X18154Y-39332D01*
X18158Y-39323D01*
X18165Y-39316D01*
X18172Y-39309D01*
X18180Y-39305D01*
X18190Y-39302D01*
X18199Y-39301D01*
X18208Y-39301D01*
X18218Y-39304D01*
X18226Y-39308D01*
X18234Y-39314D01*
X18240Y-39322D01*
X18245Y-39330D01*
X18248Y-39339D01*
X18249Y-39349D01*
X18250Y-39350D01*
X18200Y-39800D02*
X18200Y-39400D01*
X18200Y-39400D02*
X18800Y-39400D01*
X18800Y-39400D02*
X18800Y-39800D01*
X18800Y-40200D02*
X18800Y-40600D01*
X18800Y-40600D02*
X18200Y-40600D01*
X18200Y-40600D02*
X18200Y-40200D01*
X16350Y-38650D02*
X16349Y-38659D01*
X16346Y-38669D01*
X16341Y-38677D01*
X16335Y-38685D01*
X16327Y-38691D01*
X16319Y-38696D01*
X16310Y-38698D01*
X16300Y-38699D01*
X16291Y-38699D01*
X16282Y-38696D01*
X16273Y-38691D01*
X16266Y-38685D01*
X16259Y-38678D01*
X16255Y-38669D01*
X16252Y-38660D01*
X16251Y-38650D01*
X16251Y-38641D01*
X16254Y-38632D01*
X16258Y-38623D01*
X16265Y-38616D01*
X16272Y-38609D01*
X16280Y-38605D01*
X16290Y-38602D01*
X16299Y-38601D01*
X16308Y-38601D01*
X16318Y-38604D01*
X16326Y-38608D01*
X16334Y-38614D01*
X16340Y-38622D01*
X16345Y-38630D01*
X16348Y-38639D01*
X16349Y-38649D01*
X16350Y-38650D01*
X16300Y-38200D02*
X16300Y-38600D01*
X16300Y-38600D02*
X15700Y-38600D01*
X15700Y-38600D02*
X15700Y-38200D01*
X15700Y-37800D02*
X15700Y-37400D01*
X15700Y-37400D02*
X16300Y-37400D01*
X16300Y-37400D02*
X16300Y-37800D01*
X13350Y-65650D02*
X13349Y-65659D01*
X13346Y-65669D01*
X13341Y-65677D01*
X13335Y-65685D01*
X13327Y-65691D01*
X13319Y-65696D01*
X13310Y-65698D01*
X13300Y-65699D01*
X13291Y-65699D01*
X13282Y-65696D01*
X13273Y-65691D01*
X13266Y-65685D01*
X13259Y-65678D01*
X13255Y-65669D01*
X13252Y-65660D01*
X13251Y-65650D01*
X13251Y-65641D01*
X13254Y-65632D01*
X13258Y-65623D01*
X13265Y-65616D01*
X13272Y-65609D01*
X13280Y-65605D01*
X13290Y-65602D01*
X13299Y-65601D01*
X13308Y-65601D01*
X13318Y-65604D01*
X13326Y-65608D01*
X13334Y-65614D01*
X13340Y-65622D01*
X13345Y-65630D01*
X13348Y-65639D01*
X13349Y-65649D01*
X13350Y-65650D01*
X13300Y-65200D02*
X13300Y-65600D01*
X13300Y-65600D02*
X12700Y-65600D01*
X12700Y-65600D02*
X12700Y-65200D01*
X12700Y-64800D02*
X12700Y-64400D01*
X12700Y-64400D02*
X13300Y-64400D01*
X13300Y-64400D02*
X13300Y-64800D01*
X15350Y-67650D02*
X15349Y-67659D01*
X15346Y-67669D01*
X15341Y-67677D01*
X15335Y-67685D01*
X15327Y-67691D01*
X15319Y-67696D01*
X15310Y-67698D01*
X15300Y-67699D01*
X15291Y-67699D01*
X15282Y-67696D01*
X15273Y-67691D01*
X15266Y-67685D01*
X15259Y-67678D01*
X15255Y-67669D01*
X15252Y-67660D01*
X15251Y-67650D01*
X15251Y-67641D01*
X15254Y-67632D01*
X15258Y-67623D01*
X15265Y-67616D01*
X15272Y-67609D01*
X15280Y-67605D01*
X15290Y-67602D01*
X15299Y-67601D01*
X15308Y-67601D01*
X15318Y-67604D01*
X15326Y-67608D01*
X15334Y-67614D01*
X15340Y-67622D01*
X15345Y-67630D01*
X15348Y-67639D01*
X15349Y-67649D01*
X15350Y-67650D01*
X15300Y-67200D02*
X15300Y-67600D01*
X15300Y-67600D02*
X14700Y-67600D01*
X14700Y-67600D02*
X14700Y-67200D01*
X14700Y-66800D02*
X14700Y-66400D01*
X14700Y-66400D02*
X15300Y-66400D01*
X15300Y-66400D02*
X15300Y-66800D01*
X34750Y-52350D02*
X34749Y-52359D01*
X34746Y-52369D01*
X34741Y-52377D01*
X34735Y-52385D01*
X34727Y-52391D01*
X34719Y-52396D01*
X34710Y-52398D01*
X34700Y-52399D01*
X34691Y-52399D01*
X34682Y-52396D01*
X34673Y-52391D01*
X34666Y-52385D01*
X34659Y-52378D01*
X34655Y-52369D01*
X34652Y-52360D01*
X34651Y-52350D01*
X34651Y-52341D01*
X34654Y-52332D01*
X34658Y-52323D01*
X34665Y-52316D01*
X34672Y-52309D01*
X34680Y-52305D01*
X34690Y-52302D01*
X34699Y-52301D01*
X34708Y-52301D01*
X34718Y-52304D01*
X34726Y-52308D01*
X34734Y-52314D01*
X34740Y-52322D01*
X34745Y-52330D01*
X34748Y-52339D01*
X34749Y-52349D01*
X34750Y-52350D01*
X34700Y-52800D02*
X34700Y-52400D01*
X34700Y-52400D02*
X35300Y-52400D01*
X35300Y-52400D02*
X35300Y-52800D01*
X35300Y-53200D02*
X35300Y-53600D01*
X35300Y-53600D02*
X34700Y-53600D01*
X34700Y-53600D02*
X34700Y-53200D01*
X37200Y-51700D02*
X37199Y-51709D01*
X37196Y-51719D01*
X37191Y-51727D01*
X37185Y-51735D01*
X37177Y-51741D01*
X37169Y-51746D01*
X37160Y-51748D01*
X37150Y-51749D01*
X37141Y-51749D01*
X37132Y-51746D01*
X37123Y-51741D01*
X37116Y-51735D01*
X37109Y-51728D01*
X37105Y-51719D01*
X37102Y-51710D01*
X37101Y-51700D01*
X37101Y-51691D01*
X37104Y-51682D01*
X37108Y-51673D01*
X37115Y-51666D01*
X37122Y-51659D01*
X37130Y-51655D01*
X37140Y-51652D01*
X37149Y-51651D01*
X37158Y-51651D01*
X37168Y-51654D01*
X37176Y-51658D01*
X37184Y-51664D01*
X37190Y-51672D01*
X37195Y-51680D01*
X37198Y-51689D01*
X37199Y-51699D01*
X37200Y-51700D01*
X36700Y-51700D02*
X37100Y-51700D01*
X37100Y-51700D02*
X37100Y-52300D01*
X37100Y-52300D02*
X36700Y-52300D01*
X36300Y-52300D02*
X35900Y-52300D01*
X35900Y-52300D02*
X35900Y-51700D01*
X35900Y-51700D02*
X36300Y-51700D01*
X16750Y-52350D02*
X16749Y-52359D01*
X16746Y-52369D01*
X16741Y-52377D01*
X16735Y-52385D01*
X16727Y-52391D01*
X16719Y-52396D01*
X16710Y-52398D01*
X16700Y-52399D01*
X16691Y-52399D01*
X16682Y-52396D01*
X16673Y-52391D01*
X16666Y-52385D01*
X16659Y-52378D01*
X16655Y-52369D01*
X16652Y-52360D01*
X16651Y-52350D01*
X16651Y-52341D01*
X16654Y-52332D01*
X16658Y-52323D01*
X16665Y-52316D01*
X16672Y-52309D01*
X16680Y-52305D01*
X16690Y-52302D01*
X16699Y-52301D01*
X16708Y-52301D01*
X16718Y-52304D01*
X16726Y-52308D01*
X16734Y-52314D01*
X16740Y-52322D01*
X16745Y-52330D01*
X16748Y-52339D01*
X16749Y-52349D01*
X16750Y-52350D01*
X16700Y-52800D02*
X16700Y-52400D01*
X16700Y-52400D02*
X17300Y-52400D01*
X17300Y-52400D02*
X17300Y-52800D01*
X17300Y-53200D02*
X17300Y-53600D01*
X17300Y-53600D02*
X16700Y-53600D01*
X16700Y-53600D02*
X16700Y-53200D01*
X19200Y-51700D02*
X19199Y-51709D01*
X19196Y-51719D01*
X19191Y-51727D01*
X19185Y-51735D01*
X19177Y-51741D01*
X19169Y-51746D01*
X19160Y-51748D01*
X19150Y-51749D01*
X19141Y-51749D01*
X19132Y-51746D01*
X19123Y-51741D01*
X19116Y-51735D01*
X19109Y-51728D01*
X19105Y-51719D01*
X19102Y-51710D01*
X19101Y-51700D01*
X19101Y-51691D01*
X19104Y-51682D01*
X19108Y-51673D01*
X19115Y-51666D01*
X19122Y-51659D01*
X19130Y-51655D01*
X19140Y-51652D01*
X19149Y-51651D01*
X19158Y-51651D01*
X19168Y-51654D01*
X19176Y-51658D01*
X19184Y-51664D01*
X19190Y-51672D01*
X19195Y-51680D01*
X19198Y-51689D01*
X19199Y-51699D01*
X19200Y-51700D01*
X18700Y-51700D02*
X19100Y-51700D01*
X19100Y-51700D02*
X19100Y-52300D01*
X19100Y-52300D02*
X18700Y-52300D01*
X18300Y-52300D02*
X17900Y-52300D01*
X17900Y-52300D02*
X17900Y-51700D01*
X17900Y-51700D02*
X18300Y-51700D01*
X32750Y-51850D02*
X32749Y-51859D01*
X32746Y-51869D01*
X32741Y-51877D01*
X32735Y-51885D01*
X32727Y-51891D01*
X32719Y-51896D01*
X32710Y-51898D01*
X32700Y-51899D01*
X32691Y-51899D01*
X32682Y-51896D01*
X32673Y-51891D01*
X32666Y-51885D01*
X32659Y-51878D01*
X32655Y-51869D01*
X32652Y-51860D01*
X32651Y-51850D01*
X32651Y-51841D01*
X32654Y-51832D01*
X32658Y-51823D01*
X32665Y-51816D01*
X32672Y-51809D01*
X32680Y-51805D01*
X32690Y-51802D01*
X32699Y-51801D01*
X32708Y-51801D01*
X32718Y-51804D01*
X32726Y-51808D01*
X32734Y-51814D01*
X32740Y-51822D01*
X32745Y-51830D01*
X32748Y-51839D01*
X32749Y-51849D01*
X32750Y-51850D01*
X32700Y-52300D02*
X32700Y-51900D01*
X32700Y-51900D02*
X33300Y-51900D01*
X33300Y-51900D02*
X33300Y-52300D01*
X33300Y-52700D02*
X33300Y-53100D01*
X33300Y-53100D02*
X32700Y-53100D01*
X32700Y-53100D02*
X32700Y-52700D01*
X48000Y-24600D02*
X47999Y-24609D01*
X47996Y-24619D01*
X47991Y-24627D01*
X47985Y-24635D01*
X47977Y-24641D01*
X47969Y-24646D01*
X47960Y-24648D01*
X47950Y-24649D01*
X47941Y-24649D01*
X47932Y-24646D01*
X47923Y-24641D01*
X47916Y-24635D01*
X47909Y-24628D01*
X47905Y-24619D01*
X47902Y-24610D01*
X47901Y-24600D01*
X47901Y-24591D01*
X47904Y-24582D01*
X47908Y-24573D01*
X47915Y-24566D01*
X47922Y-24559D01*
X47930Y-24555D01*
X47940Y-24552D01*
X47949Y-24551D01*
X47958Y-24551D01*
X47968Y-24554D01*
X47976Y-24558D01*
X47984Y-24564D01*
X47990Y-24572D01*
X47995Y-24580D01*
X47998Y-24589D01*
X47999Y-24599D01*
X48000Y-24600D01*
X47950Y-25050D02*
X47950Y-24650D01*
X47950Y-24650D02*
X48550Y-24650D01*
X48550Y-24650D02*
X48550Y-25050D01*
X48550Y-25450D02*
X48550Y-25850D01*
X48550Y-25850D02*
X47950Y-25850D01*
X47950Y-25850D02*
X47950Y-25450D01*
X34200Y-72200D02*
X34199Y-72209D01*
X34196Y-72219D01*
X34191Y-72227D01*
X34185Y-72235D01*
X34177Y-72241D01*
X34169Y-72246D01*
X34160Y-72248D01*
X34150Y-72249D01*
X34141Y-72249D01*
X34132Y-72246D01*
X34123Y-72241D01*
X34116Y-72235D01*
X34109Y-72228D01*
X34105Y-72219D01*
X34102Y-72210D01*
X34101Y-72200D01*
X34101Y-72191D01*
X34104Y-72182D01*
X34108Y-72173D01*
X34115Y-72166D01*
X34122Y-72159D01*
X34130Y-72155D01*
X34140Y-72152D01*
X34149Y-72151D01*
X34158Y-72151D01*
X34168Y-72154D01*
X34176Y-72158D01*
X34184Y-72164D01*
X34190Y-72172D01*
X34195Y-72180D01*
X34198Y-72189D01*
X34199Y-72199D01*
X34200Y-72200D01*
X33700Y-72200D02*
X34100Y-72200D01*
X34100Y-72200D02*
X34100Y-72800D01*
X34100Y-72800D02*
X33700Y-72800D01*
X33300Y-72800D02*
X32900Y-72800D01*
X32900Y-72800D02*
X32900Y-72200D01*
X32900Y-72200D02*
X33300Y-72200D01*
X29700Y-68200D02*
X29699Y-68209D01*
X29696Y-68219D01*
X29691Y-68227D01*
X29685Y-68235D01*
X29677Y-68241D01*
X29669Y-68246D01*
X29660Y-68248D01*
X29650Y-68249D01*
X29641Y-68249D01*
X29632Y-68246D01*
X29623Y-68241D01*
X29616Y-68235D01*
X29609Y-68228D01*
X29605Y-68219D01*
X29602Y-68210D01*
X29601Y-68200D01*
X29601Y-68191D01*
X29604Y-68182D01*
X29608Y-68173D01*
X29615Y-68166D01*
X29622Y-68159D01*
X29630Y-68155D01*
X29640Y-68152D01*
X29649Y-68151D01*
X29658Y-68151D01*
X29668Y-68154D01*
X29676Y-68158D01*
X29684Y-68164D01*
X29690Y-68172D01*
X29695Y-68180D01*
X29698Y-68189D01*
X29699Y-68199D01*
X29700Y-68200D01*
X29200Y-68200D02*
X29600Y-68200D01*
X29600Y-68200D02*
X29600Y-68800D01*
X29600Y-68800D02*
X29200Y-68800D01*
X28800Y-68800D02*
X28400Y-68800D01*
X28400Y-68800D02*
X28400Y-68200D01*
X28400Y-68200D02*
X28800Y-68200D01*
X31850Y-72150D02*
X31849Y-72159D01*
X31846Y-72169D01*
X31841Y-72177D01*
X31835Y-72185D01*
X31827Y-72191D01*
X31819Y-72196D01*
X31810Y-72198D01*
X31800Y-72199D01*
X31791Y-72199D01*
X31782Y-72196D01*
X31773Y-72191D01*
X31766Y-72185D01*
X31759Y-72178D01*
X31755Y-72169D01*
X31752Y-72160D01*
X31751Y-72150D01*
X31751Y-72141D01*
X31754Y-72132D01*
X31758Y-72123D01*
X31765Y-72116D01*
X31772Y-72109D01*
X31780Y-72105D01*
X31790Y-72102D01*
X31799Y-72101D01*
X31808Y-72101D01*
X31818Y-72104D01*
X31826Y-72108D01*
X31834Y-72114D01*
X31840Y-72122D01*
X31845Y-72130D01*
X31848Y-72139D01*
X31849Y-72149D01*
X31850Y-72150D01*
X31800Y-71700D02*
X31800Y-72100D01*
X31800Y-72100D02*
X31200Y-72100D01*
X31200Y-72100D02*
X31200Y-71700D01*
X31200Y-71300D02*
X31200Y-70900D01*
X31200Y-70900D02*
X31800Y-70900D01*
X31800Y-70900D02*
X31800Y-71300D01*
X36250Y-65850D02*
X36249Y-65859D01*
X36246Y-65869D01*
X36241Y-65877D01*
X36235Y-65885D01*
X36227Y-65891D01*
X36219Y-65896D01*
X36210Y-65898D01*
X36200Y-65899D01*
X36191Y-65899D01*
X36182Y-65896D01*
X36173Y-65891D01*
X36166Y-65885D01*
X36159Y-65878D01*
X36155Y-65869D01*
X36152Y-65860D01*
X36151Y-65850D01*
X36151Y-65841D01*
X36154Y-65832D01*
X36158Y-65823D01*
X36165Y-65816D01*
X36172Y-65809D01*
X36180Y-65805D01*
X36190Y-65802D01*
X36199Y-65801D01*
X36208Y-65801D01*
X36218Y-65804D01*
X36226Y-65808D01*
X36234Y-65814D01*
X36240Y-65822D01*
X36245Y-65830D01*
X36248Y-65839D01*
X36249Y-65849D01*
X36250Y-65850D01*
X36200Y-66300D02*
X36200Y-65900D01*
X36200Y-65900D02*
X36800Y-65900D01*
X36800Y-65900D02*
X36800Y-66300D01*
X36800Y-66700D02*
X36800Y-67100D01*
X36800Y-67100D02*
X36200Y-67100D01*
X36200Y-67100D02*
X36200Y-66700D01*
X47600Y-20900D02*
X47599Y-20909D01*
X47596Y-20919D01*
X47591Y-20927D01*
X47585Y-20935D01*
X47577Y-20941D01*
X47569Y-20946D01*
X47560Y-20948D01*
X47550Y-20949D01*
X47541Y-20949D01*
X47532Y-20946D01*
X47523Y-20941D01*
X47516Y-20935D01*
X47509Y-20928D01*
X47505Y-20919D01*
X47502Y-20910D01*
X47501Y-20900D01*
X47501Y-20891D01*
X47504Y-20882D01*
X47508Y-20873D01*
X47515Y-20866D01*
X47522Y-20859D01*
X47530Y-20855D01*
X47540Y-20852D01*
X47549Y-20851D01*
X47558Y-20851D01*
X47568Y-20854D01*
X47576Y-20858D01*
X47584Y-20864D01*
X47590Y-20872D01*
X47595Y-20880D01*
X47598Y-20889D01*
X47599Y-20899D01*
X47600Y-20900D01*
X47550Y-20450D02*
X47550Y-20850D01*
X47550Y-20850D02*
X46950Y-20850D01*
X46950Y-20850D02*
X46950Y-20450D01*
X46950Y-20050D02*
X46950Y-19650D01*
X46950Y-19650D02*
X47550Y-19650D01*
X47550Y-19650D02*
X47550Y-20050D01*
X46500Y-24100D02*
X46499Y-24109D01*
X46496Y-24119D01*
X46491Y-24127D01*
X46485Y-24135D01*
X46477Y-24141D01*
X46469Y-24146D01*
X46460Y-24148D01*
X46450Y-24149D01*
X46441Y-24149D01*
X46432Y-24146D01*
X46423Y-24141D01*
X46416Y-24135D01*
X46409Y-24128D01*
X46405Y-24119D01*
X46402Y-24110D01*
X46401Y-24100D01*
X46401Y-24091D01*
X46404Y-24082D01*
X46408Y-24073D01*
X46415Y-24066D01*
X46422Y-24059D01*
X46430Y-24055D01*
X46440Y-24052D01*
X46449Y-24051D01*
X46458Y-24051D01*
X46468Y-24054D01*
X46476Y-24058D01*
X46484Y-24064D01*
X46490Y-24072D01*
X46495Y-24080D01*
X46498Y-24089D01*
X46499Y-24099D01*
X46500Y-24100D01*
X46450Y-24550D02*
X46450Y-24150D01*
X46450Y-24150D02*
X47050Y-24150D01*
X47050Y-24150D02*
X47050Y-24550D01*
X47050Y-24950D02*
X47050Y-25350D01*
X47050Y-25350D02*
X46450Y-25350D01*
X46450Y-25350D02*
X46450Y-24950D01*
X36900Y-25300D02*
X36899Y-25309D01*
X36896Y-25319D01*
X36891Y-25327D01*
X36885Y-25335D01*
X36877Y-25341D01*
X36869Y-25346D01*
X36860Y-25348D01*
X36850Y-25349D01*
X36841Y-25349D01*
X36832Y-25346D01*
X36823Y-25341D01*
X36816Y-25335D01*
X36809Y-25328D01*
X36805Y-25319D01*
X36802Y-25310D01*
X36801Y-25300D01*
X36801Y-25291D01*
X36804Y-25282D01*
X36808Y-25273D01*
X36815Y-25266D01*
X36822Y-25259D01*
X36830Y-25255D01*
X36840Y-25252D01*
X36849Y-25251D01*
X36858Y-25251D01*
X36868Y-25254D01*
X36876Y-25258D01*
X36884Y-25264D01*
X36890Y-25272D01*
X36895Y-25280D01*
X36898Y-25289D01*
X36899Y-25299D01*
X36900Y-25300D01*
X37300Y-25300D02*
X36900Y-25300D01*
X36900Y-25300D02*
X36900Y-24700D01*
X36900Y-24700D02*
X37300Y-24700D01*
X37700Y-24700D02*
X38100Y-24700D01*
X38100Y-24700D02*
X38100Y-25300D01*
X38100Y-25300D02*
X37700Y-25300D01*
X27750Y-41350D02*
X27749Y-41359D01*
X27746Y-41369D01*
X27741Y-41377D01*
X27735Y-41385D01*
X27727Y-41391D01*
X27719Y-41396D01*
X27710Y-41398D01*
X27700Y-41399D01*
X27691Y-41399D01*
X27682Y-41396D01*
X27673Y-41391D01*
X27666Y-41385D01*
X27659Y-41378D01*
X27655Y-41369D01*
X27652Y-41360D01*
X27651Y-41350D01*
X27651Y-41341D01*
X27654Y-41332D01*
X27658Y-41323D01*
X27665Y-41316D01*
X27672Y-41309D01*
X27680Y-41305D01*
X27690Y-41302D01*
X27699Y-41301D01*
X27708Y-41301D01*
X27718Y-41304D01*
X27726Y-41308D01*
X27734Y-41314D01*
X27740Y-41322D01*
X27745Y-41330D01*
X27748Y-41339D01*
X27749Y-41349D01*
X27750Y-41350D01*
X27700Y-41800D02*
X27700Y-41400D01*
X27700Y-41400D02*
X28300Y-41400D01*
X28300Y-41400D02*
X28300Y-41800D01*
X28300Y-42200D02*
X28300Y-42600D01*
X28300Y-42600D02*
X27700Y-42600D01*
X27700Y-42600D02*
X27700Y-42200D01*
X10900Y-32800D02*
X10899Y-32809D01*
X10896Y-32819D01*
X10891Y-32827D01*
X10885Y-32835D01*
X10877Y-32841D01*
X10869Y-32846D01*
X10860Y-32848D01*
X10850Y-32849D01*
X10841Y-32849D01*
X10832Y-32846D01*
X10823Y-32841D01*
X10816Y-32835D01*
X10809Y-32828D01*
X10805Y-32819D01*
X10802Y-32810D01*
X10801Y-32800D01*
X10801Y-32791D01*
X10804Y-32782D01*
X10808Y-32773D01*
X10815Y-32766D01*
X10822Y-32759D01*
X10830Y-32755D01*
X10840Y-32752D01*
X10849Y-32751D01*
X10858Y-32751D01*
X10868Y-32754D01*
X10876Y-32758D01*
X10884Y-32764D01*
X10890Y-32772D01*
X10895Y-32780D01*
X10898Y-32789D01*
X10899Y-32799D01*
X10900Y-32800D01*
X11300Y-32800D02*
X10900Y-32800D01*
X10900Y-32800D02*
X10900Y-32200D01*
X10900Y-32200D02*
X11300Y-32200D01*
X11700Y-32200D02*
X12100Y-32200D01*
X12100Y-32200D02*
X12100Y-32800D01*
X12100Y-32800D02*
X11700Y-32800D01*
X28850Y-37650D02*
X28849Y-37659D01*
X28846Y-37669D01*
X28841Y-37677D01*
X28835Y-37685D01*
X28827Y-37691D01*
X28819Y-37696D01*
X28810Y-37698D01*
X28800Y-37699D01*
X28791Y-37699D01*
X28782Y-37696D01*
X28773Y-37691D01*
X28766Y-37685D01*
X28759Y-37678D01*
X28755Y-37669D01*
X28752Y-37660D01*
X28751Y-37650D01*
X28751Y-37641D01*
X28754Y-37632D01*
X28758Y-37623D01*
X28765Y-37616D01*
X28772Y-37609D01*
X28780Y-37605D01*
X28790Y-37602D01*
X28799Y-37601D01*
X28808Y-37601D01*
X28818Y-37604D01*
X28826Y-37608D01*
X28834Y-37614D01*
X28840Y-37622D01*
X28845Y-37630D01*
X28848Y-37639D01*
X28849Y-37649D01*
X28850Y-37650D01*
X28800Y-37200D02*
X28800Y-37600D01*
X28800Y-37600D02*
X28200Y-37600D01*
X28200Y-37600D02*
X28200Y-37200D01*
X28200Y-36800D02*
X28200Y-36400D01*
X28200Y-36400D02*
X28800Y-36400D01*
X28800Y-36400D02*
X28800Y-36800D01*
X17850Y-26150D02*
X17849Y-26159D01*
X17846Y-26169D01*
X17841Y-26177D01*
X17835Y-26185D01*
X17827Y-26191D01*
X17819Y-26196D01*
X17810Y-26198D01*
X17800Y-26199D01*
X17791Y-26199D01*
X17782Y-26196D01*
X17773Y-26191D01*
X17766Y-26185D01*
X17759Y-26178D01*
X17755Y-26169D01*
X17752Y-26160D01*
X17751Y-26150D01*
X17751Y-26141D01*
X17754Y-26132D01*
X17758Y-26123D01*
X17765Y-26116D01*
X17772Y-26109D01*
X17780Y-26105D01*
X17790Y-26102D01*
X17799Y-26101D01*
X17808Y-26101D01*
X17818Y-26104D01*
X17826Y-26108D01*
X17834Y-26114D01*
X17840Y-26122D01*
X17845Y-26130D01*
X17848Y-26139D01*
X17849Y-26149D01*
X17850Y-26150D01*
X17800Y-25700D02*
X17800Y-26100D01*
X17800Y-26100D02*
X17200Y-26100D01*
X17200Y-26100D02*
X17200Y-25700D01*
X17200Y-25300D02*
X17200Y-24900D01*
X17200Y-24900D02*
X17800Y-24900D01*
X17800Y-24900D02*
X17800Y-25300D01*
X45750Y-28350D02*
X45749Y-28359D01*
X45746Y-28369D01*
X45741Y-28377D01*
X45735Y-28385D01*
X45727Y-28391D01*
X45719Y-28396D01*
X45710Y-28398D01*
X45700Y-28399D01*
X45691Y-28399D01*
X45682Y-28396D01*
X45673Y-28391D01*
X45666Y-28385D01*
X45659Y-28378D01*
X45655Y-28369D01*
X45652Y-28360D01*
X45651Y-28350D01*
X45651Y-28341D01*
X45654Y-28332D01*
X45658Y-28323D01*
X45665Y-28316D01*
X45672Y-28309D01*
X45680Y-28305D01*
X45690Y-28302D01*
X45699Y-28301D01*
X45708Y-28301D01*
X45718Y-28304D01*
X45726Y-28308D01*
X45734Y-28314D01*
X45740Y-28322D01*
X45745Y-28330D01*
X45748Y-28339D01*
X45749Y-28349D01*
X45750Y-28350D01*
X45700Y-28800D02*
X45700Y-28400D01*
X45700Y-28400D02*
X46300Y-28400D01*
X46300Y-28400D02*
X46300Y-28800D01*
X46300Y-29200D02*
X46300Y-29600D01*
X46300Y-29600D02*
X45700Y-29600D01*
X45700Y-29600D02*
X45700Y-29200D01*
X44250Y-28350D02*
X44249Y-28359D01*
X44246Y-28369D01*
X44241Y-28377D01*
X44235Y-28385D01*
X44227Y-28391D01*
X44219Y-28396D01*
X44210Y-28398D01*
X44200Y-28399D01*
X44191Y-28399D01*
X44182Y-28396D01*
X44173Y-28391D01*
X44166Y-28385D01*
X44159Y-28378D01*
X44155Y-28369D01*
X44152Y-28360D01*
X44151Y-28350D01*
X44151Y-28341D01*
X44154Y-28332D01*
X44158Y-28323D01*
X44165Y-28316D01*
X44172Y-28309D01*
X44180Y-28305D01*
X44190Y-28302D01*
X44199Y-28301D01*
X44208Y-28301D01*
X44218Y-28304D01*
X44226Y-28308D01*
X44234Y-28314D01*
X44240Y-28322D01*
X44245Y-28330D01*
X44248Y-28339D01*
X44249Y-28349D01*
X44250Y-28350D01*
X44200Y-28800D02*
X44200Y-28400D01*
X44200Y-28400D02*
X44800Y-28400D01*
X44800Y-28400D02*
X44800Y-28800D01*
X44800Y-29200D02*
X44800Y-29600D01*
X44800Y-29600D02*
X44200Y-29600D01*
X44200Y-29600D02*
X44200Y-29200D01*
X42750Y-28350D02*
X42749Y-28359D01*
X42746Y-28369D01*
X42741Y-28377D01*
X42735Y-28385D01*
X42727Y-28391D01*
X42719Y-28396D01*
X42710Y-28398D01*
X42700Y-28399D01*
X42691Y-28399D01*
X42682Y-28396D01*
X42673Y-28391D01*
X42666Y-28385D01*
X42659Y-28378D01*
X42655Y-28369D01*
X42652Y-28360D01*
X42651Y-28350D01*
X42651Y-28341D01*
X42654Y-28332D01*
X42658Y-28323D01*
X42665Y-28316D01*
X42672Y-28309D01*
X42680Y-28305D01*
X42690Y-28302D01*
X42699Y-28301D01*
X42708Y-28301D01*
X42718Y-28304D01*
X42726Y-28308D01*
X42734Y-28314D01*
X42740Y-28322D01*
X42745Y-28330D01*
X42748Y-28339D01*
X42749Y-28349D01*
X42750Y-28350D01*
X42700Y-28800D02*
X42700Y-28400D01*
X42700Y-28400D02*
X43300Y-28400D01*
X43300Y-28400D02*
X43300Y-28800D01*
X43300Y-29200D02*
X43300Y-29600D01*
X43300Y-29600D02*
X42700Y-29600D01*
X42700Y-29600D02*
X42700Y-29200D01*
X40200Y-14700D02*
X40199Y-14709D01*
X40196Y-14719D01*
X40191Y-14727D01*
X40185Y-14735D01*
X40177Y-14741D01*
X40169Y-14746D01*
X40160Y-14748D01*
X40150Y-14749D01*
X40141Y-14749D01*
X40132Y-14746D01*
X40123Y-14741D01*
X40116Y-14735D01*
X40109Y-14728D01*
X40105Y-14719D01*
X40102Y-14710D01*
X40101Y-14700D01*
X40101Y-14691D01*
X40104Y-14682D01*
X40108Y-14673D01*
X40115Y-14666D01*
X40122Y-14659D01*
X40130Y-14655D01*
X40140Y-14652D01*
X40149Y-14651D01*
X40158Y-14651D01*
X40168Y-14654D01*
X40176Y-14658D01*
X40184Y-14664D01*
X40190Y-14672D01*
X40195Y-14680D01*
X40198Y-14689D01*
X40199Y-14699D01*
X40200Y-14700D01*
X39700Y-14700D02*
X40100Y-14700D01*
X40100Y-14700D02*
X40100Y-15300D01*
X40100Y-15300D02*
X39700Y-15300D01*
X39300Y-15300D02*
X38900Y-15300D01*
X38900Y-15300D02*
X38900Y-14700D01*
X38900Y-14700D02*
X39300Y-14700D01*
X36250Y-67850D02*
X36249Y-67859D01*
X36246Y-67869D01*
X36241Y-67877D01*
X36235Y-67885D01*
X36227Y-67891D01*
X36219Y-67896D01*
X36210Y-67898D01*
X36200Y-67899D01*
X36191Y-67899D01*
X36182Y-67896D01*
X36173Y-67891D01*
X36166Y-67885D01*
X36159Y-67878D01*
X36155Y-67869D01*
X36152Y-67860D01*
X36151Y-67850D01*
X36151Y-67841D01*
X36154Y-67832D01*
X36158Y-67823D01*
X36165Y-67816D01*
X36172Y-67809D01*
X36180Y-67805D01*
X36190Y-67802D01*
X36199Y-67801D01*
X36208Y-67801D01*
X36218Y-67804D01*
X36226Y-67808D01*
X36234Y-67814D01*
X36240Y-67822D01*
X36245Y-67830D01*
X36248Y-67839D01*
X36249Y-67849D01*
X36250Y-67850D01*
X36200Y-68300D02*
X36200Y-67900D01*
X36200Y-67900D02*
X36800Y-67900D01*
X36800Y-67900D02*
X36800Y-68300D01*
X36800Y-68700D02*
X36800Y-69100D01*
X36800Y-69100D02*
X36200Y-69100D01*
X36200Y-69100D02*
X36200Y-68700D01*
X42350Y-72650D02*
X42349Y-72659D01*
X42346Y-72669D01*
X42341Y-72677D01*
X42335Y-72685D01*
X42327Y-72691D01*
X42319Y-72696D01*
X42310Y-72698D01*
X42300Y-72699D01*
X42291Y-72699D01*
X42282Y-72696D01*
X42273Y-72691D01*
X42266Y-72685D01*
X42259Y-72678D01*
X42255Y-72669D01*
X42252Y-72660D01*
X42251Y-72650D01*
X42251Y-72641D01*
X42254Y-72632D01*
X42258Y-72623D01*
X42265Y-72616D01*
X42272Y-72609D01*
X42280Y-72605D01*
X42290Y-72602D01*
X42299Y-72601D01*
X42308Y-72601D01*
X42318Y-72604D01*
X42326Y-72608D01*
X42334Y-72614D01*
X42340Y-72622D01*
X42345Y-72630D01*
X42348Y-72639D01*
X42349Y-72649D01*
X42350Y-72650D01*
X42300Y-72200D02*
X42300Y-72600D01*
X42300Y-72600D02*
X41700Y-72600D01*
X41700Y-72600D02*
X41700Y-72200D01*
X41700Y-71800D02*
X41700Y-71400D01*
X41700Y-71400D02*
X42300Y-71400D01*
X42300Y-71400D02*
X42300Y-71800D01*
X14750Y-53850D02*
X14749Y-53859D01*
X14746Y-53869D01*
X14741Y-53877D01*
X14735Y-53885D01*
X14727Y-53891D01*
X14719Y-53896D01*
X14710Y-53898D01*
X14700Y-53899D01*
X14691Y-53899D01*
X14682Y-53896D01*
X14673Y-53891D01*
X14666Y-53885D01*
X14659Y-53878D01*
X14655Y-53869D01*
X14652Y-53860D01*
X14651Y-53850D01*
X14651Y-53841D01*
X14654Y-53832D01*
X14658Y-53823D01*
X14665Y-53816D01*
X14672Y-53809D01*
X14680Y-53805D01*
X14690Y-53802D01*
X14699Y-53801D01*
X14708Y-53801D01*
X14718Y-53804D01*
X14726Y-53808D01*
X14734Y-53814D01*
X14740Y-53822D01*
X14745Y-53830D01*
X14748Y-53839D01*
X14749Y-53849D01*
X14750Y-53850D01*
X14700Y-54300D02*
X14700Y-53900D01*
X14700Y-53900D02*
X15300Y-53900D01*
X15300Y-53900D02*
X15300Y-54300D01*
X15300Y-54700D02*
X15300Y-55100D01*
X15300Y-55100D02*
X14700Y-55100D01*
X14700Y-55100D02*
X14700Y-54700D01*
X32750Y-53850D02*
X32749Y-53859D01*
X32746Y-53869D01*
X32741Y-53877D01*
X32735Y-53885D01*
X32727Y-53891D01*
X32719Y-53896D01*
X32710Y-53898D01*
X32700Y-53899D01*
X32691Y-53899D01*
X32682Y-53896D01*
X32673Y-53891D01*
X32666Y-53885D01*
X32659Y-53878D01*
X32655Y-53869D01*
X32652Y-53860D01*
X32651Y-53850D01*
X32651Y-53841D01*
X32654Y-53832D01*
X32658Y-53823D01*
X32665Y-53816D01*
X32672Y-53809D01*
X32680Y-53805D01*
X32690Y-53802D01*
X32699Y-53801D01*
X32708Y-53801D01*
X32718Y-53804D01*
X32726Y-53808D01*
X32734Y-53814D01*
X32740Y-53822D01*
X32745Y-53830D01*
X32748Y-53839D01*
X32749Y-53849D01*
X32750Y-53850D01*
X32700Y-54300D02*
X32700Y-53900D01*
X32700Y-53900D02*
X33300Y-53900D01*
X33300Y-53900D02*
X33300Y-54300D01*
X33300Y-54700D02*
X33300Y-55100D01*
X33300Y-55100D02*
X32700Y-55100D01*
X32700Y-55100D02*
X32700Y-54700D01*
X19750Y-64350D02*
X19749Y-64359D01*
X19746Y-64369D01*
X19741Y-64377D01*
X19735Y-64385D01*
X19727Y-64391D01*
X19719Y-64396D01*
X19710Y-64398D01*
X19700Y-64399D01*
X19691Y-64399D01*
X19682Y-64396D01*
X19673Y-64391D01*
X19666Y-64385D01*
X19659Y-64378D01*
X19655Y-64369D01*
X19652Y-64360D01*
X19651Y-64350D01*
X19651Y-64341D01*
X19654Y-64332D01*
X19658Y-64323D01*
X19665Y-64316D01*
X19672Y-64309D01*
X19680Y-64305D01*
X19690Y-64302D01*
X19699Y-64301D01*
X19708Y-64301D01*
X19718Y-64304D01*
X19726Y-64308D01*
X19734Y-64314D01*
X19740Y-64322D01*
X19745Y-64330D01*
X19748Y-64339D01*
X19749Y-64349D01*
X19750Y-64350D01*
X19700Y-64800D02*
X19700Y-64400D01*
X19700Y-64400D02*
X20300Y-64400D01*
X20300Y-64400D02*
X20300Y-64800D01*
X20300Y-65200D02*
X20300Y-65600D01*
X20300Y-65600D02*
X19700Y-65600D01*
X19700Y-65600D02*
X19700Y-65200D01*
X17250Y-39350D02*
X17249Y-39359D01*
X17246Y-39369D01*
X17241Y-39377D01*
X17235Y-39385D01*
X17227Y-39391D01*
X17219Y-39396D01*
X17210Y-39398D01*
X17200Y-39399D01*
X17191Y-39399D01*
X17182Y-39396D01*
X17173Y-39391D01*
X17166Y-39385D01*
X17159Y-39378D01*
X17155Y-39369D01*
X17152Y-39360D01*
X17151Y-39350D01*
X17151Y-39341D01*
X17154Y-39332D01*
X17158Y-39323D01*
X17165Y-39316D01*
X17172Y-39309D01*
X17180Y-39305D01*
X17190Y-39302D01*
X17199Y-39301D01*
X17208Y-39301D01*
X17218Y-39304D01*
X17226Y-39308D01*
X17234Y-39314D01*
X17240Y-39322D01*
X17245Y-39330D01*
X17248Y-39339D01*
X17249Y-39349D01*
X17250Y-39350D01*
X17200Y-39800D02*
X17200Y-39400D01*
X17200Y-39400D02*
X17800Y-39400D01*
X17800Y-39400D02*
X17800Y-39800D01*
X17800Y-40200D02*
X17800Y-40600D01*
X17800Y-40600D02*
X17200Y-40600D01*
X17200Y-40600D02*
X17200Y-40200D01*
X16400Y-29300D02*
X16399Y-29309D01*
X16396Y-29319D01*
X16391Y-29327D01*
X16385Y-29335D01*
X16377Y-29341D01*
X16369Y-29346D01*
X16360Y-29348D01*
X16350Y-29349D01*
X16341Y-29349D01*
X16332Y-29346D01*
X16323Y-29341D01*
X16316Y-29335D01*
X16309Y-29328D01*
X16305Y-29319D01*
X16302Y-29310D01*
X16301Y-29300D01*
X16301Y-29291D01*
X16304Y-29282D01*
X16308Y-29273D01*
X16315Y-29266D01*
X16322Y-29259D01*
X16330Y-29255D01*
X16340Y-29252D01*
X16349Y-29251D01*
X16358Y-29251D01*
X16368Y-29254D01*
X16376Y-29258D01*
X16384Y-29264D01*
X16390Y-29272D01*
X16395Y-29280D01*
X16398Y-29289D01*
X16399Y-29299D01*
X16400Y-29300D01*
X16800Y-29300D02*
X16400Y-29300D01*
X16400Y-29300D02*
X16400Y-28700D01*
X16400Y-28700D02*
X16800Y-28700D01*
X17200Y-28700D02*
X17600Y-28700D01*
X17600Y-28700D02*
X17600Y-29300D01*
X17600Y-29300D02*
X17200Y-29300D01*
G54D14*
X45500Y-17500D02*
X44000Y-16000D01*
X35000Y-16000D02*
X35000Y-24000D01*
X45500Y-16000D02*
X45500Y-24000D01*
X35000Y-24000D02*
X45500Y-24000D01*
X35000Y-16000D02*
X45500Y-16000D01*
G54D12*
X17500Y-30500D02*
X16500Y-30500D01*
X16500Y-35500D02*
X17500Y-35500D01*
X17500Y-30500D02*
X17500Y-35500D01*
X16500Y-35500D02*
X16500Y-30500D01*
G54D10*
X47500Y-67000D02*
X46500Y-67000D01*
X46500Y-67000D02*
X46500Y-65000D01*
X46500Y-65000D02*
X47500Y-65000D01*
X47500Y-65000D02*
X47500Y-67000D01*
X47500Y-73000D02*
X46500Y-73000D01*
X46500Y-73000D02*
X46500Y-71000D01*
X46500Y-71000D02*
X47500Y-71000D01*
X47500Y-71000D02*
X47500Y-73000D01*
G54D14*
X33000Y-62000D02*
X36000Y-62000D01*
X36000Y-62000D02*
X36000Y-63000D01*
X36000Y-63000D02*
X33000Y-63000D01*
X33000Y-63000D02*
X33000Y-62000D01*
X15500Y-56500D02*
X18500Y-56500D01*
X18500Y-56500D02*
X18500Y-57500D01*
X18500Y-57500D02*
X15500Y-57500D01*
X15500Y-57500D02*
X15500Y-56500D01*
X33500Y-56500D02*
X36500Y-56500D01*
X36500Y-56500D02*
X36500Y-57500D01*
X36500Y-57500D02*
X33500Y-57500D01*
X33500Y-57500D02*
X33500Y-56500D01*
X20500Y-63500D02*
X20500Y-60500D01*
X20500Y-60500D02*
X21500Y-60500D01*
X21500Y-60500D02*
X21500Y-63500D01*
X21500Y-63500D02*
X20500Y-63500D01*
G54D15*
X29500Y-18720D02*
X30500Y-18720D01*
G54D10*
X30384Y-17640D02*
X30342Y-17608D01*
X30298Y-17580D01*
X30251Y-17556D01*
X30203Y-17536D01*
X30153Y-17520D01*
X30102Y-17509D01*
X30050Y-17503D01*
X30000Y-17500D01*
X30000Y-17501D02*
X29948Y-17504D01*
X29896Y-17511D01*
X29845Y-17522D01*
X29796Y-17538D01*
X29747Y-17558D01*
X29701Y-17582D01*
X29657Y-17610D01*
X29615Y-17642D01*
X29603Y-17653D01*
X30000Y-18699D02*
X30052Y-18696D01*
X30104Y-18689D01*
X30155Y-18678D01*
X30204Y-18662D01*
X30253Y-18642D01*
X30299Y-18618D01*
X30343Y-18590D01*
X30385Y-18558D01*
X30389Y-18554D01*
X29616Y-18560D02*
X29658Y-18592D01*
X29702Y-18620D01*
X29749Y-18644D01*
X29797Y-18664D01*
X29847Y-18680D01*
X29898Y-18691D01*
X29950Y-18697D01*
X30000Y-18700D01*
X30349Y-18587D02*
X30390Y-18555D01*
X30428Y-18519D01*
X30463Y-18480D01*
X30495Y-18438D01*
X30522Y-18394D01*
X30546Y-18347D01*
X30565Y-18299D01*
X30581Y-18249D01*
X30591Y-18197D01*
X30598Y-18146D01*
X30600Y-18100D01*
X30600Y-18100D02*
X30597Y-18048D01*
X30590Y-17996D01*
X30579Y-17945D01*
X30563Y-17895D01*
X30543Y-17847D01*
X30519Y-17801D01*
X30491Y-17756D01*
X30459Y-17715D01*
X30424Y-17676D01*
X30385Y-17641D01*
X30360Y-17621D01*
X29401Y-18100D02*
X29404Y-18152D01*
X29411Y-18204D01*
X29422Y-18255D01*
X29438Y-18304D01*
X29458Y-18353D01*
X29482Y-18399D01*
X29510Y-18443D01*
X29542Y-18485D01*
X29577Y-18523D01*
X29615Y-18558D01*
X29633Y-18572D01*
X29632Y-17627D02*
X29592Y-17661D01*
X29555Y-17698D01*
X29522Y-17739D01*
X29492Y-17782D01*
X29466Y-17827D01*
X29445Y-17875D01*
X29427Y-17924D01*
X29414Y-17975D01*
X29405Y-18026D01*
X29401Y-18079D01*
X29400Y-18100D01*
X30250Y-18100D02*
X30249Y-18079D01*
X30246Y-18057D01*
X30241Y-18036D01*
X30234Y-18015D01*
X30226Y-17995D01*
X30216Y-17976D01*
X30204Y-17957D01*
X30191Y-17940D01*
X30176Y-17924D01*
X30160Y-17909D01*
X30143Y-17896D01*
X30125Y-17884D01*
X30105Y-17874D01*
X30085Y-17866D01*
X30064Y-17859D01*
X30043Y-17854D01*
X30021Y-17851D01*
X30000Y-17850D01*
X30400Y-18100D02*
X30398Y-18066D01*
X30393Y-18031D01*
X30386Y-17997D01*
X30375Y-17964D01*
X30362Y-17931D01*
X30346Y-17901D01*
X30327Y-17871D01*
X30306Y-17843D01*
X30282Y-17818D01*
X30257Y-17794D01*
X30229Y-17773D01*
X30200Y-17754D01*
X30169Y-17738D01*
X30136Y-17725D01*
X30103Y-17714D01*
X30069Y-17707D01*
X30034Y-17702D01*
X30000Y-17700D01*
X29750Y-18100D02*
X29751Y-18121D01*
X29754Y-18143D01*
X29759Y-18164D01*
X29766Y-18185D01*
X29774Y-18205D01*
X29784Y-18224D01*
X29796Y-18243D01*
X29809Y-18260D01*
X29824Y-18276D01*
X29840Y-18291D01*
X29857Y-18304D01*
X29876Y-18316D01*
X29895Y-18326D01*
X29915Y-18334D01*
X29936Y-18341D01*
X29957Y-18346D01*
X29979Y-18349D01*
X30000Y-18350D01*
X29600Y-18100D02*
X29602Y-18134D01*
X29607Y-18169D01*
X29614Y-18203D01*
X29625Y-18236D01*
X29638Y-18269D01*
X29654Y-18299D01*
X29673Y-18329D01*
X29694Y-18357D01*
X29718Y-18382D01*
X29743Y-18406D01*
X29771Y-18427D01*
X29801Y-18446D01*
X29831Y-18462D01*
X29864Y-18475D01*
X29897Y-18486D01*
X29931Y-18493D01*
X29966Y-18498D01*
X30000Y-18500D01*
G54D15*
X30513Y-18713D02*
X30564Y-18666D01*
X30611Y-18615D01*
X30654Y-18560D01*
X30692Y-18501D01*
X30724Y-18439D01*
X30751Y-18374D01*
X30772Y-18308D01*
X30787Y-18240D01*
X30796Y-18171D01*
X30799Y-18101D01*
X30800Y-18100D01*
X30799Y-18100D02*
X30795Y-18031D01*
X30786Y-17962D01*
X30771Y-17894D01*
X30750Y-17827D01*
X30724Y-17763D01*
X30691Y-17701D01*
X30654Y-17642D01*
X30612Y-17587D01*
X30564Y-17536D01*
X30513Y-17488D01*
X30458Y-17446D01*
X30399Y-17409D01*
X30376Y-17396D01*
X29203Y-18101D02*
X29206Y-18170D01*
X29215Y-18239D01*
X29230Y-18307D01*
X29251Y-18374D01*
X29278Y-18438D01*
X29310Y-18500D01*
X29348Y-18558D01*
X29390Y-18614D01*
X29437Y-18665D01*
X29485Y-18709D01*
X29603Y-17406D02*
X29544Y-17444D01*
X29488Y-17486D01*
X29437Y-17533D01*
X29389Y-17584D01*
X29347Y-17639D01*
X29309Y-17698D01*
X29277Y-17760D01*
X29250Y-17824D01*
X29228Y-17891D01*
X29213Y-17959D01*
X29204Y-18028D01*
X29201Y-18098D01*
X29200Y-18100D01*
X30379Y-17396D02*
X30316Y-17366D01*
X30251Y-17341D01*
X30184Y-17322D01*
X30115Y-17309D01*
X30046Y-17302D01*
X30000Y-17300D01*
X30000Y-17301D02*
X29931Y-17305D01*
X29862Y-17314D01*
X29794Y-17329D01*
X29727Y-17350D01*
X29663Y-17376D01*
X29601Y-17409D01*
X29582Y-17420D01*
X11000Y-35280D02*
X10000Y-35280D01*
G54D10*
X10116Y-36360D02*
X10158Y-36392D01*
X10202Y-36420D01*
X10249Y-36444D01*
X10297Y-36464D01*
X10347Y-36480D01*
X10398Y-36491D01*
X10450Y-36497D01*
X10500Y-36500D01*
X10500Y-36499D02*
X10552Y-36496D01*
X10604Y-36489D01*
X10655Y-36478D01*
X10704Y-36462D01*
X10753Y-36442D01*
X10799Y-36418D01*
X10843Y-36390D01*
X10885Y-36358D01*
X10897Y-36347D01*
X10500Y-35301D02*
X10448Y-35304D01*
X10396Y-35311D01*
X10345Y-35322D01*
X10296Y-35338D01*
X10247Y-35358D01*
X10201Y-35382D01*
X10157Y-35410D01*
X10115Y-35442D01*
X10111Y-35446D01*
X10884Y-35440D02*
X10842Y-35408D01*
X10798Y-35380D01*
X10751Y-35356D01*
X10703Y-35336D01*
X10653Y-35320D01*
X10602Y-35309D01*
X10550Y-35303D01*
X10500Y-35300D01*
X10151Y-35413D02*
X10110Y-35445D01*
X10072Y-35481D01*
X10037Y-35520D01*
X10005Y-35562D01*
X09978Y-35606D01*
X09954Y-35653D01*
X09935Y-35701D01*
X09919Y-35751D01*
X09909Y-35803D01*
X09902Y-35854D01*
X09900Y-35900D01*
X09900Y-35900D02*
X09903Y-35952D01*
X09910Y-36004D01*
X09921Y-36055D01*
X09937Y-36105D01*
X09957Y-36153D01*
X09981Y-36199D01*
X10009Y-36244D01*
X10041Y-36285D01*
X10076Y-36324D01*
X10115Y-36359D01*
X10140Y-36379D01*
X11099Y-35900D02*
X11096Y-35848D01*
X11089Y-35796D01*
X11078Y-35745D01*
X11062Y-35696D01*
X11042Y-35647D01*
X11018Y-35601D01*
X10990Y-35557D01*
X10958Y-35515D01*
X10923Y-35477D01*
X10885Y-35442D01*
X10867Y-35428D01*
X10868Y-36373D02*
X10908Y-36339D01*
X10945Y-36302D01*
X10978Y-36261D01*
X11008Y-36218D01*
X11034Y-36173D01*
X11055Y-36125D01*
X11073Y-36076D01*
X11086Y-36025D01*
X11095Y-35974D01*
X11099Y-35921D01*
X11100Y-35900D01*
X10250Y-35900D02*
X10251Y-35921D01*
X10254Y-35943D01*
X10259Y-35964D01*
X10266Y-35985D01*
X10274Y-36005D01*
X10284Y-36024D01*
X10296Y-36043D01*
X10309Y-36060D01*
X10324Y-36076D01*
X10340Y-36091D01*
X10357Y-36104D01*
X10376Y-36116D01*
X10395Y-36126D01*
X10415Y-36134D01*
X10436Y-36141D01*
X10457Y-36146D01*
X10479Y-36149D01*
X10500Y-36150D01*
X10100Y-35900D02*
X10102Y-35934D01*
X10107Y-35969D01*
X10114Y-36003D01*
X10125Y-36036D01*
X10138Y-36069D01*
X10154Y-36099D01*
X10173Y-36129D01*
X10194Y-36157D01*
X10218Y-36182D01*
X10243Y-36206D01*
X10271Y-36227D01*
X10301Y-36246D01*
X10331Y-36262D01*
X10364Y-36275D01*
X10397Y-36286D01*
X10431Y-36293D01*
X10466Y-36298D01*
X10500Y-36300D01*
X10750Y-35900D02*
X10749Y-35879D01*
X10746Y-35857D01*
X10741Y-35836D01*
X10734Y-35815D01*
X10726Y-35795D01*
X10716Y-35776D01*
X10704Y-35757D01*
X10691Y-35740D01*
X10676Y-35724D01*
X10660Y-35709D01*
X10643Y-35696D01*
X10625Y-35684D01*
X10605Y-35674D01*
X10585Y-35666D01*
X10564Y-35659D01*
X10543Y-35654D01*
X10521Y-35651D01*
X10500Y-35650D01*
X10900Y-35900D02*
X10898Y-35866D01*
X10893Y-35831D01*
X10886Y-35797D01*
X10875Y-35764D01*
X10862Y-35731D01*
X10846Y-35701D01*
X10827Y-35671D01*
X10806Y-35643D01*
X10782Y-35618D01*
X10757Y-35594D01*
X10729Y-35573D01*
X10700Y-35554D01*
X10669Y-35538D01*
X10636Y-35525D01*
X10603Y-35514D01*
X10569Y-35507D01*
X10534Y-35502D01*
X10500Y-35500D01*
G54D15*
X09987Y-35287D02*
X09936Y-35334D01*
X09889Y-35385D01*
X09846Y-35440D01*
X09808Y-35499D01*
X09776Y-35561D01*
X09749Y-35626D01*
X09728Y-35692D01*
X09713Y-35760D01*
X09704Y-35829D01*
X09701Y-35899D01*
X09700Y-35900D01*
X09701Y-35900D02*
X09705Y-35969D01*
X09714Y-36038D01*
X09729Y-36106D01*
X09750Y-36173D01*
X09776Y-36237D01*
X09809Y-36299D01*
X09846Y-36358D01*
X09888Y-36413D01*
X09936Y-36464D01*
X09987Y-36512D01*
X10042Y-36554D01*
X10101Y-36591D01*
X10124Y-36604D01*
X11297Y-35899D02*
X11294Y-35830D01*
X11285Y-35761D01*
X11270Y-35693D01*
X11249Y-35626D01*
X11222Y-35562D01*
X11190Y-35500D01*
X11152Y-35442D01*
X11110Y-35386D01*
X11063Y-35335D01*
X11015Y-35291D01*
X10897Y-36594D02*
X10956Y-36556D01*
X11012Y-36514D01*
X11063Y-36467D01*
X11111Y-36416D01*
X11153Y-36361D01*
X11191Y-36302D01*
X11223Y-36240D01*
X11250Y-36176D01*
X11272Y-36109D01*
X11287Y-36041D01*
X11296Y-35972D01*
X11299Y-35902D01*
X11300Y-35900D01*
X10121Y-36604D02*
X10184Y-36634D01*
X10249Y-36659D01*
X10316Y-36678D01*
X10385Y-36691D01*
X10454Y-36698D01*
X10500Y-36700D01*
X10500Y-36699D02*
X10569Y-36695D01*
X10638Y-36686D01*
X10706Y-36671D01*
X10773Y-36650D01*
X10837Y-36624D01*
X10899Y-36591D01*
X10918Y-36580D01*
X10000Y-30720D02*
X11000Y-30720D01*
G54D10*
X10884Y-29640D02*
X10842Y-29608D01*
X10798Y-29580D01*
X10751Y-29556D01*
X10703Y-29536D01*
X10653Y-29520D01*
X10602Y-29509D01*
X10550Y-29503D01*
X10500Y-29500D01*
X10500Y-29501D02*
X10448Y-29504D01*
X10396Y-29511D01*
X10345Y-29522D01*
X10296Y-29538D01*
X10247Y-29558D01*
X10201Y-29582D01*
X10157Y-29610D01*
X10115Y-29642D01*
X10103Y-29653D01*
X10500Y-30699D02*
X10552Y-30696D01*
X10604Y-30689D01*
X10655Y-30678D01*
X10704Y-30662D01*
X10753Y-30642D01*
X10799Y-30618D01*
X10843Y-30590D01*
X10885Y-30558D01*
X10889Y-30554D01*
X10116Y-30560D02*
X10158Y-30592D01*
X10202Y-30620D01*
X10249Y-30644D01*
X10297Y-30664D01*
X10347Y-30680D01*
X10398Y-30691D01*
X10450Y-30697D01*
X10500Y-30700D01*
X10849Y-30587D02*
X10890Y-30555D01*
X10928Y-30519D01*
X10963Y-30480D01*
X10995Y-30438D01*
X11022Y-30394D01*
X11046Y-30347D01*
X11065Y-30299D01*
X11081Y-30249D01*
X11091Y-30197D01*
X11098Y-30146D01*
X11100Y-30100D01*
X11100Y-30100D02*
X11097Y-30048D01*
X11090Y-29996D01*
X11079Y-29945D01*
X11063Y-29895D01*
X11043Y-29847D01*
X11019Y-29801D01*
X10991Y-29756D01*
X10959Y-29715D01*
X10924Y-29676D01*
X10885Y-29641D01*
X10860Y-29621D01*
X09901Y-30100D02*
X09904Y-30152D01*
X09911Y-30204D01*
X09922Y-30255D01*
X09938Y-30304D01*
X09958Y-30353D01*
X09982Y-30399D01*
X10010Y-30443D01*
X10042Y-30485D01*
X10077Y-30523D01*
X10115Y-30558D01*
X10133Y-30572D01*
X10132Y-29627D02*
X10092Y-29661D01*
X10055Y-29698D01*
X10022Y-29739D01*
X09992Y-29782D01*
X09966Y-29827D01*
X09945Y-29875D01*
X09927Y-29924D01*
X09914Y-29975D01*
X09905Y-30026D01*
X09901Y-30079D01*
X09900Y-30100D01*
X10750Y-30100D02*
X10749Y-30079D01*
X10746Y-30057D01*
X10741Y-30036D01*
X10734Y-30015D01*
X10726Y-29995D01*
X10716Y-29976D01*
X10704Y-29957D01*
X10691Y-29940D01*
X10676Y-29924D01*
X10660Y-29909D01*
X10643Y-29896D01*
X10625Y-29884D01*
X10605Y-29874D01*
X10585Y-29866D01*
X10564Y-29859D01*
X10543Y-29854D01*
X10521Y-29851D01*
X10500Y-29850D01*
X10900Y-30100D02*
X10898Y-30066D01*
X10893Y-30031D01*
X10886Y-29997D01*
X10875Y-29964D01*
X10862Y-29931D01*
X10846Y-29901D01*
X10827Y-29871D01*
X10806Y-29843D01*
X10782Y-29818D01*
X10757Y-29794D01*
X10729Y-29773D01*
X10700Y-29754D01*
X10669Y-29738D01*
X10636Y-29725D01*
X10603Y-29714D01*
X10569Y-29707D01*
X10534Y-29702D01*
X10500Y-29700D01*
X10250Y-30100D02*
X10251Y-30121D01*
X10254Y-30143D01*
X10259Y-30164D01*
X10266Y-30185D01*
X10274Y-30205D01*
X10284Y-30224D01*
X10296Y-30243D01*
X10309Y-30260D01*
X10324Y-30276D01*
X10340Y-30291D01*
X10357Y-30304D01*
X10376Y-30316D01*
X10395Y-30326D01*
X10415Y-30334D01*
X10436Y-30341D01*
X10457Y-30346D01*
X10479Y-30349D01*
X10500Y-30350D01*
X10100Y-30100D02*
X10102Y-30134D01*
X10107Y-30169D01*
X10114Y-30203D01*
X10125Y-30236D01*
X10138Y-30269D01*
X10154Y-30299D01*
X10173Y-30329D01*
X10194Y-30357D01*
X10218Y-30382D01*
X10243Y-30406D01*
X10271Y-30427D01*
X10301Y-30446D01*
X10331Y-30462D01*
X10364Y-30475D01*
X10397Y-30486D01*
X10431Y-30493D01*
X10466Y-30498D01*
X10500Y-30500D01*
G54D15*
X11013Y-30713D02*
X11064Y-30666D01*
X11111Y-30615D01*
X11154Y-30560D01*
X11192Y-30501D01*
X11224Y-30439D01*
X11251Y-30374D01*
X11272Y-30308D01*
X11287Y-30240D01*
X11296Y-30171D01*
X11299Y-30101D01*
X11300Y-30100D01*
X11299Y-30100D02*
X11295Y-30031D01*
X11286Y-29962D01*
X11271Y-29894D01*
X11250Y-29827D01*
X11224Y-29763D01*
X11191Y-29701D01*
X11154Y-29642D01*
X11112Y-29587D01*
X11064Y-29536D01*
X11013Y-29488D01*
X10958Y-29446D01*
X10899Y-29409D01*
X10876Y-29396D01*
X09703Y-30101D02*
X09706Y-30170D01*
X09715Y-30239D01*
X09730Y-30307D01*
X09751Y-30374D01*
X09778Y-30438D01*
X09810Y-30500D01*
X09848Y-30558D01*
X09890Y-30614D01*
X09937Y-30665D01*
X09985Y-30709D01*
X10103Y-29406D02*
X10044Y-29444D01*
X09988Y-29486D01*
X09937Y-29533D01*
X09889Y-29584D01*
X09847Y-29639D01*
X09809Y-29698D01*
X09777Y-29760D01*
X09750Y-29824D01*
X09728Y-29891D01*
X09713Y-29959D01*
X09704Y-30028D01*
X09701Y-30098D01*
X09700Y-30100D01*
X10879Y-29396D02*
X10816Y-29366D01*
X10751Y-29341D01*
X10684Y-29322D01*
X10615Y-29309D01*
X10546Y-29302D01*
X10500Y-29300D01*
X10500Y-29301D02*
X10431Y-29305D01*
X10362Y-29314D01*
X10294Y-29329D01*
X10227Y-29350D01*
X10163Y-29376D01*
X10101Y-29409D01*
X10082Y-29420D01*
X46750Y-18970D02*
X47750Y-18970D01*
G54D10*
X47634Y-17890D02*
X47592Y-17858D01*
X47548Y-17830D01*
X47501Y-17806D01*
X47453Y-17786D01*
X47403Y-17770D01*
X47352Y-17759D01*
X47300Y-17753D01*
X47250Y-17750D01*
X47250Y-17751D02*
X47198Y-17754D01*
X47146Y-17761D01*
X47095Y-17772D01*
X47046Y-17788D01*
X46997Y-17808D01*
X46951Y-17832D01*
X46907Y-17860D01*
X46865Y-17892D01*
X46853Y-17903D01*
X47250Y-18949D02*
X47302Y-18946D01*
X47354Y-18939D01*
X47405Y-18928D01*
X47454Y-18912D01*
X47503Y-18892D01*
X47549Y-18868D01*
X47593Y-18840D01*
X47635Y-18808D01*
X47639Y-18804D01*
X46866Y-18810D02*
X46908Y-18842D01*
X46952Y-18870D01*
X46999Y-18894D01*
X47047Y-18914D01*
X47097Y-18930D01*
X47148Y-18941D01*
X47200Y-18947D01*
X47250Y-18950D01*
X47599Y-18837D02*
X47640Y-18805D01*
X47678Y-18769D01*
X47713Y-18730D01*
X47745Y-18688D01*
X47772Y-18644D01*
X47796Y-18597D01*
X47815Y-18549D01*
X47831Y-18499D01*
X47841Y-18447D01*
X47848Y-18396D01*
X47850Y-18350D01*
X47850Y-18350D02*
X47847Y-18298D01*
X47840Y-18246D01*
X47829Y-18195D01*
X47813Y-18145D01*
X47793Y-18097D01*
X47769Y-18051D01*
X47741Y-18006D01*
X47709Y-17965D01*
X47674Y-17926D01*
X47635Y-17891D01*
X47610Y-17871D01*
X46651Y-18350D02*
X46654Y-18402D01*
X46661Y-18454D01*
X46672Y-18505D01*
X46688Y-18554D01*
X46708Y-18603D01*
X46732Y-18649D01*
X46760Y-18693D01*
X46792Y-18735D01*
X46827Y-18773D01*
X46865Y-18808D01*
X46883Y-18822D01*
X46882Y-17877D02*
X46842Y-17911D01*
X46805Y-17948D01*
X46772Y-17989D01*
X46742Y-18032D01*
X46716Y-18077D01*
X46695Y-18125D01*
X46677Y-18174D01*
X46664Y-18225D01*
X46655Y-18276D01*
X46651Y-18329D01*
X46650Y-18350D01*
X47500Y-18350D02*
X47499Y-18329D01*
X47496Y-18307D01*
X47491Y-18286D01*
X47484Y-18265D01*
X47476Y-18245D01*
X47466Y-18226D01*
X47454Y-18207D01*
X47441Y-18190D01*
X47426Y-18174D01*
X47410Y-18159D01*
X47393Y-18146D01*
X47375Y-18134D01*
X47355Y-18124D01*
X47335Y-18116D01*
X47314Y-18109D01*
X47293Y-18104D01*
X47271Y-18101D01*
X47250Y-18100D01*
X47650Y-18350D02*
X47648Y-18316D01*
X47643Y-18281D01*
X47636Y-18247D01*
X47625Y-18214D01*
X47612Y-18181D01*
X47596Y-18151D01*
X47577Y-18121D01*
X47556Y-18093D01*
X47532Y-18068D01*
X47507Y-18044D01*
X47479Y-18023D01*
X47450Y-18004D01*
X47419Y-17988D01*
X47386Y-17975D01*
X47353Y-17964D01*
X47319Y-17957D01*
X47284Y-17952D01*
X47250Y-17950D01*
X47000Y-18350D02*
X47001Y-18371D01*
X47004Y-18393D01*
X47009Y-18414D01*
X47016Y-18435D01*
X47024Y-18455D01*
X47034Y-18474D01*
X47046Y-18493D01*
X47059Y-18510D01*
X47074Y-18526D01*
X47090Y-18541D01*
X47107Y-18554D01*
X47126Y-18566D01*
X47145Y-18576D01*
X47165Y-18584D01*
X47186Y-18591D01*
X47207Y-18596D01*
X47229Y-18599D01*
X47250Y-18600D01*
X46850Y-18350D02*
X46852Y-18384D01*
X46857Y-18419D01*
X46864Y-18453D01*
X46875Y-18486D01*
X46888Y-18519D01*
X46904Y-18549D01*
X46923Y-18579D01*
X46944Y-18607D01*
X46968Y-18632D01*
X46993Y-18656D01*
X47021Y-18677D01*
X47051Y-18696D01*
X47081Y-18712D01*
X47114Y-18725D01*
X47147Y-18736D01*
X47181Y-18743D01*
X47216Y-18748D01*
X47250Y-18750D01*
G54D15*
X47763Y-18963D02*
X47814Y-18916D01*
X47861Y-18865D01*
X47904Y-18810D01*
X47942Y-18751D01*
X47974Y-18689D01*
X48001Y-18624D01*
X48022Y-18558D01*
X48037Y-18490D01*
X48046Y-18421D01*
X48049Y-18351D01*
X48050Y-18350D01*
X48049Y-18350D02*
X48045Y-18281D01*
X48036Y-18212D01*
X48021Y-18144D01*
X48000Y-18077D01*
X47974Y-18013D01*
X47941Y-17951D01*
X47904Y-17892D01*
X47862Y-17837D01*
X47814Y-17786D01*
X47763Y-17738D01*
X47708Y-17696D01*
X47649Y-17659D01*
X47626Y-17646D01*
X46453Y-18351D02*
X46456Y-18420D01*
X46465Y-18489D01*
X46480Y-18557D01*
X46501Y-18624D01*
X46528Y-18688D01*
X46560Y-18750D01*
X46598Y-18808D01*
X46640Y-18864D01*
X46687Y-18915D01*
X46735Y-18959D01*
X46853Y-17656D02*
X46794Y-17694D01*
X46738Y-17736D01*
X46687Y-17783D01*
X46639Y-17834D01*
X46597Y-17889D01*
X46559Y-17948D01*
X46527Y-18010D01*
X46500Y-18074D01*
X46478Y-18141D01*
X46463Y-18209D01*
X46454Y-18278D01*
X46451Y-18348D01*
X46450Y-18350D01*
X47629Y-17646D02*
X47566Y-17616D01*
X47501Y-17591D01*
X47434Y-17572D01*
X47365Y-17559D01*
X47296Y-17552D01*
X47250Y-17550D01*
X47250Y-17551D02*
X47181Y-17555D01*
X47112Y-17564D01*
X47044Y-17579D01*
X46977Y-17600D01*
X46913Y-17626D01*
X46851Y-17659D01*
X46832Y-17670D01*
G54D14*
X23000Y-59500D02*
X26000Y-59500D01*
X23000Y-72500D02*
X26000Y-72500D01*
X23000Y-72500D02*
X23000Y-59500D01*
X26000Y-59500D02*
X26000Y-72500D01*
X17000Y-61000D02*
X17000Y-61500D01*
X17000Y-61500D02*
X16000Y-61500D01*
X16000Y-61500D02*
X16000Y-61000D01*
X17500Y-61000D02*
X17500Y-65000D01*
X17500Y-65000D02*
X15500Y-65000D01*
X15500Y-65000D02*
X15500Y-61000D01*
X15500Y-61000D02*
X17500Y-61000D01*
X33500Y-65000D02*
X33500Y-65500D01*
X33500Y-65500D02*
X32500Y-65500D01*
X32500Y-65500D02*
X32500Y-65000D01*
X34000Y-65000D02*
X34000Y-69000D01*
X34000Y-69000D02*
X32000Y-69000D01*
X32000Y-69000D02*
X32000Y-65000D01*
X32000Y-65000D02*
X34000Y-65000D01*
X26000Y-27500D02*
X26000Y-42500D01*
X26000Y-42500D02*
X24000Y-42500D01*
X24000Y-42500D02*
X24000Y-27500D01*
X24000Y-27500D02*
X26000Y-27500D01*
X25500Y-27500D02*
X25500Y-28000D01*
X25500Y-28000D02*
X24500Y-28000D01*
X24500Y-28000D02*
X24500Y-27500D01*
G54D12*
X15150Y-18900D02*
X27950Y-18900D01*
X27950Y-18900D02*
X27950Y-11900D01*
X27950Y-11900D02*
X15150Y-11900D01*
X15150Y-11900D02*
X15150Y-18900D01*
X17950Y-11900D02*
X17950Y-14900D01*
X17950Y-14900D02*
X25150Y-14900D01*
X25150Y-14900D02*
X25150Y-11900D01*
X18550Y-11900D02*
X18550Y-08500D01*
X18550Y-08500D02*
X24550Y-08500D01*
X24550Y-08500D02*
X24550Y-11900D01*
G54D14*
X47500Y-46000D02*
X38500Y-46000D01*
X38500Y-46000D02*
X38500Y-52000D01*
X38500Y-52000D02*
X47500Y-52000D01*
X47500Y-52000D02*
X47500Y-46000D01*
X29500Y-46000D02*
X20500Y-46000D01*
X20500Y-46000D02*
X20500Y-52000D01*
X20500Y-52000D02*
X29500Y-52000D01*
X29500Y-52000D02*
X29500Y-46000D01*
X45000Y-61500D02*
X38000Y-61500D01*
X38000Y-61500D02*
X38000Y-67500D01*
X38000Y-67500D02*
X45000Y-67500D01*
X45000Y-67500D02*
X45000Y-61500D01*
G54D12*
X14195Y-56000D02*
X14153Y-56426D01*
X14029Y-56836D01*
X13828Y-57214D01*
X13557Y-57546D01*
X13227Y-57819D01*
X12850Y-58023D01*
X12441Y-58150D01*
X12015Y-58194D01*
X11589Y-58156D01*
X11178Y-58035D01*
X10799Y-57836D01*
X10465Y-57568D01*
X10189Y-57240D01*
X09983Y-56864D01*
X09853Y-56456D01*
X09806Y-56030D01*
X09842Y-55604D01*
X09960Y-55192D01*
X10155Y-54811D01*
X10422Y-54476D01*
X10748Y-54198D01*
X11122Y-53989D01*
X11529Y-53857D01*
X11955Y-53806D01*
X12381Y-53839D01*
X12793Y-53954D01*
X13176Y-54147D01*
X13513Y-54411D01*
X13793Y-54735D01*
X14005Y-55108D01*
X14140Y-55514D01*
X14194Y-55939D01*
X14195Y-56000D01*
X32195Y-56000D02*
X32153Y-56426D01*
X32029Y-56836D01*
X31828Y-57214D01*
X31557Y-57546D01*
X31227Y-57819D01*
X30850Y-58023D01*
X30441Y-58150D01*
X30015Y-58194D01*
X29589Y-58156D01*
X29178Y-58035D01*
X28799Y-57836D01*
X28465Y-57568D01*
X28189Y-57240D01*
X27983Y-56864D01*
X27853Y-56456D01*
X27806Y-56030D01*
X27842Y-55604D01*
X27960Y-55192D01*
X28155Y-54811D01*
X28422Y-54476D01*
X28748Y-54198D01*
X29122Y-53989D01*
X29529Y-53857D01*
X29955Y-53806D01*
X30381Y-53839D01*
X30793Y-53954D01*
X31176Y-54147D01*
X31513Y-54411D01*
X31793Y-54735D01*
X32005Y-55108D01*
X32140Y-55514D01*
X32194Y-55939D01*
X32195Y-56000D01*
X26195Y-56000D02*
X26153Y-56426D01*
X26029Y-56836D01*
X25828Y-57214D01*
X25557Y-57546D01*
X25227Y-57819D01*
X24850Y-58023D01*
X24441Y-58150D01*
X24015Y-58194D01*
X23589Y-58156D01*
X23178Y-58035D01*
X22799Y-57836D01*
X22465Y-57568D01*
X22189Y-57240D01*
X21983Y-56864D01*
X21853Y-56456D01*
X21806Y-56030D01*
X21842Y-55604D01*
X21960Y-55192D01*
X22155Y-54811D01*
X22422Y-54476D01*
X22748Y-54198D01*
X23122Y-53989D01*
X23529Y-53857D01*
X23955Y-53806D01*
X24381Y-53839D01*
X24793Y-53954D01*
X25176Y-54147D01*
X25513Y-54411D01*
X25793Y-54735D01*
X26005Y-55108D01*
X26140Y-55514D01*
X26194Y-55939D01*
X26195Y-56000D01*
X39695Y-71500D02*
X39653Y-71926D01*
X39529Y-72336D01*
X39328Y-72714D01*
X39057Y-73046D01*
X38727Y-73319D01*
X38350Y-73523D01*
X37941Y-73650D01*
X37515Y-73694D01*
X37089Y-73656D01*
X36678Y-73535D01*
X36299Y-73336D01*
X35965Y-73068D01*
X35689Y-72740D01*
X35483Y-72364D01*
X35353Y-71956D01*
X35306Y-71530D01*
X35342Y-71104D01*
X35460Y-70692D01*
X35655Y-70311D01*
X35922Y-69976D01*
X36248Y-69698D01*
X36622Y-69489D01*
X37029Y-69357D01*
X37455Y-69306D01*
X37881Y-69339D01*
X38293Y-69454D01*
X38676Y-69647D01*
X39013Y-69911D01*
X39293Y-70235D01*
X39505Y-70608D01*
X39640Y-71014D01*
X39694Y-71439D01*
X39695Y-71500D01*
X44195Y-56000D02*
X44153Y-56426D01*
X44029Y-56836D01*
X43828Y-57214D01*
X43557Y-57546D01*
X43227Y-57819D01*
X42850Y-58023D01*
X42441Y-58150D01*
X42015Y-58194D01*
X41589Y-58156D01*
X41178Y-58035D01*
X40799Y-57836D01*
X40465Y-57568D01*
X40189Y-57240D01*
X39983Y-56864D01*
X39853Y-56456D01*
X39806Y-56030D01*
X39842Y-55604D01*
X39960Y-55192D01*
X40155Y-54811D01*
X40422Y-54476D01*
X40748Y-54198D01*
X41122Y-53989D01*
X41529Y-53857D01*
X41955Y-53806D01*
X42381Y-53839D01*
X42793Y-53954D01*
X43176Y-54147D01*
X43513Y-54411D01*
X43793Y-54735D01*
X44005Y-55108D01*
X44140Y-55514D01*
X44194Y-55939D01*
X44195Y-56000D01*
X14195Y-69000D02*
X14153Y-69426D01*
X14029Y-69836D01*
X13828Y-70214D01*
X13557Y-70546D01*
X13227Y-70819D01*
X12850Y-71023D01*
X12441Y-71150D01*
X12015Y-71194D01*
X11589Y-71156D01*
X11178Y-71035D01*
X10799Y-70836D01*
X10465Y-70568D01*
X10189Y-70240D01*
X09983Y-69864D01*
X09853Y-69456D01*
X09806Y-69030D01*
X09842Y-68604D01*
X09960Y-68192D01*
X10155Y-67811D01*
X10422Y-67476D01*
X10748Y-67198D01*
X11122Y-66989D01*
X11529Y-66857D01*
X11955Y-66806D01*
X12381Y-66839D01*
X12793Y-66954D01*
X13176Y-67147D01*
X13513Y-67411D01*
X13793Y-67735D01*
X14005Y-68108D01*
X14140Y-68514D01*
X14194Y-68939D01*
X14195Y-69000D01*
X22195Y-69000D02*
X22153Y-69426D01*
X22029Y-69836D01*
X21828Y-70214D01*
X21557Y-70546D01*
X21227Y-70819D01*
X20850Y-71023D01*
X20441Y-71150D01*
X20015Y-71194D01*
X19589Y-71156D01*
X19178Y-71035D01*
X18799Y-70836D01*
X18465Y-70568D01*
X18189Y-70240D01*
X17983Y-69864D01*
X17853Y-69456D01*
X17806Y-69030D01*
X17842Y-68604D01*
X17960Y-68192D01*
X18155Y-67811D01*
X18422Y-67476D01*
X18748Y-67198D01*
X19122Y-66989D01*
X19529Y-66857D01*
X19955Y-66806D01*
X20381Y-66839D01*
X20793Y-66954D01*
X21176Y-67147D01*
X21513Y-67411D01*
X21793Y-67735D01*
X22005Y-68108D01*
X22140Y-68514D01*
X22194Y-68939D01*
X22195Y-69000D01*
X31195Y-63000D02*
X31153Y-63426D01*
X31029Y-63836D01*
X30828Y-64214D01*
X30557Y-64546D01*
X30227Y-64819D01*
X29850Y-65023D01*
X29441Y-65150D01*
X29015Y-65194D01*
X28589Y-65156D01*
X28178Y-65035D01*
X27799Y-64836D01*
X27465Y-64568D01*
X27189Y-64240D01*
X26983Y-63864D01*
X26853Y-63456D01*
X26806Y-63030D01*
X26842Y-62604D01*
X26960Y-62192D01*
X27155Y-61811D01*
X27422Y-61476D01*
X27748Y-61198D01*
X28122Y-60989D01*
X28529Y-60857D01*
X28955Y-60806D01*
X29381Y-60839D01*
X29793Y-60954D01*
X30176Y-61147D01*
X30513Y-61411D01*
X30793Y-61735D01*
X31005Y-62108D01*
X31140Y-62514D01*
X31194Y-62939D01*
X31195Y-63000D01*
G54D15*
X47500Y-57000D02*
X47500Y-61000D01*
X46500Y-57000D02*
X46500Y-61000D01*
X46500Y-61000D02*
X47500Y-61000D01*
X47500Y-57000D02*
X46500Y-57000D01*
G54D13*
X14050Y-39900D02*
X15500Y-39900D01*
X15500Y-39900D02*
X15500Y-39400D01*
X15500Y-39400D02*
X14050Y-39400D01*
X14050Y-40550D02*
X15500Y-40550D01*
X15500Y-40550D02*
X15500Y-40050D01*
X15500Y-40050D02*
X14050Y-40050D01*
X14050Y-41250D02*
X15500Y-41250D01*
X15500Y-41250D02*
X15500Y-40750D01*
X15500Y-40750D02*
X14050Y-40750D01*
X14050Y-41900D02*
X15500Y-41900D01*
X15500Y-41900D02*
X15500Y-41450D01*
X15500Y-41450D02*
X15500Y-41400D01*
X15500Y-41400D02*
X14050Y-41400D01*
X14050Y-42600D02*
X15500Y-42600D01*
X15500Y-42600D02*
X15500Y-42100D01*
X15500Y-42100D02*
X14050Y-42100D01*
X14050Y-43100D02*
X14050Y-38900D01*
X14050Y-38900D02*
X10050Y-38900D01*
X10050Y-38900D02*
X10050Y-43100D01*
X10050Y-43100D02*
X14050Y-43100D01*
G54D14*
X09900Y-13500D02*
X09882Y-13674D01*
X09832Y-13842D01*
X09749Y-13998D01*
X09638Y-14134D01*
X09503Y-14246D01*
X09348Y-14329D01*
X09180Y-14381D01*
X09006Y-14399D01*
X08832Y-14384D01*
X08663Y-14334D01*
X08508Y-14253D01*
X08371Y-14143D01*
X08258Y-14008D01*
X08173Y-13854D01*
X08120Y-13687D01*
X08101Y-13512D01*
X08115Y-13338D01*
X08164Y-13169D01*
X08244Y-13013D01*
X08353Y-12875D01*
X08487Y-12761D01*
X08640Y-12676D01*
X08807Y-12621D01*
X08982Y-12601D01*
X09156Y-12614D01*
X09325Y-12661D01*
X09482Y-12741D01*
X09620Y-12849D01*
X09735Y-12982D01*
X09822Y-13134D01*
X09877Y-13301D01*
X09899Y-13475D01*
X09900Y-13500D01*
X49900Y-13500D02*
X49882Y-13674D01*
X49832Y-13842D01*
X49749Y-13998D01*
X49638Y-14134D01*
X49503Y-14246D01*
X49348Y-14329D01*
X49180Y-14381D01*
X49006Y-14399D01*
X48832Y-14384D01*
X48663Y-14334D01*
X48508Y-14253D01*
X48371Y-14143D01*
X48258Y-14008D01*
X48173Y-13854D01*
X48120Y-13687D01*
X48101Y-13512D01*
X48115Y-13338D01*
X48164Y-13169D01*
X48244Y-13013D01*
X48353Y-12875D01*
X48487Y-12761D01*
X48640Y-12676D01*
X48807Y-12621D01*
X48982Y-12601D01*
X49156Y-12614D01*
X49325Y-12661D01*
X49482Y-12741D01*
X49620Y-12849D01*
X49735Y-12982D01*
X49822Y-13134D01*
X49877Y-13301D01*
X49899Y-13475D01*
X49900Y-13500D01*
X09900Y-75000D02*
X09882Y-75174D01*
X09832Y-75342D01*
X09749Y-75498D01*
X09638Y-75634D01*
X09503Y-75746D01*
X09348Y-75829D01*
X09180Y-75881D01*
X09006Y-75899D01*
X08832Y-75884D01*
X08663Y-75834D01*
X08508Y-75753D01*
X08371Y-75643D01*
X08258Y-75508D01*
X08173Y-75354D01*
X08120Y-75187D01*
X08101Y-75012D01*
X08115Y-74838D01*
X08164Y-74669D01*
X08244Y-74513D01*
X08353Y-74375D01*
X08487Y-74261D01*
X08640Y-74176D01*
X08807Y-74121D01*
X08982Y-74101D01*
X09156Y-74114D01*
X09325Y-74161D01*
X09482Y-74241D01*
X09620Y-74349D01*
X09735Y-74482D01*
X09822Y-74634D01*
X09877Y-74801D01*
X09899Y-74975D01*
X09900Y-75000D01*
X49900Y-75000D02*
X49882Y-75174D01*
X49832Y-75342D01*
X49749Y-75498D01*
X49638Y-75634D01*
X49503Y-75746D01*
X49348Y-75829D01*
X49180Y-75881D01*
X49006Y-75899D01*
X48832Y-75884D01*
X48663Y-75834D01*
X48508Y-75753D01*
X48371Y-75643D01*
X48258Y-75508D01*
X48173Y-75354D01*
X48120Y-75187D01*
X48101Y-75012D01*
X48115Y-74838D01*
X48164Y-74669D01*
X48244Y-74513D01*
X48353Y-74375D01*
X48487Y-74261D01*
X48640Y-74176D01*
X48807Y-74121D01*
X48982Y-74101D01*
X49156Y-74114D01*
X49325Y-74161D01*
X49482Y-74241D01*
X49620Y-74349D01*
X49735Y-74482D01*
X49822Y-74634D01*
X49877Y-74801D01*
X49899Y-74975D01*
X49900Y-75000D01*
G54D16*
X24700Y-24050D02*
X24698Y-24061D01*
X24695Y-24072D01*
X24689Y-24083D01*
X24682Y-24092D01*
X24673Y-24099D01*
X24663Y-24105D01*
X24652Y-24108D01*
X24640Y-24109D01*
X24629Y-24108D01*
X24618Y-24105D01*
X24608Y-24100D01*
X24599Y-24092D01*
X24591Y-24083D01*
X24585Y-24073D01*
X24582Y-24062D01*
X24581Y-24050D01*
X24581Y-24040D01*
X24585Y-24028D01*
X24590Y-24018D01*
X24597Y-24009D01*
X24606Y-24001D01*
X24616Y-23996D01*
X24628Y-23992D01*
X24639Y-23991D01*
X24650Y-23991D01*
X24661Y-23995D01*
X24672Y-24000D01*
X24681Y-24007D01*
X24689Y-24016D01*
X24694Y-24026D01*
X24698Y-24037D01*
X24699Y-24049D01*
X24700Y-24050D01*
X36200Y-27000D02*
X39800Y-27000D01*
X39800Y-27000D02*
X39800Y-42600D01*
X39800Y-42600D02*
X36200Y-42600D01*
X36200Y-42600D02*
X36200Y-27000D01*
G54D17*
X20408Y-24683D02*
X20108Y-24683D01*
X20108Y-24611D01*
X20123Y-24568D01*
X20151Y-24540D01*
X20180Y-24525D01*
X20237Y-24511D01*
X20280Y-24511D01*
X20337Y-24525D01*
X20366Y-24540D01*
X20394Y-24568D01*
X20408Y-24611D01*
X20408Y-24683D01*
X20108Y-24411D02*
X20108Y-24225D01*
X20223Y-24325D01*
X20223Y-24283D01*
X20237Y-24254D01*
X20251Y-24240D01*
X20280Y-24225D01*
X20351Y-24225D01*
X20380Y-24240D01*
X20394Y-24254D01*
X20408Y-24283D01*
X20408Y-24368D01*
X20394Y-24397D01*
X20380Y-24411D01*
X19173Y-24476D02*
X19201Y-24485D01*
X19210Y-24495D01*
X19219Y-24514D01*
X19219Y-24542D01*
X19210Y-24560D01*
X19201Y-24570D01*
X19182Y-24579D01*
X19107Y-24579D01*
X19107Y-24382D01*
X19173Y-24382D01*
X19191Y-24392D01*
X19201Y-24401D01*
X19210Y-24420D01*
X19210Y-24439D01*
X19201Y-24457D01*
X19191Y-24467D01*
X19173Y-24476D01*
X19107Y-24476D01*
X19295Y-24523D02*
X19388Y-24523D01*
X19276Y-24579D02*
X19341Y-24382D01*
X19407Y-24579D01*
X19464Y-24570D02*
X19492Y-24579D01*
X19539Y-24579D01*
X19557Y-24570D01*
X19567Y-24560D01*
X19576Y-24542D01*
X19576Y-24523D01*
X19567Y-24504D01*
X19557Y-24495D01*
X19539Y-24485D01*
X19501Y-24476D01*
X19482Y-24467D01*
X19473Y-24457D01*
X19464Y-24439D01*
X19464Y-24420D01*
X19473Y-24401D01*
X19482Y-24392D01*
X19501Y-24382D01*
X19548Y-24382D01*
X19576Y-24392D01*
X19764Y-24579D02*
X19652Y-24579D01*
X19708Y-24579D02*
X19708Y-24382D01*
X19689Y-24410D01*
X19670Y-24429D01*
X19652Y-24439D01*
X19933Y-24382D02*
X19896Y-24382D01*
X19877Y-24392D01*
X19868Y-24401D01*
X19849Y-24429D01*
X19840Y-24467D01*
X19840Y-24542D01*
X19849Y-24560D01*
X19858Y-24570D01*
X19877Y-24579D01*
X19915Y-24579D01*
X19933Y-24570D01*
X19943Y-24560D01*
X19952Y-24542D01*
X19952Y-24495D01*
X19943Y-24476D01*
X19933Y-24467D01*
X19915Y-24457D01*
X19877Y-24457D01*
X19858Y-24467D01*
X19849Y-24476D01*
X19840Y-24495D01*
G54D13*
X24458Y-23101D02*
X24375Y-22982D01*
X24316Y-23101D02*
X24316Y-22851D01*
X24411Y-22851D01*
X24435Y-22863D01*
X24446Y-22875D01*
X24458Y-22899D01*
X24458Y-22935D01*
X24446Y-22958D01*
X24435Y-22970D01*
X24411Y-22982D01*
X24316Y-22982D01*
X24542Y-22851D02*
X24708Y-22851D01*
X24601Y-23101D01*
X30101Y-20161D02*
X29982Y-20244D01*
X30101Y-20303D02*
X29851Y-20303D01*
X29851Y-20208D01*
X29863Y-20184D01*
X29875Y-20173D01*
X29899Y-20161D01*
X29935Y-20161D01*
X29958Y-20173D01*
X29970Y-20184D01*
X29982Y-20208D01*
X29982Y-20303D01*
X30101Y-19923D02*
X30101Y-20065D01*
X30101Y-19994D02*
X29851Y-19994D01*
X29887Y-20018D01*
X29911Y-20042D01*
X29923Y-20065D01*
X29851Y-19708D02*
X29851Y-19756D01*
X29863Y-19780D01*
X29875Y-19792D01*
X29911Y-19815D01*
X29958Y-19827D01*
X30054Y-19827D01*
X30077Y-19815D01*
X30089Y-19804D01*
X30101Y-19780D01*
X30101Y-19732D01*
X30089Y-19708D01*
X30077Y-19696D01*
X30054Y-19685D01*
X29994Y-19685D01*
X29970Y-19696D01*
X29958Y-19708D01*
X29946Y-19732D01*
X29946Y-19780D01*
X29958Y-19804D01*
X29970Y-19815D01*
X29994Y-19827D01*
X32101Y-33661D02*
X31982Y-33744D01*
X32101Y-33803D02*
X31851Y-33803D01*
X31851Y-33708D01*
X31863Y-33684D01*
X31875Y-33673D01*
X31899Y-33661D01*
X31935Y-33661D01*
X31958Y-33673D01*
X31970Y-33684D01*
X31982Y-33708D01*
X31982Y-33803D01*
X32101Y-33423D02*
X32101Y-33565D01*
X32101Y-33494D02*
X31851Y-33494D01*
X31887Y-33518D01*
X31911Y-33542D01*
X31923Y-33565D01*
X31851Y-33196D02*
X31851Y-33315D01*
X31970Y-33327D01*
X31958Y-33315D01*
X31946Y-33292D01*
X31946Y-33232D01*
X31958Y-33208D01*
X31970Y-33196D01*
X31994Y-33185D01*
X32054Y-33185D01*
X32077Y-33196D01*
X32089Y-33208D01*
X32101Y-33232D01*
X32101Y-33292D01*
X32089Y-33315D01*
X32077Y-33327D01*
X29601Y-24661D02*
X29482Y-24744D01*
X29601Y-24803D02*
X29351Y-24803D01*
X29351Y-24708D01*
X29363Y-24684D01*
X29375Y-24673D01*
X29399Y-24661D01*
X29435Y-24661D01*
X29458Y-24673D01*
X29470Y-24684D01*
X29482Y-24708D01*
X29482Y-24803D01*
X29601Y-24423D02*
X29601Y-24565D01*
X29601Y-24494D02*
X29351Y-24494D01*
X29387Y-24518D01*
X29411Y-24542D01*
X29423Y-24565D01*
X29435Y-24208D02*
X29601Y-24208D01*
X29339Y-24268D02*
X29518Y-24327D01*
X29518Y-24173D01*
X34101Y-32161D02*
X33982Y-32244D01*
X34101Y-32303D02*
X33851Y-32303D01*
X33851Y-32208D01*
X33863Y-32184D01*
X33875Y-32173D01*
X33899Y-32161D01*
X33935Y-32161D01*
X33958Y-32173D01*
X33970Y-32184D01*
X33982Y-32208D01*
X33982Y-32303D01*
X34101Y-31923D02*
X34101Y-32065D01*
X34101Y-31994D02*
X33851Y-31994D01*
X33887Y-32018D01*
X33911Y-32042D01*
X33923Y-32065D01*
X33851Y-31839D02*
X33851Y-31685D01*
X33946Y-31768D01*
X33946Y-31732D01*
X33958Y-31708D01*
X33970Y-31696D01*
X33994Y-31685D01*
X34054Y-31685D01*
X34077Y-31696D01*
X34089Y-31708D01*
X34101Y-31732D01*
X34101Y-31804D01*
X34089Y-31827D01*
X34077Y-31839D01*
X31101Y-25161D02*
X30982Y-25244D01*
X31101Y-25303D02*
X30851Y-25303D01*
X30851Y-25208D01*
X30863Y-25184D01*
X30875Y-25173D01*
X30899Y-25161D01*
X30935Y-25161D01*
X30958Y-25173D01*
X30970Y-25184D01*
X30982Y-25208D01*
X30982Y-25303D01*
X31101Y-24923D02*
X31101Y-25065D01*
X31101Y-24994D02*
X30851Y-24994D01*
X30887Y-25018D01*
X30911Y-25042D01*
X30923Y-25065D01*
X30875Y-24827D02*
X30863Y-24815D01*
X30851Y-24792D01*
X30851Y-24732D01*
X30863Y-24708D01*
X30875Y-24696D01*
X30899Y-24685D01*
X30923Y-24685D01*
X30958Y-24696D01*
X31101Y-24839D01*
X31101Y-24685D01*
X20339Y-26101D02*
X20256Y-25982D01*
X20197Y-26101D02*
X20197Y-25851D01*
X20292Y-25851D01*
X20316Y-25863D01*
X20327Y-25875D01*
X20339Y-25899D01*
X20339Y-25935D01*
X20327Y-25958D01*
X20316Y-25970D01*
X20292Y-25982D01*
X20197Y-25982D01*
X20577Y-26101D02*
X20435Y-26101D01*
X20506Y-26101D02*
X20506Y-25851D01*
X20482Y-25887D01*
X20458Y-25911D01*
X20435Y-25923D01*
X20815Y-26101D02*
X20673Y-26101D01*
X20744Y-26101D02*
X20744Y-25851D01*
X20720Y-25887D01*
X20696Y-25911D01*
X20673Y-25923D01*
X29101Y-32661D02*
X28982Y-32744D01*
X29101Y-32803D02*
X28851Y-32803D01*
X28851Y-32708D01*
X28863Y-32684D01*
X28875Y-32673D01*
X28899Y-32661D01*
X28935Y-32661D01*
X28958Y-32673D01*
X28970Y-32684D01*
X28982Y-32708D01*
X28982Y-32803D01*
X29101Y-32423D02*
X29101Y-32565D01*
X29101Y-32494D02*
X28851Y-32494D01*
X28887Y-32518D01*
X28911Y-32542D01*
X28923Y-32565D01*
X28851Y-32268D02*
X28851Y-32244D01*
X28863Y-32220D01*
X28875Y-32208D01*
X28899Y-32196D01*
X28946Y-32185D01*
X29006Y-32185D01*
X29054Y-32196D01*
X29077Y-32208D01*
X29089Y-32220D01*
X29101Y-32244D01*
X29101Y-32268D01*
X29089Y-32292D01*
X29077Y-32304D01*
X29054Y-32315D01*
X29006Y-32327D01*
X28946Y-32327D01*
X28899Y-32315D01*
X28875Y-32304D01*
X28863Y-32292D01*
X28851Y-32268D01*
X34601Y-40042D02*
X34482Y-40125D01*
X34601Y-40184D02*
X34351Y-40184D01*
X34351Y-40089D01*
X34363Y-40065D01*
X34375Y-40054D01*
X34399Y-40042D01*
X34435Y-40042D01*
X34458Y-40054D01*
X34470Y-40065D01*
X34482Y-40089D01*
X34482Y-40184D01*
X34601Y-39923D02*
X34601Y-39875D01*
X34589Y-39851D01*
X34577Y-39839D01*
X34542Y-39815D01*
X34494Y-39804D01*
X34399Y-39804D01*
X34375Y-39815D01*
X34363Y-39827D01*
X34351Y-39851D01*
X34351Y-39899D01*
X34363Y-39923D01*
X34375Y-39934D01*
X34399Y-39946D01*
X34458Y-39946D01*
X34482Y-39934D01*
X34494Y-39923D01*
X34506Y-39899D01*
X34506Y-39851D01*
X34494Y-39827D01*
X34482Y-39815D01*
X34458Y-39804D01*
X35601Y-40542D02*
X35482Y-40625D01*
X35601Y-40684D02*
X35351Y-40684D01*
X35351Y-40589D01*
X35363Y-40565D01*
X35375Y-40554D01*
X35399Y-40542D01*
X35435Y-40542D01*
X35458Y-40554D01*
X35470Y-40565D01*
X35482Y-40589D01*
X35482Y-40684D01*
X35458Y-40399D02*
X35446Y-40423D01*
X35435Y-40434D01*
X35411Y-40446D01*
X35399Y-40446D01*
X35375Y-40434D01*
X35363Y-40423D01*
X35351Y-40399D01*
X35351Y-40351D01*
X35363Y-40327D01*
X35375Y-40315D01*
X35399Y-40304D01*
X35411Y-40304D01*
X35435Y-40315D01*
X35446Y-40327D01*
X35458Y-40351D01*
X35458Y-40399D01*
X35470Y-40423D01*
X35482Y-40434D01*
X35506Y-40446D01*
X35554Y-40446D01*
X35577Y-40434D01*
X35589Y-40423D01*
X35601Y-40399D01*
X35601Y-40351D01*
X35589Y-40327D01*
X35577Y-40315D01*
X35554Y-40304D01*
X35506Y-40304D01*
X35482Y-40315D01*
X35470Y-40327D01*
X35458Y-40351D01*
X33101Y-32661D02*
X32982Y-32744D01*
X33101Y-32803D02*
X32851Y-32803D01*
X32851Y-32708D01*
X32863Y-32684D01*
X32875Y-32673D01*
X32899Y-32661D01*
X32935Y-32661D01*
X32958Y-32673D01*
X32970Y-32684D01*
X32982Y-32708D01*
X32982Y-32803D01*
X33101Y-32423D02*
X33101Y-32565D01*
X33101Y-32494D02*
X32851Y-32494D01*
X32887Y-32518D01*
X32911Y-32542D01*
X32923Y-32565D01*
X32958Y-32280D02*
X32946Y-32304D01*
X32935Y-32315D01*
X32911Y-32327D01*
X32899Y-32327D01*
X32875Y-32315D01*
X32863Y-32304D01*
X32851Y-32280D01*
X32851Y-32232D01*
X32863Y-32208D01*
X32875Y-32196D01*
X32899Y-32185D01*
X32911Y-32185D01*
X32935Y-32196D01*
X32946Y-32208D01*
X32958Y-32232D01*
X32958Y-32280D01*
X32970Y-32304D01*
X32982Y-32315D01*
X33006Y-32327D01*
X33054Y-32327D01*
X33077Y-32315D01*
X33089Y-32304D01*
X33101Y-32280D01*
X33101Y-32232D01*
X33089Y-32208D01*
X33077Y-32196D01*
X33054Y-32185D01*
X33006Y-32185D01*
X32982Y-32196D01*
X32970Y-32208D01*
X32958Y-32232D01*
X29458Y-34101D02*
X29375Y-33982D01*
X29316Y-34101D02*
X29316Y-33851D01*
X29411Y-33851D01*
X29435Y-33863D01*
X29446Y-33875D01*
X29458Y-33899D01*
X29458Y-33935D01*
X29446Y-33958D01*
X29435Y-33970D01*
X29411Y-33982D01*
X29316Y-33982D01*
X29673Y-33851D02*
X29625Y-33851D01*
X29601Y-33863D01*
X29589Y-33875D01*
X29566Y-33911D01*
X29554Y-33958D01*
X29554Y-34054D01*
X29566Y-34077D01*
X29577Y-34089D01*
X29601Y-34101D01*
X29649Y-34101D01*
X29673Y-34089D01*
X29685Y-34077D01*
X29696Y-34054D01*
X29696Y-33994D01*
X29685Y-33970D01*
X29673Y-33958D01*
X29649Y-33946D01*
X29601Y-33946D01*
X29577Y-33958D01*
X29566Y-33970D01*
X29554Y-33994D01*
X32458Y-37101D02*
X32375Y-36982D01*
X32316Y-37101D02*
X32316Y-36851D01*
X32411Y-36851D01*
X32435Y-36863D01*
X32446Y-36875D01*
X32458Y-36899D01*
X32458Y-36935D01*
X32446Y-36958D01*
X32435Y-36970D01*
X32411Y-36982D01*
X32316Y-36982D01*
X32685Y-36851D02*
X32566Y-36851D01*
X32554Y-36970D01*
X32566Y-36958D01*
X32589Y-36946D01*
X32649Y-36946D01*
X32673Y-36958D01*
X32685Y-36970D01*
X32696Y-36994D01*
X32696Y-37054D01*
X32685Y-37077D01*
X32673Y-37089D01*
X32649Y-37101D01*
X32589Y-37101D01*
X32566Y-37089D01*
X32554Y-37077D01*
X11458Y-33601D02*
X11375Y-33482D01*
X11316Y-33601D02*
X11316Y-33351D01*
X11411Y-33351D01*
X11435Y-33363D01*
X11446Y-33375D01*
X11458Y-33399D01*
X11458Y-33435D01*
X11446Y-33458D01*
X11435Y-33470D01*
X11411Y-33482D01*
X11316Y-33482D01*
X11673Y-33435D02*
X11673Y-33601D01*
X11613Y-33339D02*
X11554Y-33518D01*
X11708Y-33518D01*
X33458Y-38101D02*
X33375Y-37982D01*
X33316Y-38101D02*
X33316Y-37851D01*
X33411Y-37851D01*
X33435Y-37863D01*
X33446Y-37875D01*
X33458Y-37899D01*
X33458Y-37935D01*
X33446Y-37958D01*
X33435Y-37970D01*
X33411Y-37982D01*
X33316Y-37982D01*
X33542Y-37851D02*
X33696Y-37851D01*
X33613Y-37946D01*
X33649Y-37946D01*
X33673Y-37958D01*
X33685Y-37970D01*
X33696Y-37994D01*
X33696Y-38054D01*
X33685Y-38077D01*
X33673Y-38089D01*
X33649Y-38101D01*
X33577Y-38101D01*
X33554Y-38089D01*
X33542Y-38077D01*
X15101Y-52661D02*
X14982Y-52744D01*
X15101Y-52803D02*
X14851Y-52803D01*
X14851Y-52708D01*
X14863Y-52684D01*
X14875Y-52673D01*
X14899Y-52661D01*
X14935Y-52661D01*
X14958Y-52673D01*
X14970Y-52684D01*
X14982Y-52708D01*
X14982Y-52803D01*
X14875Y-52565D02*
X14863Y-52553D01*
X14851Y-52530D01*
X14851Y-52470D01*
X14863Y-52446D01*
X14875Y-52434D01*
X14899Y-52423D01*
X14923Y-52423D01*
X14958Y-52434D01*
X15101Y-52577D01*
X15101Y-52423D01*
X14851Y-52208D02*
X14851Y-52256D01*
X14863Y-52280D01*
X14875Y-52292D01*
X14911Y-52315D01*
X14958Y-52327D01*
X15054Y-52327D01*
X15077Y-52315D01*
X15089Y-52304D01*
X15101Y-52280D01*
X15101Y-52232D01*
X15089Y-52208D01*
X15077Y-52196D01*
X15054Y-52185D01*
X14994Y-52185D01*
X14970Y-52196D01*
X14958Y-52208D01*
X14946Y-52232D01*
X14946Y-52280D01*
X14958Y-52304D01*
X14970Y-52315D01*
X14994Y-52327D01*
X18601Y-40161D02*
X18482Y-40244D01*
X18601Y-40303D02*
X18351Y-40303D01*
X18351Y-40208D01*
X18363Y-40184D01*
X18375Y-40173D01*
X18399Y-40161D01*
X18435Y-40161D01*
X18458Y-40173D01*
X18470Y-40184D01*
X18482Y-40208D01*
X18482Y-40303D01*
X18351Y-40077D02*
X18351Y-39923D01*
X18446Y-40006D01*
X18446Y-39970D01*
X18458Y-39946D01*
X18470Y-39934D01*
X18494Y-39923D01*
X18554Y-39923D01*
X18577Y-39934D01*
X18589Y-39946D01*
X18601Y-39970D01*
X18601Y-40042D01*
X18589Y-40065D01*
X18577Y-40077D01*
X18351Y-39696D02*
X18351Y-39815D01*
X18470Y-39827D01*
X18458Y-39815D01*
X18446Y-39792D01*
X18446Y-39732D01*
X18458Y-39708D01*
X18470Y-39696D01*
X18494Y-39685D01*
X18554Y-39685D01*
X18577Y-39696D01*
X18589Y-39708D01*
X18601Y-39732D01*
X18601Y-39792D01*
X18589Y-39815D01*
X18577Y-39827D01*
X16101Y-38161D02*
X15982Y-38244D01*
X16101Y-38303D02*
X15851Y-38303D01*
X15851Y-38208D01*
X15863Y-38184D01*
X15875Y-38173D01*
X15899Y-38161D01*
X15935Y-38161D01*
X15958Y-38173D01*
X15970Y-38184D01*
X15982Y-38208D01*
X15982Y-38303D01*
X15851Y-38077D02*
X15851Y-37923D01*
X15946Y-38006D01*
X15946Y-37970D01*
X15958Y-37946D01*
X15970Y-37934D01*
X15994Y-37923D01*
X16054Y-37923D01*
X16077Y-37934D01*
X16089Y-37946D01*
X16101Y-37970D01*
X16101Y-38042D01*
X16089Y-38065D01*
X16077Y-38077D01*
X15935Y-37708D02*
X16101Y-37708D01*
X15839Y-37768D02*
X16018Y-37827D01*
X16018Y-37673D01*
X13101Y-65161D02*
X12982Y-65244D01*
X13101Y-65303D02*
X12851Y-65303D01*
X12851Y-65208D01*
X12863Y-65184D01*
X12875Y-65173D01*
X12899Y-65161D01*
X12935Y-65161D01*
X12958Y-65173D01*
X12970Y-65184D01*
X12982Y-65208D01*
X12982Y-65303D01*
X12851Y-65077D02*
X12851Y-64923D01*
X12946Y-65006D01*
X12946Y-64970D01*
X12958Y-64946D01*
X12970Y-64934D01*
X12994Y-64923D01*
X13054Y-64923D01*
X13077Y-64934D01*
X13089Y-64946D01*
X13101Y-64970D01*
X13101Y-65042D01*
X13089Y-65065D01*
X13077Y-65077D01*
X12851Y-64839D02*
X12851Y-64685D01*
X12946Y-64768D01*
X12946Y-64732D01*
X12958Y-64708D01*
X12970Y-64696D01*
X12994Y-64685D01*
X13054Y-64685D01*
X13077Y-64696D01*
X13089Y-64708D01*
X13101Y-64732D01*
X13101Y-64804D01*
X13089Y-64827D01*
X13077Y-64839D01*
X15101Y-67161D02*
X14982Y-67244D01*
X15101Y-67303D02*
X14851Y-67303D01*
X14851Y-67208D01*
X14863Y-67184D01*
X14875Y-67173D01*
X14899Y-67161D01*
X14935Y-67161D01*
X14958Y-67173D01*
X14970Y-67184D01*
X14982Y-67208D01*
X14982Y-67303D01*
X14851Y-67077D02*
X14851Y-66923D01*
X14946Y-67006D01*
X14946Y-66970D01*
X14958Y-66946D01*
X14970Y-66934D01*
X14994Y-66923D01*
X15054Y-66923D01*
X15077Y-66934D01*
X15089Y-66946D01*
X15101Y-66970D01*
X15101Y-67042D01*
X15089Y-67065D01*
X15077Y-67077D01*
X14875Y-66827D02*
X14863Y-66815D01*
X14851Y-66792D01*
X14851Y-66732D01*
X14863Y-66708D01*
X14875Y-66696D01*
X14899Y-66685D01*
X14923Y-66685D01*
X14958Y-66696D01*
X15101Y-66839D01*
X15101Y-66685D01*
X35101Y-53161D02*
X34982Y-53244D01*
X35101Y-53303D02*
X34851Y-53303D01*
X34851Y-53208D01*
X34863Y-53184D01*
X34875Y-53173D01*
X34899Y-53161D01*
X34935Y-53161D01*
X34958Y-53173D01*
X34970Y-53184D01*
X34982Y-53208D01*
X34982Y-53303D01*
X34851Y-53077D02*
X34851Y-52923D01*
X34946Y-53006D01*
X34946Y-52970D01*
X34958Y-52946D01*
X34970Y-52934D01*
X34994Y-52923D01*
X35054Y-52923D01*
X35077Y-52934D01*
X35089Y-52946D01*
X35101Y-52970D01*
X35101Y-53042D01*
X35089Y-53065D01*
X35077Y-53077D01*
X35101Y-52685D02*
X35101Y-52827D01*
X35101Y-52756D02*
X34851Y-52756D01*
X34887Y-52780D01*
X34911Y-52804D01*
X34923Y-52827D01*
X36339Y-52101D02*
X36256Y-51982D01*
X36197Y-52101D02*
X36197Y-51851D01*
X36292Y-51851D01*
X36316Y-51863D01*
X36327Y-51875D01*
X36339Y-51899D01*
X36339Y-51935D01*
X36327Y-51958D01*
X36316Y-51970D01*
X36292Y-51982D01*
X36197Y-51982D01*
X36423Y-51851D02*
X36577Y-51851D01*
X36494Y-51946D01*
X36530Y-51946D01*
X36554Y-51958D01*
X36566Y-51970D01*
X36577Y-51994D01*
X36577Y-52054D01*
X36566Y-52077D01*
X36554Y-52089D01*
X36530Y-52101D01*
X36458Y-52101D01*
X36435Y-52089D01*
X36423Y-52077D01*
X36732Y-51851D02*
X36756Y-51851D01*
X36780Y-51863D01*
X36792Y-51875D01*
X36804Y-51899D01*
X36815Y-51946D01*
X36815Y-52006D01*
X36804Y-52054D01*
X36792Y-52077D01*
X36780Y-52089D01*
X36756Y-52101D01*
X36732Y-52101D01*
X36708Y-52089D01*
X36696Y-52077D01*
X36685Y-52054D01*
X36673Y-52006D01*
X36673Y-51946D01*
X36685Y-51899D01*
X36696Y-51875D01*
X36708Y-51863D01*
X36732Y-51851D01*
X17101Y-53161D02*
X16982Y-53244D01*
X17101Y-53303D02*
X16851Y-53303D01*
X16851Y-53208D01*
X16863Y-53184D01*
X16875Y-53173D01*
X16899Y-53161D01*
X16935Y-53161D01*
X16958Y-53173D01*
X16970Y-53184D01*
X16982Y-53208D01*
X16982Y-53303D01*
X16875Y-53065D02*
X16863Y-53053D01*
X16851Y-53030D01*
X16851Y-52970D01*
X16863Y-52946D01*
X16875Y-52934D01*
X16899Y-52923D01*
X16923Y-52923D01*
X16958Y-52934D01*
X17101Y-53077D01*
X17101Y-52923D01*
X17101Y-52804D02*
X17101Y-52756D01*
X17089Y-52732D01*
X17077Y-52720D01*
X17042Y-52696D01*
X16994Y-52685D01*
X16899Y-52685D01*
X16875Y-52696D01*
X16863Y-52708D01*
X16851Y-52732D01*
X16851Y-52780D01*
X16863Y-52804D01*
X16875Y-52815D01*
X16899Y-52827D01*
X16958Y-52827D01*
X16982Y-52815D01*
X16994Y-52804D01*
X17006Y-52780D01*
X17006Y-52732D01*
X16994Y-52708D01*
X16982Y-52696D01*
X16958Y-52685D01*
X18339Y-52101D02*
X18256Y-51982D01*
X18197Y-52101D02*
X18197Y-51851D01*
X18292Y-51851D01*
X18316Y-51863D01*
X18327Y-51875D01*
X18339Y-51899D01*
X18339Y-51935D01*
X18327Y-51958D01*
X18316Y-51970D01*
X18292Y-51982D01*
X18197Y-51982D01*
X18435Y-51875D02*
X18447Y-51863D01*
X18470Y-51851D01*
X18530Y-51851D01*
X18554Y-51863D01*
X18566Y-51875D01*
X18577Y-51899D01*
X18577Y-51923D01*
X18566Y-51958D01*
X18423Y-52101D01*
X18577Y-52101D01*
X18720Y-51958D02*
X18696Y-51946D01*
X18685Y-51935D01*
X18673Y-51911D01*
X18673Y-51899D01*
X18685Y-51875D01*
X18696Y-51863D01*
X18720Y-51851D01*
X18768Y-51851D01*
X18792Y-51863D01*
X18804Y-51875D01*
X18815Y-51899D01*
X18815Y-51911D01*
X18804Y-51935D01*
X18792Y-51946D01*
X18768Y-51958D01*
X18720Y-51958D01*
X18696Y-51970D01*
X18685Y-51982D01*
X18673Y-52006D01*
X18673Y-52054D01*
X18685Y-52077D01*
X18696Y-52089D01*
X18720Y-52101D01*
X18768Y-52101D01*
X18792Y-52089D01*
X18804Y-52077D01*
X18815Y-52054D01*
X18815Y-52006D01*
X18804Y-51982D01*
X18792Y-51970D01*
X18768Y-51958D01*
X33101Y-52661D02*
X32982Y-52744D01*
X33101Y-52803D02*
X32851Y-52803D01*
X32851Y-52708D01*
X32863Y-52684D01*
X32875Y-52673D01*
X32899Y-52661D01*
X32935Y-52661D01*
X32958Y-52673D01*
X32970Y-52684D01*
X32982Y-52708D01*
X32982Y-52803D01*
X32875Y-52565D02*
X32863Y-52553D01*
X32851Y-52530D01*
X32851Y-52470D01*
X32863Y-52446D01*
X32875Y-52434D01*
X32899Y-52423D01*
X32923Y-52423D01*
X32958Y-52434D01*
X33101Y-52577D01*
X33101Y-52423D01*
X32851Y-52339D02*
X32851Y-52173D01*
X33101Y-52280D01*
X48351Y-25411D02*
X48232Y-25494D01*
X48351Y-25553D02*
X48101Y-25553D01*
X48101Y-25458D01*
X48113Y-25434D01*
X48125Y-25423D01*
X48149Y-25411D01*
X48185Y-25411D01*
X48208Y-25423D01*
X48220Y-25434D01*
X48232Y-25458D01*
X48232Y-25553D01*
X48351Y-25173D02*
X48351Y-25315D01*
X48351Y-25244D02*
X48101Y-25244D01*
X48137Y-25268D01*
X48161Y-25292D01*
X48173Y-25315D01*
X48101Y-25089D02*
X48101Y-24923D01*
X48351Y-25030D01*
X33339Y-72601D02*
X33256Y-72482D01*
X33197Y-72601D02*
X33197Y-72351D01*
X33292Y-72351D01*
X33316Y-72363D01*
X33327Y-72375D01*
X33339Y-72399D01*
X33339Y-72435D01*
X33327Y-72458D01*
X33316Y-72470D01*
X33292Y-72482D01*
X33197Y-72482D01*
X33435Y-72375D02*
X33447Y-72363D01*
X33470Y-72351D01*
X33530Y-72351D01*
X33554Y-72363D01*
X33566Y-72375D01*
X33577Y-72399D01*
X33577Y-72423D01*
X33566Y-72458D01*
X33423Y-72601D01*
X33577Y-72601D01*
X33804Y-72351D02*
X33685Y-72351D01*
X33673Y-72470D01*
X33685Y-72458D01*
X33708Y-72446D01*
X33768Y-72446D01*
X33792Y-72458D01*
X33804Y-72470D01*
X33815Y-72494D01*
X33815Y-72554D01*
X33804Y-72577D01*
X33792Y-72589D01*
X33768Y-72601D01*
X33708Y-72601D01*
X33685Y-72589D01*
X33673Y-72577D01*
X28839Y-68601D02*
X28756Y-68482D01*
X28697Y-68601D02*
X28697Y-68351D01*
X28792Y-68351D01*
X28816Y-68363D01*
X28827Y-68375D01*
X28839Y-68399D01*
X28839Y-68435D01*
X28827Y-68458D01*
X28816Y-68470D01*
X28792Y-68482D01*
X28697Y-68482D01*
X28935Y-68375D02*
X28947Y-68363D01*
X28970Y-68351D01*
X29030Y-68351D01*
X29054Y-68363D01*
X29066Y-68375D01*
X29077Y-68399D01*
X29077Y-68423D01*
X29066Y-68458D01*
X28923Y-68601D01*
X29077Y-68601D01*
X29292Y-68435D02*
X29292Y-68601D01*
X29232Y-68339D02*
X29173Y-68518D01*
X29327Y-68518D01*
X31601Y-71661D02*
X31482Y-71744D01*
X31601Y-71803D02*
X31351Y-71803D01*
X31351Y-71708D01*
X31363Y-71684D01*
X31375Y-71673D01*
X31399Y-71661D01*
X31435Y-71661D01*
X31458Y-71673D01*
X31470Y-71684D01*
X31482Y-71708D01*
X31482Y-71803D01*
X31375Y-71565D02*
X31363Y-71553D01*
X31351Y-71530D01*
X31351Y-71470D01*
X31363Y-71446D01*
X31375Y-71434D01*
X31399Y-71423D01*
X31423Y-71423D01*
X31458Y-71434D01*
X31601Y-71577D01*
X31601Y-71423D01*
X31351Y-71339D02*
X31351Y-71185D01*
X31446Y-71268D01*
X31446Y-71232D01*
X31458Y-71208D01*
X31470Y-71196D01*
X31494Y-71185D01*
X31554Y-71185D01*
X31577Y-71196D01*
X31589Y-71208D01*
X31601Y-71232D01*
X31601Y-71304D01*
X31589Y-71327D01*
X31577Y-71339D01*
X36601Y-66661D02*
X36482Y-66744D01*
X36601Y-66803D02*
X36351Y-66803D01*
X36351Y-66708D01*
X36363Y-66684D01*
X36375Y-66673D01*
X36399Y-66661D01*
X36435Y-66661D01*
X36458Y-66673D01*
X36470Y-66684D01*
X36482Y-66708D01*
X36482Y-66803D01*
X36375Y-66565D02*
X36363Y-66553D01*
X36351Y-66530D01*
X36351Y-66470D01*
X36363Y-66446D01*
X36375Y-66434D01*
X36399Y-66423D01*
X36423Y-66423D01*
X36458Y-66434D01*
X36601Y-66577D01*
X36601Y-66423D01*
X36375Y-66327D02*
X36363Y-66315D01*
X36351Y-66292D01*
X36351Y-66232D01*
X36363Y-66208D01*
X36375Y-66196D01*
X36399Y-66185D01*
X36423Y-66185D01*
X36458Y-66196D01*
X36601Y-66339D01*
X36601Y-66185D01*
X47351Y-20411D02*
X47232Y-20494D01*
X47351Y-20553D02*
X47101Y-20553D01*
X47101Y-20458D01*
X47113Y-20434D01*
X47125Y-20423D01*
X47149Y-20411D01*
X47185Y-20411D01*
X47208Y-20423D01*
X47220Y-20434D01*
X47232Y-20458D01*
X47232Y-20553D01*
X47125Y-20315D02*
X47113Y-20303D01*
X47101Y-20280D01*
X47101Y-20220D01*
X47113Y-20196D01*
X47125Y-20184D01*
X47149Y-20173D01*
X47173Y-20173D01*
X47208Y-20184D01*
X47351Y-20327D01*
X47351Y-20173D01*
X47351Y-19935D02*
X47351Y-20077D01*
X47351Y-20006D02*
X47101Y-20006D01*
X47137Y-20030D01*
X47161Y-20054D01*
X47173Y-20077D01*
X46851Y-24911D02*
X46732Y-24994D01*
X46851Y-25053D02*
X46601Y-25053D01*
X46601Y-24958D01*
X46613Y-24934D01*
X46625Y-24923D01*
X46649Y-24911D01*
X46685Y-24911D01*
X46708Y-24923D01*
X46720Y-24934D01*
X46732Y-24958D01*
X46732Y-25053D01*
X46625Y-24815D02*
X46613Y-24803D01*
X46601Y-24780D01*
X46601Y-24720D01*
X46613Y-24696D01*
X46625Y-24684D01*
X46649Y-24673D01*
X46673Y-24673D01*
X46708Y-24684D01*
X46851Y-24827D01*
X46851Y-24673D01*
X46601Y-24518D02*
X46601Y-24494D01*
X46613Y-24470D01*
X46625Y-24458D01*
X46649Y-24446D01*
X46696Y-24435D01*
X46756Y-24435D01*
X46804Y-24446D01*
X46827Y-24458D01*
X46839Y-24470D01*
X46851Y-24494D01*
X46851Y-24518D01*
X46839Y-24542D01*
X46827Y-24554D01*
X46804Y-24565D01*
X46756Y-24577D01*
X46696Y-24577D01*
X46649Y-24565D01*
X46625Y-24554D01*
X46613Y-24542D01*
X46601Y-24518D01*
X37339Y-25101D02*
X37256Y-24982D01*
X37197Y-25101D02*
X37197Y-24851D01*
X37292Y-24851D01*
X37316Y-24863D01*
X37327Y-24875D01*
X37339Y-24899D01*
X37339Y-24935D01*
X37327Y-24958D01*
X37316Y-24970D01*
X37292Y-24982D01*
X37197Y-24982D01*
X37577Y-25101D02*
X37435Y-25101D01*
X37506Y-25101D02*
X37506Y-24851D01*
X37482Y-24887D01*
X37458Y-24911D01*
X37435Y-24923D01*
X37696Y-25101D02*
X37744Y-25101D01*
X37768Y-25089D01*
X37780Y-25077D01*
X37804Y-25042D01*
X37815Y-24994D01*
X37815Y-24899D01*
X37804Y-24875D01*
X37792Y-24863D01*
X37768Y-24851D01*
X37720Y-24851D01*
X37696Y-24863D01*
X37685Y-24875D01*
X37673Y-24899D01*
X37673Y-24958D01*
X37685Y-24982D01*
X37696Y-24994D01*
X37720Y-25006D01*
X37768Y-25006D01*
X37792Y-24994D01*
X37804Y-24982D01*
X37815Y-24958D01*
X28077Y-42042D02*
X28089Y-42054D01*
X28101Y-42089D01*
X28101Y-42113D01*
X28089Y-42149D01*
X28065Y-42173D01*
X28042Y-42184D01*
X27994Y-42196D01*
X27958Y-42196D01*
X27911Y-42184D01*
X27887Y-42173D01*
X27863Y-42149D01*
X27851Y-42113D01*
X27851Y-42089D01*
X27863Y-42054D01*
X27875Y-42042D01*
X28101Y-41804D02*
X28101Y-41946D01*
X28101Y-41875D02*
X27851Y-41875D01*
X27887Y-41899D01*
X27911Y-41923D01*
X27923Y-41946D01*
X11458Y-32601D02*
X11375Y-32482D01*
X11316Y-32601D02*
X11316Y-32351D01*
X11411Y-32351D01*
X11435Y-32363D01*
X11446Y-32375D01*
X11458Y-32399D01*
X11458Y-32435D01*
X11446Y-32458D01*
X11435Y-32470D01*
X11411Y-32482D01*
X11316Y-32482D01*
X11554Y-32375D02*
X11566Y-32363D01*
X11589Y-32351D01*
X11649Y-32351D01*
X11673Y-32363D01*
X11685Y-32375D01*
X11696Y-32399D01*
X11696Y-32423D01*
X11685Y-32458D01*
X11542Y-32601D01*
X11696Y-32601D01*
X28577Y-37042D02*
X28589Y-37054D01*
X28601Y-37089D01*
X28601Y-37113D01*
X28589Y-37149D01*
X28565Y-37173D01*
X28542Y-37184D01*
X28494Y-37196D01*
X28458Y-37196D01*
X28411Y-37184D01*
X28387Y-37173D01*
X28363Y-37149D01*
X28351Y-37113D01*
X28351Y-37089D01*
X28363Y-37054D01*
X28375Y-37042D01*
X28375Y-36946D02*
X28363Y-36934D01*
X28351Y-36911D01*
X28351Y-36851D01*
X28363Y-36827D01*
X28375Y-36815D01*
X28399Y-36804D01*
X28423Y-36804D01*
X28458Y-36815D01*
X28601Y-36958D01*
X28601Y-36804D01*
X17577Y-25542D02*
X17589Y-25554D01*
X17601Y-25589D01*
X17601Y-25613D01*
X17589Y-25649D01*
X17565Y-25673D01*
X17542Y-25684D01*
X17494Y-25696D01*
X17458Y-25696D01*
X17411Y-25684D01*
X17387Y-25673D01*
X17363Y-25649D01*
X17351Y-25613D01*
X17351Y-25589D01*
X17363Y-25554D01*
X17375Y-25542D01*
X17351Y-25458D02*
X17351Y-25304D01*
X17446Y-25387D01*
X17446Y-25351D01*
X17458Y-25327D01*
X17470Y-25315D01*
X17494Y-25304D01*
X17554Y-25304D01*
X17577Y-25315D01*
X17589Y-25327D01*
X17601Y-25351D01*
X17601Y-25423D01*
X17589Y-25446D01*
X17577Y-25458D01*
X46077Y-29042D02*
X46089Y-29054D01*
X46101Y-29089D01*
X46101Y-29113D01*
X46089Y-29149D01*
X46065Y-29173D01*
X46042Y-29184D01*
X45994Y-29196D01*
X45958Y-29196D01*
X45911Y-29184D01*
X45887Y-29173D01*
X45863Y-29149D01*
X45851Y-29113D01*
X45851Y-29089D01*
X45863Y-29054D01*
X45875Y-29042D01*
X45935Y-28827D02*
X46101Y-28827D01*
X45839Y-28887D02*
X46018Y-28946D01*
X46018Y-28792D01*
X44577Y-29042D02*
X44589Y-29054D01*
X44601Y-29089D01*
X44601Y-29113D01*
X44589Y-29149D01*
X44565Y-29173D01*
X44542Y-29184D01*
X44494Y-29196D01*
X44458Y-29196D01*
X44411Y-29184D01*
X44387Y-29173D01*
X44363Y-29149D01*
X44351Y-29113D01*
X44351Y-29089D01*
X44363Y-29054D01*
X44375Y-29042D01*
X44351Y-28815D02*
X44351Y-28934D01*
X44470Y-28946D01*
X44458Y-28934D01*
X44446Y-28911D01*
X44446Y-28851D01*
X44458Y-28827D01*
X44470Y-28815D01*
X44494Y-28804D01*
X44554Y-28804D01*
X44577Y-28815D01*
X44589Y-28827D01*
X44601Y-28851D01*
X44601Y-28911D01*
X44589Y-28934D01*
X44577Y-28946D01*
X43077Y-29042D02*
X43089Y-29054D01*
X43101Y-29089D01*
X43101Y-29113D01*
X43089Y-29149D01*
X43065Y-29173D01*
X43042Y-29184D01*
X42994Y-29196D01*
X42958Y-29196D01*
X42911Y-29184D01*
X42887Y-29173D01*
X42863Y-29149D01*
X42851Y-29113D01*
X42851Y-29089D01*
X42863Y-29054D01*
X42875Y-29042D01*
X42851Y-28827D02*
X42851Y-28875D01*
X42863Y-28899D01*
X42875Y-28911D01*
X42911Y-28934D01*
X42958Y-28946D01*
X43054Y-28946D01*
X43077Y-28934D01*
X43089Y-28923D01*
X43101Y-28899D01*
X43101Y-28851D01*
X43089Y-28827D01*
X43077Y-28815D01*
X43054Y-28804D01*
X42994Y-28804D01*
X42970Y-28815D01*
X42958Y-28827D01*
X42946Y-28851D01*
X42946Y-28899D01*
X42958Y-28923D01*
X42970Y-28934D01*
X42994Y-28946D01*
X39458Y-15077D02*
X39446Y-15089D01*
X39411Y-15101D01*
X39387Y-15101D01*
X39351Y-15089D01*
X39327Y-15065D01*
X39316Y-15042D01*
X39304Y-14994D01*
X39304Y-14958D01*
X39316Y-14911D01*
X39327Y-14887D01*
X39351Y-14863D01*
X39387Y-14851D01*
X39411Y-14851D01*
X39446Y-14863D01*
X39458Y-14875D01*
X39542Y-14851D02*
X39708Y-14851D01*
X39601Y-15101D01*
X36577Y-68542D02*
X36589Y-68554D01*
X36601Y-68589D01*
X36601Y-68613D01*
X36589Y-68649D01*
X36565Y-68673D01*
X36542Y-68684D01*
X36494Y-68696D01*
X36458Y-68696D01*
X36411Y-68684D01*
X36387Y-68673D01*
X36363Y-68649D01*
X36351Y-68613D01*
X36351Y-68589D01*
X36363Y-68554D01*
X36375Y-68542D01*
X36601Y-68423D02*
X36601Y-68375D01*
X36589Y-68351D01*
X36577Y-68339D01*
X36542Y-68315D01*
X36494Y-68304D01*
X36399Y-68304D01*
X36375Y-68315D01*
X36363Y-68327D01*
X36351Y-68351D01*
X36351Y-68399D01*
X36363Y-68423D01*
X36375Y-68434D01*
X36399Y-68446D01*
X36458Y-68446D01*
X36482Y-68434D01*
X36494Y-68423D01*
X36506Y-68399D01*
X36506Y-68351D01*
X36494Y-68327D01*
X36482Y-68315D01*
X36458Y-68304D01*
X42077Y-72161D02*
X42089Y-72173D01*
X42101Y-72208D01*
X42101Y-72232D01*
X42089Y-72268D01*
X42065Y-72292D01*
X42042Y-72303D01*
X41994Y-72315D01*
X41958Y-72315D01*
X41911Y-72303D01*
X41887Y-72292D01*
X41863Y-72268D01*
X41851Y-72232D01*
X41851Y-72208D01*
X41863Y-72173D01*
X41875Y-72161D01*
X42101Y-71923D02*
X42101Y-72065D01*
X42101Y-71994D02*
X41851Y-71994D01*
X41887Y-72018D01*
X41911Y-72042D01*
X41923Y-72065D01*
X41851Y-71768D02*
X41851Y-71744D01*
X41863Y-71720D01*
X41875Y-71708D01*
X41899Y-71696D01*
X41946Y-71685D01*
X42006Y-71685D01*
X42054Y-71696D01*
X42077Y-71708D01*
X42089Y-71720D01*
X42101Y-71744D01*
X42101Y-71768D01*
X42089Y-71792D01*
X42077Y-71804D01*
X42054Y-71815D01*
X42006Y-71827D01*
X41946Y-71827D01*
X41899Y-71815D01*
X41875Y-71804D01*
X41863Y-71792D01*
X41851Y-71768D01*
X15077Y-54661D02*
X15089Y-54673D01*
X15101Y-54708D01*
X15101Y-54732D01*
X15089Y-54768D01*
X15065Y-54792D01*
X15042Y-54803D01*
X14994Y-54815D01*
X14958Y-54815D01*
X14911Y-54803D01*
X14887Y-54792D01*
X14863Y-54768D01*
X14851Y-54732D01*
X14851Y-54708D01*
X14863Y-54673D01*
X14875Y-54661D01*
X15101Y-54423D02*
X15101Y-54565D01*
X15101Y-54494D02*
X14851Y-54494D01*
X14887Y-54518D01*
X14911Y-54542D01*
X14923Y-54565D01*
X14935Y-54208D02*
X15101Y-54208D01*
X14839Y-54268D02*
X15018Y-54327D01*
X15018Y-54173D01*
X33077Y-54661D02*
X33089Y-54673D01*
X33101Y-54708D01*
X33101Y-54732D01*
X33089Y-54768D01*
X33065Y-54792D01*
X33042Y-54803D01*
X32994Y-54815D01*
X32958Y-54815D01*
X32911Y-54803D01*
X32887Y-54792D01*
X32863Y-54768D01*
X32851Y-54732D01*
X32851Y-54708D01*
X32863Y-54673D01*
X32875Y-54661D01*
X33101Y-54423D02*
X33101Y-54565D01*
X33101Y-54494D02*
X32851Y-54494D01*
X32887Y-54518D01*
X32911Y-54542D01*
X32923Y-54565D01*
X32851Y-54196D02*
X32851Y-54315D01*
X32970Y-54327D01*
X32958Y-54315D01*
X32946Y-54292D01*
X32946Y-54232D01*
X32958Y-54208D01*
X32970Y-54196D01*
X32994Y-54185D01*
X33054Y-54185D01*
X33077Y-54196D01*
X33089Y-54208D01*
X33101Y-54232D01*
X33101Y-54292D01*
X33089Y-54315D01*
X33077Y-54327D01*
X20077Y-65161D02*
X20089Y-65173D01*
X20101Y-65208D01*
X20101Y-65232D01*
X20089Y-65268D01*
X20065Y-65292D01*
X20042Y-65303D01*
X19994Y-65315D01*
X19958Y-65315D01*
X19911Y-65303D01*
X19887Y-65292D01*
X19863Y-65268D01*
X19851Y-65232D01*
X19851Y-65208D01*
X19863Y-65173D01*
X19875Y-65161D01*
X20101Y-64923D02*
X20101Y-65065D01*
X20101Y-64994D02*
X19851Y-64994D01*
X19887Y-65018D01*
X19911Y-65042D01*
X19923Y-65065D01*
X19958Y-64780D02*
X19946Y-64804D01*
X19935Y-64815D01*
X19911Y-64827D01*
X19899Y-64827D01*
X19875Y-64815D01*
X19863Y-64804D01*
X19851Y-64780D01*
X19851Y-64732D01*
X19863Y-64708D01*
X19875Y-64696D01*
X19899Y-64685D01*
X19911Y-64685D01*
X19935Y-64696D01*
X19946Y-64708D01*
X19958Y-64732D01*
X19958Y-64780D01*
X19970Y-64804D01*
X19982Y-64815D01*
X20006Y-64827D01*
X20054Y-64827D01*
X20077Y-64815D01*
X20089Y-64804D01*
X20101Y-64780D01*
X20101Y-64732D01*
X20089Y-64708D01*
X20077Y-64696D01*
X20054Y-64685D01*
X20006Y-64685D01*
X19982Y-64696D01*
X19970Y-64708D01*
X19958Y-64732D01*
X17577Y-40161D02*
X17589Y-40173D01*
X17601Y-40208D01*
X17601Y-40232D01*
X17589Y-40268D01*
X17565Y-40292D01*
X17542Y-40303D01*
X17494Y-40315D01*
X17458Y-40315D01*
X17411Y-40303D01*
X17387Y-40292D01*
X17363Y-40268D01*
X17351Y-40232D01*
X17351Y-40208D01*
X17363Y-40173D01*
X17375Y-40161D01*
X17375Y-40065D02*
X17363Y-40053D01*
X17351Y-40030D01*
X17351Y-39970D01*
X17363Y-39946D01*
X17375Y-39934D01*
X17399Y-39923D01*
X17423Y-39923D01*
X17458Y-39934D01*
X17601Y-40077D01*
X17601Y-39923D01*
X17601Y-39685D02*
X17601Y-39827D01*
X17601Y-39756D02*
X17351Y-39756D01*
X17387Y-39780D01*
X17411Y-39804D01*
X17423Y-39827D01*
X16958Y-29101D02*
X16875Y-28982D01*
X16816Y-29101D02*
X16816Y-28851D01*
X16911Y-28851D01*
X16935Y-28863D01*
X16946Y-28875D01*
X16958Y-28899D01*
X16958Y-28935D01*
X16946Y-28958D01*
X16935Y-28970D01*
X16911Y-28982D01*
X16816Y-28982D01*
X17196Y-29101D02*
X17054Y-29101D01*
X17125Y-29101D02*
X17125Y-28851D01*
X17101Y-28887D01*
X17077Y-28911D01*
X17054Y-28923D01*
G54D11*
X35271Y-15607D02*
X35314Y-15621D01*
X35385Y-15621D01*
X35414Y-15607D01*
X35428Y-15593D01*
X35443Y-15564D01*
X35443Y-15536D01*
X35428Y-15507D01*
X35414Y-15493D01*
X35385Y-15479D01*
X35328Y-15464D01*
X35300Y-15450D01*
X35285Y-15436D01*
X35271Y-15407D01*
X35271Y-15379D01*
X35285Y-15350D01*
X35300Y-15336D01*
X35328Y-15321D01*
X35400Y-15321D01*
X35443Y-15336D01*
X35729Y-15621D02*
X35557Y-15621D01*
X35643Y-15621D02*
X35643Y-15321D01*
X35614Y-15364D01*
X35586Y-15393D01*
X35557Y-15407D01*
X36671Y-15607D02*
X36714Y-15621D01*
X36785Y-15621D01*
X36814Y-15607D01*
X36828Y-15593D01*
X36843Y-15564D01*
X36843Y-15536D01*
X36828Y-15507D01*
X36814Y-15493D01*
X36785Y-15479D01*
X36728Y-15464D01*
X36700Y-15450D01*
X36685Y-15436D01*
X36671Y-15407D01*
X36671Y-15379D01*
X36685Y-15350D01*
X36700Y-15336D01*
X36728Y-15321D01*
X36800Y-15321D01*
X36843Y-15336D01*
X36971Y-15621D02*
X36971Y-15321D01*
X37114Y-15621D02*
X37114Y-15321D01*
X37214Y-15536D01*
X37314Y-15321D01*
X37314Y-15621D01*
G54D18*
X17762Y-33305D02*
X18086Y-33305D01*
X18124Y-33286D01*
X18143Y-33267D01*
X18162Y-33229D01*
X18162Y-33152D01*
X18143Y-33114D01*
X18124Y-33095D01*
X18086Y-33076D01*
X17762Y-33076D01*
X18162Y-32676D02*
X18162Y-32905D01*
X18162Y-32791D02*
X17762Y-32791D01*
X17819Y-32829D01*
X17857Y-32867D01*
X17876Y-32905D01*
G54D10*
X46778Y-67621D02*
X46778Y-67321D01*
X46893Y-67321D01*
X46921Y-67336D01*
X46936Y-67350D01*
X46950Y-67379D01*
X46950Y-67421D01*
X46936Y-67450D01*
X46921Y-67464D01*
X46893Y-67479D01*
X46778Y-67479D01*
X47236Y-67621D02*
X47064Y-67621D01*
X47150Y-67621D02*
X47150Y-67321D01*
X47121Y-67364D01*
X47093Y-67393D01*
X47064Y-67407D01*
X46600Y-70607D02*
X46643Y-70621D01*
X46714Y-70621D01*
X46743Y-70607D01*
X46757Y-70593D01*
X46772Y-70564D01*
X46772Y-70536D01*
X46757Y-70507D01*
X46743Y-70493D01*
X46714Y-70479D01*
X46657Y-70464D01*
X46629Y-70450D01*
X46614Y-70436D01*
X46600Y-70407D01*
X46600Y-70379D01*
X46614Y-70350D01*
X46629Y-70336D01*
X46657Y-70321D01*
X46729Y-70321D01*
X46772Y-70336D01*
X46872Y-70321D02*
X46943Y-70621D01*
X47000Y-70407D01*
X47058Y-70621D01*
X47129Y-70321D01*
X47401Y-70621D02*
X47229Y-70621D01*
X47315Y-70621D02*
X47315Y-70321D01*
X47286Y-70364D01*
X47258Y-70393D01*
X47229Y-70407D01*
G54D11*
X34278Y-62621D02*
X34278Y-62321D01*
X34350Y-62321D01*
X34393Y-62336D01*
X34421Y-62364D01*
X34436Y-62393D01*
X34450Y-62450D01*
X34450Y-62493D01*
X34436Y-62550D01*
X34421Y-62579D01*
X34393Y-62607D01*
X34350Y-62621D01*
X34278Y-62621D01*
X34707Y-62321D02*
X34650Y-62321D01*
X34621Y-62336D01*
X34607Y-62350D01*
X34578Y-62393D01*
X34564Y-62450D01*
X34564Y-62564D01*
X34578Y-62593D01*
X34593Y-62607D01*
X34621Y-62621D01*
X34678Y-62621D01*
X34707Y-62607D01*
X34721Y-62593D01*
X34736Y-62564D01*
X34736Y-62493D01*
X34721Y-62464D01*
X34707Y-62450D01*
X34678Y-62436D01*
X34621Y-62436D01*
X34593Y-62450D01*
X34578Y-62464D01*
X34564Y-62493D01*
X16778Y-57121D02*
X16778Y-56821D01*
X16850Y-56821D01*
X16893Y-56836D01*
X16921Y-56864D01*
X16936Y-56893D01*
X16950Y-56950D01*
X16950Y-56993D01*
X16936Y-57050D01*
X16921Y-57079D01*
X16893Y-57107D01*
X16850Y-57121D01*
X16778Y-57121D01*
X17050Y-56821D02*
X17250Y-56821D01*
X17121Y-57121D01*
X34778Y-57121D02*
X34778Y-56821D01*
X34850Y-56821D01*
X34893Y-56836D01*
X34921Y-56864D01*
X34936Y-56893D01*
X34950Y-56950D01*
X34950Y-56993D01*
X34936Y-57050D01*
X34921Y-57079D01*
X34893Y-57107D01*
X34850Y-57121D01*
X34778Y-57121D01*
X35121Y-56950D02*
X35093Y-56936D01*
X35078Y-56921D01*
X35064Y-56893D01*
X35064Y-56879D01*
X35078Y-56850D01*
X35093Y-56836D01*
X35121Y-56821D01*
X35178Y-56821D01*
X35207Y-56836D01*
X35221Y-56850D01*
X35236Y-56879D01*
X35236Y-56893D01*
X35221Y-56921D01*
X35207Y-56936D01*
X35178Y-56950D01*
X35121Y-56950D01*
X35093Y-56964D01*
X35078Y-56979D01*
X35064Y-57007D01*
X35064Y-57064D01*
X35078Y-57093D01*
X35093Y-57107D01*
X35121Y-57121D01*
X35178Y-57121D01*
X35207Y-57107D01*
X35221Y-57093D01*
X35236Y-57064D01*
X35236Y-57007D01*
X35221Y-56979D01*
X35207Y-56964D01*
X35178Y-56950D01*
X21121Y-62222D02*
X20821Y-62222D01*
X20821Y-62150D01*
X20836Y-62107D01*
X20864Y-62079D01*
X20893Y-62064D01*
X20950Y-62050D01*
X20993Y-62050D01*
X21050Y-62064D01*
X21079Y-62079D01*
X21107Y-62107D01*
X21121Y-62150D01*
X21121Y-62222D01*
X21121Y-61907D02*
X21121Y-61850D01*
X21107Y-61822D01*
X21093Y-61807D01*
X21050Y-61779D01*
X20993Y-61764D01*
X20879Y-61764D01*
X20850Y-61779D01*
X20836Y-61793D01*
X20821Y-61822D01*
X20821Y-61879D01*
X20836Y-61907D01*
X20850Y-61922D01*
X20879Y-61936D01*
X20950Y-61936D01*
X20979Y-61922D01*
X20993Y-61907D01*
X21007Y-61879D01*
X21007Y-61822D01*
X20993Y-61793D01*
X20979Y-61779D01*
X20950Y-61764D01*
G54D19*
X31221Y-18922D02*
X30921Y-18922D01*
X30921Y-18850D01*
X30936Y-18807D01*
X30964Y-18779D01*
X30993Y-18764D01*
X31050Y-18750D01*
X31093Y-18750D01*
X31150Y-18764D01*
X31179Y-18779D01*
X31207Y-18807D01*
X31221Y-18850D01*
X31221Y-18922D01*
X31021Y-18493D02*
X31221Y-18493D01*
X30907Y-18564D02*
X31121Y-18636D01*
X31121Y-18450D01*
X29121Y-18193D02*
X29121Y-18336D01*
X28821Y-18336D01*
X28964Y-18093D02*
X28964Y-17993D01*
X29121Y-17950D02*
X29121Y-18093D01*
X28821Y-18093D01*
X28821Y-17950D01*
X29121Y-17822D02*
X28821Y-17822D01*
X28821Y-17750D01*
X28836Y-17707D01*
X28864Y-17679D01*
X28893Y-17664D01*
X28950Y-17650D01*
X28993Y-17650D01*
X29050Y-17664D01*
X29079Y-17679D01*
X29107Y-17707D01*
X29121Y-17750D01*
X29121Y-17822D01*
X09521Y-35522D02*
X09221Y-35522D01*
X09221Y-35450D01*
X09236Y-35407D01*
X09264Y-35379D01*
X09293Y-35364D01*
X09350Y-35350D01*
X09393Y-35350D01*
X09450Y-35364D01*
X09479Y-35379D01*
X09507Y-35407D01*
X09521Y-35450D01*
X09521Y-35522D01*
X09250Y-35236D02*
X09236Y-35222D01*
X09221Y-35193D01*
X09221Y-35122D01*
X09236Y-35093D01*
X09250Y-35079D01*
X09279Y-35064D01*
X09307Y-35064D01*
X09350Y-35079D01*
X09521Y-35250D01*
X09521Y-35064D01*
X11621Y-36193D02*
X11621Y-36336D01*
X11321Y-36336D01*
X11464Y-36093D02*
X11464Y-35993D01*
X11621Y-35950D02*
X11621Y-36093D01*
X11321Y-36093D01*
X11321Y-35950D01*
X11621Y-35822D02*
X11321Y-35822D01*
X11321Y-35750D01*
X11336Y-35707D01*
X11364Y-35679D01*
X11393Y-35664D01*
X11450Y-35650D01*
X11493Y-35650D01*
X11550Y-35664D01*
X11579Y-35679D01*
X11607Y-35707D01*
X11621Y-35750D01*
X11621Y-35822D01*
X11721Y-30922D02*
X11421Y-30922D01*
X11421Y-30850D01*
X11436Y-30807D01*
X11464Y-30779D01*
X11493Y-30764D01*
X11550Y-30750D01*
X11593Y-30750D01*
X11650Y-30764D01*
X11679Y-30779D01*
X11707Y-30807D01*
X11721Y-30850D01*
X11721Y-30922D01*
X11721Y-30464D02*
X11721Y-30636D01*
X11721Y-30550D02*
X11421Y-30550D01*
X11464Y-30579D01*
X11493Y-30607D01*
X11507Y-30636D01*
X09621Y-30193D02*
X09621Y-30336D01*
X09321Y-30336D01*
X09464Y-30093D02*
X09464Y-29993D01*
X09621Y-29950D02*
X09621Y-30093D01*
X09321Y-30093D01*
X09321Y-29950D01*
X09621Y-29822D02*
X09321Y-29822D01*
X09321Y-29750D01*
X09336Y-29707D01*
X09364Y-29679D01*
X09393Y-29664D01*
X09450Y-29650D01*
X09493Y-29650D01*
X09550Y-29664D01*
X09579Y-29679D01*
X09607Y-29707D01*
X09621Y-29750D01*
X09621Y-29822D01*
X48471Y-19172D02*
X48171Y-19172D01*
X48171Y-19100D01*
X48186Y-19057D01*
X48214Y-19029D01*
X48243Y-19014D01*
X48300Y-19000D01*
X48343Y-19000D01*
X48400Y-19014D01*
X48429Y-19029D01*
X48457Y-19057D01*
X48471Y-19100D01*
X48471Y-19172D01*
X48171Y-18729D02*
X48171Y-18872D01*
X48314Y-18886D01*
X48300Y-18872D01*
X48286Y-18843D01*
X48286Y-18772D01*
X48300Y-18743D01*
X48314Y-18729D01*
X48343Y-18714D01*
X48414Y-18714D01*
X48443Y-18729D01*
X48457Y-18743D01*
X48471Y-18772D01*
X48471Y-18843D01*
X48457Y-18872D01*
X48443Y-18886D01*
X46371Y-18443D02*
X46371Y-18586D01*
X46071Y-18586D01*
X46214Y-18343D02*
X46214Y-18243D01*
X46371Y-18200D02*
X46371Y-18343D01*
X46071Y-18343D01*
X46071Y-18200D01*
X46371Y-18072D02*
X46071Y-18072D01*
X46071Y-18000D01*
X46086Y-17957D01*
X46114Y-17929D01*
X46143Y-17914D01*
X46200Y-17900D01*
X46243Y-17900D01*
X46300Y-17914D01*
X46329Y-17929D01*
X46357Y-17957D01*
X46371Y-18000D01*
X46371Y-18072D01*
G54D11*
X25121Y-66050D02*
X25121Y-66193D01*
X24821Y-66193D01*
X24921Y-65821D02*
X25121Y-65821D01*
X24807Y-65892D02*
X25021Y-65964D01*
X25021Y-65778D01*
X23850Y-66521D02*
X23836Y-66507D01*
X23821Y-66478D01*
X23821Y-66407D01*
X23836Y-66378D01*
X23850Y-66364D01*
X23879Y-66349D01*
X23907Y-66349D01*
X23950Y-66364D01*
X24121Y-66535D01*
X24121Y-66349D01*
X23821Y-66078D02*
X23821Y-66221D01*
X23964Y-66235D01*
X23950Y-66221D01*
X23936Y-66192D01*
X23936Y-66121D01*
X23950Y-66092D01*
X23964Y-66078D01*
X23993Y-66063D01*
X24064Y-66063D01*
X24093Y-66078D01*
X24107Y-66092D01*
X24121Y-66121D01*
X24121Y-66192D01*
X24107Y-66221D01*
X24093Y-66235D01*
X23921Y-65806D02*
X24121Y-65806D01*
X23921Y-65935D02*
X24079Y-65935D01*
X24107Y-65920D01*
X24121Y-65892D01*
X24121Y-65849D01*
X24107Y-65820D01*
X24093Y-65806D01*
X24121Y-65664D02*
X23821Y-65664D01*
X23964Y-65664D02*
X23964Y-65492D01*
X24121Y-65492D02*
X23821Y-65492D01*
X16628Y-60321D02*
X16628Y-60564D01*
X16643Y-60593D01*
X16657Y-60607D01*
X16686Y-60621D01*
X16743Y-60621D01*
X16771Y-60607D01*
X16786Y-60593D01*
X16800Y-60564D01*
X16800Y-60321D01*
X17100Y-60621D02*
X16928Y-60621D01*
X17014Y-60621D02*
X17014Y-60321D01*
X16985Y-60364D01*
X16957Y-60393D01*
X16928Y-60407D01*
X17286Y-60321D02*
X17314Y-60321D01*
X17343Y-60336D01*
X17357Y-60350D01*
X17371Y-60379D01*
X17386Y-60436D01*
X17386Y-60507D01*
X17371Y-60564D01*
X17357Y-60593D01*
X17343Y-60607D01*
X17314Y-60621D01*
X17286Y-60621D01*
X17257Y-60607D01*
X17243Y-60593D01*
X17228Y-60564D01*
X17214Y-60507D01*
X17214Y-60436D01*
X17228Y-60379D01*
X17243Y-60350D01*
X17257Y-60336D01*
X17286Y-60321D01*
X16621Y-63594D02*
X16621Y-63737D01*
X16321Y-63737D01*
X16321Y-63536D02*
X16321Y-63365D01*
X16621Y-63451D02*
X16321Y-63451D01*
X16621Y-63107D02*
X16621Y-63279D01*
X16621Y-63193D02*
X16321Y-63193D01*
X16364Y-63222D01*
X16393Y-63250D01*
X16407Y-63279D01*
X16621Y-62821D02*
X16621Y-62993D01*
X16621Y-62907D02*
X16321Y-62907D01*
X16364Y-62936D01*
X16393Y-62964D01*
X16407Y-62993D01*
X16321Y-62721D02*
X16321Y-62521D01*
X16621Y-62650D01*
X16321Y-62278D02*
X16321Y-62335D01*
X16336Y-62364D01*
X16350Y-62378D01*
X16393Y-62407D01*
X16450Y-62421D01*
X16564Y-62421D01*
X16593Y-62407D01*
X16607Y-62392D01*
X16621Y-62364D01*
X16621Y-62307D01*
X16607Y-62278D01*
X16593Y-62264D01*
X16564Y-62249D01*
X16493Y-62249D01*
X16464Y-62264D01*
X16450Y-62278D01*
X16436Y-62307D01*
X16436Y-62364D01*
X16450Y-62392D01*
X16464Y-62407D01*
X16493Y-62421D01*
X31771Y-64321D02*
X31771Y-64564D01*
X31786Y-64593D01*
X31800Y-64607D01*
X31829Y-64621D01*
X31886Y-64621D01*
X31914Y-64607D01*
X31929Y-64593D01*
X31943Y-64564D01*
X31943Y-64321D01*
X32214Y-64321D02*
X32157Y-64321D01*
X32128Y-64336D01*
X32114Y-64350D01*
X32085Y-64393D01*
X32071Y-64450D01*
X32071Y-64564D01*
X32085Y-64593D01*
X32100Y-64607D01*
X32128Y-64621D01*
X32185Y-64621D01*
X32214Y-64607D01*
X32228Y-64593D01*
X32243Y-64564D01*
X32243Y-64493D01*
X32228Y-64464D01*
X32214Y-64450D01*
X32185Y-64436D01*
X32128Y-64436D01*
X32100Y-64450D01*
X32085Y-64464D01*
X32071Y-64493D01*
X33121Y-67594D02*
X33121Y-67737D01*
X32821Y-67737D01*
X32821Y-67536D02*
X32821Y-67365D01*
X33121Y-67451D02*
X32821Y-67451D01*
X33121Y-67107D02*
X33121Y-67279D01*
X33121Y-67193D02*
X32821Y-67193D01*
X32864Y-67222D01*
X32893Y-67250D01*
X32907Y-67279D01*
X33121Y-66821D02*
X33121Y-66993D01*
X33121Y-66907D02*
X32821Y-66907D01*
X32864Y-66936D01*
X32893Y-66964D01*
X32907Y-66993D01*
X32821Y-66721D02*
X32821Y-66521D01*
X33121Y-66650D01*
X32821Y-66278D02*
X32821Y-66335D01*
X32836Y-66364D01*
X32850Y-66378D01*
X32893Y-66407D01*
X32950Y-66421D01*
X33064Y-66421D01*
X33093Y-66407D01*
X33107Y-66392D01*
X33121Y-66364D01*
X33121Y-66307D01*
X33107Y-66278D01*
X33093Y-66264D01*
X33064Y-66249D01*
X32993Y-66249D01*
X32964Y-66264D01*
X32950Y-66278D01*
X32936Y-66307D01*
X32936Y-66364D01*
X32950Y-66392D01*
X32964Y-66407D01*
X32993Y-66421D01*
X24821Y-30729D02*
X25064Y-30729D01*
X25093Y-30714D01*
X25107Y-30700D01*
X25121Y-30671D01*
X25121Y-30614D01*
X25107Y-30586D01*
X25093Y-30571D01*
X25064Y-30557D01*
X24821Y-30557D01*
X24850Y-30429D02*
X24836Y-30415D01*
X24821Y-30386D01*
X24821Y-30315D01*
X24836Y-30286D01*
X24850Y-30272D01*
X24879Y-30257D01*
X24907Y-30257D01*
X24950Y-30272D01*
X25121Y-30443D01*
X25121Y-30257D01*
X25121Y-41037D02*
X24821Y-41037D01*
X24821Y-40922D01*
X24836Y-40894D01*
X24850Y-40879D01*
X24879Y-40865D01*
X24921Y-40865D01*
X24950Y-40879D01*
X24964Y-40894D01*
X24979Y-40922D01*
X24979Y-41037D01*
X25121Y-40737D02*
X24821Y-40737D01*
X25093Y-40422D02*
X25107Y-40436D01*
X25121Y-40479D01*
X25121Y-40508D01*
X25107Y-40551D01*
X25079Y-40579D01*
X25050Y-40594D01*
X24993Y-40608D01*
X24950Y-40608D01*
X24893Y-40594D01*
X24864Y-40579D01*
X24836Y-40551D01*
X24821Y-40508D01*
X24821Y-40479D01*
X24836Y-40436D01*
X24850Y-40422D01*
X24821Y-40322D02*
X24821Y-40136D01*
X24936Y-40236D01*
X24936Y-40194D01*
X24950Y-40165D01*
X24964Y-40151D01*
X24993Y-40136D01*
X25064Y-40136D01*
X25093Y-40151D01*
X25107Y-40165D01*
X25121Y-40194D01*
X25121Y-40279D01*
X25107Y-40308D01*
X25093Y-40322D01*
X24850Y-40022D02*
X24836Y-40008D01*
X24821Y-39979D01*
X24821Y-39908D01*
X24836Y-39879D01*
X24850Y-39865D01*
X24879Y-39850D01*
X24907Y-39850D01*
X24950Y-39865D01*
X25121Y-40036D01*
X25121Y-39850D01*
X25121Y-39722D02*
X24821Y-39722D01*
X25036Y-39622D01*
X24821Y-39522D01*
X25121Y-39522D01*
X24821Y-39407D02*
X25121Y-39207D01*
X24821Y-39207D02*
X25121Y-39407D01*
X24850Y-39107D02*
X24836Y-39093D01*
X24821Y-39064D01*
X24821Y-38993D01*
X24836Y-38964D01*
X24850Y-38950D01*
X24879Y-38935D01*
X24907Y-38935D01*
X24950Y-38950D01*
X25121Y-39121D01*
X25121Y-38935D01*
X24821Y-38664D02*
X24821Y-38807D01*
X24964Y-38821D01*
X24950Y-38807D01*
X24936Y-38778D01*
X24936Y-38707D01*
X24950Y-38678D01*
X24964Y-38664D01*
X24993Y-38649D01*
X25064Y-38649D01*
X25093Y-38664D01*
X25107Y-38678D01*
X25121Y-38707D01*
X25121Y-38778D01*
X25107Y-38807D01*
X25093Y-38821D01*
X24821Y-38463D02*
X24821Y-38435D01*
X24836Y-38406D01*
X24850Y-38392D01*
X24879Y-38378D01*
X24936Y-38363D01*
X25007Y-38363D01*
X25064Y-38378D01*
X25093Y-38392D01*
X25107Y-38406D01*
X25121Y-38435D01*
X25121Y-38463D01*
X25107Y-38492D01*
X25093Y-38506D01*
X25064Y-38521D01*
X25007Y-38535D01*
X24936Y-38535D01*
X24879Y-38521D01*
X24850Y-38506D01*
X24836Y-38492D01*
X24821Y-38463D01*
X24964Y-38135D02*
X24964Y-38235D01*
X25121Y-38235D02*
X24821Y-38235D01*
X24821Y-38092D01*
X25121Y-37820D02*
X25121Y-37992D01*
X25121Y-37906D02*
X24821Y-37906D01*
X24864Y-37935D01*
X24893Y-37963D01*
X24907Y-37992D01*
X24850Y-37706D02*
X24836Y-37692D01*
X24821Y-37663D01*
X24821Y-37592D01*
X24836Y-37563D01*
X24850Y-37549D01*
X24879Y-37534D01*
X24907Y-37534D01*
X24950Y-37549D01*
X25121Y-37720D01*
X25121Y-37534D01*
X24950Y-37363D02*
X24936Y-37391D01*
X24921Y-37406D01*
X24893Y-37420D01*
X24879Y-37420D01*
X24850Y-37406D01*
X24836Y-37391D01*
X24821Y-37363D01*
X24821Y-37306D01*
X24836Y-37277D01*
X24850Y-37263D01*
X24879Y-37248D01*
X24893Y-37248D01*
X24921Y-37263D01*
X24936Y-37277D01*
X24950Y-37306D01*
X24950Y-37363D01*
X24964Y-37391D01*
X24979Y-37406D01*
X25007Y-37420D01*
X25064Y-37420D01*
X25093Y-37406D01*
X25107Y-37391D01*
X25121Y-37363D01*
X25121Y-37306D01*
X25107Y-37277D01*
X25093Y-37263D01*
X25064Y-37248D01*
X25007Y-37248D01*
X24979Y-37263D01*
X24964Y-37277D01*
X24950Y-37306D01*
X24964Y-37020D02*
X24979Y-36977D01*
X24993Y-36962D01*
X25021Y-36948D01*
X25064Y-36948D01*
X25093Y-36962D01*
X25107Y-36977D01*
X25121Y-37005D01*
X25121Y-37120D01*
X24821Y-37120D01*
X24821Y-37020D01*
X24836Y-36991D01*
X24850Y-36977D01*
X24879Y-36962D01*
X24907Y-36962D01*
X24936Y-36977D01*
X24950Y-36991D01*
X24964Y-37020D01*
X24964Y-37120D01*
X21900Y-13821D02*
X21900Y-14036D01*
X21886Y-14079D01*
X21857Y-14107D01*
X21814Y-14121D01*
X21786Y-14121D01*
X22201Y-14121D02*
X22029Y-14121D01*
X22115Y-14121D02*
X22115Y-13821D01*
X22086Y-13864D01*
X22058Y-13893D01*
X22029Y-13907D01*
X21628Y-16621D02*
X21628Y-16321D01*
X21700Y-16321D01*
X21743Y-16336D01*
X21771Y-16364D01*
X21786Y-16393D01*
X21800Y-16450D01*
X21800Y-16493D01*
X21786Y-16550D01*
X21771Y-16579D01*
X21743Y-16607D01*
X21700Y-16621D01*
X21628Y-16621D01*
X22028Y-16464D02*
X22071Y-16479D01*
X22086Y-16493D01*
X22100Y-16521D01*
X22100Y-16564D01*
X22086Y-16593D01*
X22071Y-16607D01*
X22043Y-16621D01*
X21928Y-16621D01*
X21928Y-16321D01*
X22028Y-16321D01*
X22057Y-16336D01*
X22071Y-16350D01*
X22086Y-16379D01*
X22086Y-16407D01*
X22071Y-16436D01*
X22057Y-16450D01*
X22028Y-16464D01*
X21928Y-16464D01*
X22243Y-16621D02*
X22300Y-16621D01*
X22328Y-16607D01*
X22343Y-16593D01*
X22371Y-16550D01*
X22386Y-16493D01*
X22386Y-16379D01*
X22371Y-16350D01*
X22357Y-16336D01*
X22328Y-16321D01*
X22271Y-16321D01*
X22243Y-16336D01*
X22228Y-16350D01*
X22214Y-16379D01*
X22214Y-16450D01*
X22228Y-16479D01*
X22243Y-16493D01*
X22271Y-16507D01*
X22328Y-16507D01*
X22357Y-16493D01*
X22371Y-16479D01*
X22386Y-16450D01*
X47121Y-51050D02*
X47121Y-51193D01*
X46821Y-51193D01*
X46821Y-50978D02*
X46821Y-50792D01*
X46936Y-50892D01*
X46936Y-50850D01*
X46950Y-50821D01*
X46964Y-50807D01*
X46993Y-50792D01*
X47064Y-50792D01*
X47093Y-50807D01*
X47107Y-50821D01*
X47121Y-50850D01*
X47121Y-50935D01*
X47107Y-50964D01*
X47093Y-50978D01*
X46821Y-48364D02*
X46821Y-48507D01*
X46964Y-48521D01*
X46950Y-48507D01*
X46936Y-48478D01*
X46936Y-48407D01*
X46950Y-48378D01*
X46964Y-48364D01*
X46993Y-48349D01*
X47064Y-48349D01*
X47093Y-48364D01*
X47107Y-48378D01*
X47121Y-48407D01*
X47121Y-48478D01*
X47107Y-48507D01*
X47093Y-48521D01*
X46821Y-48163D02*
X46821Y-48135D01*
X46836Y-48106D01*
X46850Y-48092D01*
X46879Y-48078D01*
X46936Y-48063D01*
X47007Y-48063D01*
X47064Y-48078D01*
X47093Y-48092D01*
X47107Y-48106D01*
X47121Y-48135D01*
X47121Y-48163D01*
X47107Y-48192D01*
X47093Y-48206D01*
X47064Y-48221D01*
X47007Y-48235D01*
X46936Y-48235D01*
X46879Y-48221D01*
X46850Y-48206D01*
X46836Y-48192D01*
X46821Y-48163D01*
X46921Y-47806D02*
X47121Y-47806D01*
X46921Y-47935D02*
X47079Y-47935D01*
X47107Y-47920D01*
X47121Y-47892D01*
X47121Y-47849D01*
X47107Y-47820D01*
X47093Y-47806D01*
X47121Y-47664D02*
X46821Y-47664D01*
X46964Y-47664D02*
X46964Y-47492D01*
X47121Y-47492D02*
X46821Y-47492D01*
X29121Y-51050D02*
X29121Y-51193D01*
X28821Y-51193D01*
X28850Y-50964D02*
X28836Y-50950D01*
X28821Y-50921D01*
X28821Y-50850D01*
X28836Y-50821D01*
X28850Y-50807D01*
X28879Y-50792D01*
X28907Y-50792D01*
X28950Y-50807D01*
X29121Y-50978D01*
X29121Y-50792D01*
X28821Y-48364D02*
X28821Y-48507D01*
X28964Y-48521D01*
X28950Y-48507D01*
X28936Y-48478D01*
X28936Y-48407D01*
X28950Y-48378D01*
X28964Y-48364D01*
X28993Y-48349D01*
X29064Y-48349D01*
X29093Y-48364D01*
X29107Y-48378D01*
X29121Y-48407D01*
X29121Y-48478D01*
X29107Y-48507D01*
X29093Y-48521D01*
X28821Y-48163D02*
X28821Y-48135D01*
X28836Y-48106D01*
X28850Y-48092D01*
X28879Y-48078D01*
X28936Y-48063D01*
X29007Y-48063D01*
X29064Y-48078D01*
X29093Y-48092D01*
X29107Y-48106D01*
X29121Y-48135D01*
X29121Y-48163D01*
X29107Y-48192D01*
X29093Y-48206D01*
X29064Y-48221D01*
X29007Y-48235D01*
X28936Y-48235D01*
X28879Y-48221D01*
X28850Y-48206D01*
X28836Y-48192D01*
X28821Y-48163D01*
X28921Y-47806D02*
X29121Y-47806D01*
X28921Y-47935D02*
X29079Y-47935D01*
X29107Y-47920D01*
X29121Y-47892D01*
X29121Y-47849D01*
X29107Y-47820D01*
X29093Y-47806D01*
X29121Y-47664D02*
X28821Y-47664D01*
X28964Y-47664D02*
X28964Y-47492D01*
X29121Y-47492D02*
X28821Y-47492D01*
X44621Y-66550D02*
X44621Y-66693D01*
X44321Y-66693D01*
X44621Y-66292D02*
X44621Y-66464D01*
X44621Y-66378D02*
X44321Y-66378D01*
X44364Y-66407D01*
X44393Y-66435D01*
X44407Y-66464D01*
X44621Y-63492D02*
X44621Y-63664D01*
X44621Y-63578D02*
X44321Y-63578D01*
X44364Y-63607D01*
X44393Y-63635D01*
X44407Y-63664D01*
X44321Y-63306D02*
X44321Y-63278D01*
X44336Y-63249D01*
X44350Y-63235D01*
X44379Y-63221D01*
X44436Y-63206D01*
X44507Y-63206D01*
X44564Y-63221D01*
X44593Y-63235D01*
X44607Y-63249D01*
X44621Y-63278D01*
X44621Y-63306D01*
X44607Y-63335D01*
X44593Y-63349D01*
X44564Y-63364D01*
X44507Y-63378D01*
X44436Y-63378D01*
X44379Y-63364D01*
X44350Y-63349D01*
X44336Y-63335D01*
X44321Y-63306D01*
X44321Y-63020D02*
X44321Y-62992D01*
X44336Y-62963D01*
X44350Y-62949D01*
X44379Y-62935D01*
X44436Y-62920D01*
X44507Y-62920D01*
X44564Y-62935D01*
X44593Y-62949D01*
X44607Y-62963D01*
X44621Y-62992D01*
X44621Y-63020D01*
X44607Y-63049D01*
X44593Y-63063D01*
X44564Y-63078D01*
X44507Y-63092D01*
X44436Y-63092D01*
X44379Y-63078D01*
X44350Y-63063D01*
X44336Y-63049D01*
X44321Y-63020D01*
X44421Y-62663D02*
X44621Y-62663D01*
X44421Y-62792D02*
X44579Y-62792D01*
X44607Y-62777D01*
X44621Y-62749D01*
X44621Y-62706D01*
X44607Y-62677D01*
X44593Y-62663D01*
X44621Y-62521D02*
X44321Y-62521D01*
X44464Y-62521D02*
X44464Y-62349D01*
X44621Y-62349D02*
X44321Y-62349D01*
X11593Y-56193D02*
X11607Y-56207D01*
X11621Y-56250D01*
X11621Y-56279D01*
X11607Y-56322D01*
X11579Y-56350D01*
X11550Y-56365D01*
X11493Y-56379D01*
X11450Y-56379D01*
X11393Y-56365D01*
X11364Y-56350D01*
X11336Y-56322D01*
X11321Y-56279D01*
X11321Y-56250D01*
X11336Y-56207D01*
X11350Y-56193D01*
X11621Y-55907D02*
X11621Y-56079D01*
X11621Y-55993D02*
X11321Y-55993D01*
X11364Y-56022D01*
X11393Y-56050D01*
X11407Y-56079D01*
X11350Y-55793D02*
X11336Y-55779D01*
X11321Y-55750D01*
X11321Y-55679D01*
X11336Y-55650D01*
X11350Y-55636D01*
X11379Y-55621D01*
X11407Y-55621D01*
X11450Y-55636D01*
X11621Y-55807D01*
X11621Y-55621D01*
X13121Y-55964D02*
X13121Y-56136D01*
X13121Y-56050D02*
X12821Y-56050D01*
X12864Y-56079D01*
X12893Y-56107D01*
X12907Y-56136D01*
X12821Y-55778D02*
X12821Y-55750D01*
X12836Y-55721D01*
X12850Y-55707D01*
X12879Y-55693D01*
X12936Y-55678D01*
X13007Y-55678D01*
X13064Y-55693D01*
X13093Y-55707D01*
X13107Y-55721D01*
X13121Y-55750D01*
X13121Y-55778D01*
X13107Y-55807D01*
X13093Y-55821D01*
X13064Y-55836D01*
X13007Y-55850D01*
X12936Y-55850D01*
X12879Y-55836D01*
X12850Y-55821D01*
X12836Y-55807D01*
X12821Y-55778D01*
X12821Y-55492D02*
X12821Y-55464D01*
X12836Y-55435D01*
X12850Y-55421D01*
X12879Y-55407D01*
X12936Y-55392D01*
X13007Y-55392D01*
X13064Y-55407D01*
X13093Y-55421D01*
X13107Y-55435D01*
X13121Y-55464D01*
X13121Y-55492D01*
X13107Y-55521D01*
X13093Y-55535D01*
X13064Y-55550D01*
X13007Y-55564D01*
X12936Y-55564D01*
X12879Y-55550D01*
X12850Y-55535D01*
X12836Y-55521D01*
X12821Y-55492D01*
X12921Y-55135D02*
X13121Y-55135D01*
X12921Y-55264D02*
X13079Y-55264D01*
X13107Y-55249D01*
X13121Y-55221D01*
X13121Y-55178D01*
X13107Y-55149D01*
X13093Y-55135D01*
X12964Y-54893D02*
X12964Y-54993D01*
X13121Y-54993D02*
X12821Y-54993D01*
X12821Y-54850D01*
X29093Y-56193D02*
X29107Y-56207D01*
X29121Y-56250D01*
X29121Y-56279D01*
X29107Y-56322D01*
X29079Y-56350D01*
X29050Y-56365D01*
X28993Y-56379D01*
X28950Y-56379D01*
X28893Y-56365D01*
X28864Y-56350D01*
X28836Y-56322D01*
X28821Y-56279D01*
X28821Y-56250D01*
X28836Y-56207D01*
X28850Y-56193D01*
X29121Y-55907D02*
X29121Y-56079D01*
X29121Y-55993D02*
X28821Y-55993D01*
X28864Y-56022D01*
X28893Y-56050D01*
X28907Y-56079D01*
X28821Y-55807D02*
X28821Y-55621D01*
X28936Y-55721D01*
X28936Y-55679D01*
X28950Y-55650D01*
X28964Y-55636D01*
X28993Y-55621D01*
X29064Y-55621D01*
X29093Y-55636D01*
X29107Y-55650D01*
X29121Y-55679D01*
X29121Y-55764D01*
X29107Y-55793D01*
X29093Y-55807D01*
X31121Y-56464D02*
X31121Y-56636D01*
X31121Y-56550D02*
X30821Y-56550D01*
X30864Y-56579D01*
X30893Y-56607D01*
X30907Y-56636D01*
X30821Y-56278D02*
X30821Y-56250D01*
X30836Y-56221D01*
X30850Y-56207D01*
X30879Y-56193D01*
X30936Y-56178D01*
X31007Y-56178D01*
X31064Y-56193D01*
X31093Y-56207D01*
X31107Y-56221D01*
X31121Y-56250D01*
X31121Y-56278D01*
X31107Y-56307D01*
X31093Y-56321D01*
X31064Y-56336D01*
X31007Y-56350D01*
X30936Y-56350D01*
X30879Y-56336D01*
X30850Y-56321D01*
X30836Y-56307D01*
X30821Y-56278D01*
X30821Y-55992D02*
X30821Y-55964D01*
X30836Y-55935D01*
X30850Y-55921D01*
X30879Y-55907D01*
X30936Y-55892D01*
X31007Y-55892D01*
X31064Y-55907D01*
X31093Y-55921D01*
X31107Y-55935D01*
X31121Y-55964D01*
X31121Y-55992D01*
X31107Y-56021D01*
X31093Y-56035D01*
X31064Y-56050D01*
X31007Y-56064D01*
X30936Y-56064D01*
X30879Y-56050D01*
X30850Y-56035D01*
X30836Y-56021D01*
X30821Y-55992D01*
X30921Y-55635D02*
X31121Y-55635D01*
X30921Y-55764D02*
X31079Y-55764D01*
X31107Y-55749D01*
X31121Y-55721D01*
X31121Y-55678D01*
X31107Y-55649D01*
X31093Y-55635D01*
X30964Y-55393D02*
X30964Y-55493D01*
X31121Y-55493D02*
X30821Y-55493D01*
X30821Y-55350D01*
X23807Y-55093D02*
X23793Y-55107D01*
X23750Y-55121D01*
X23721Y-55121D01*
X23678Y-55107D01*
X23650Y-55079D01*
X23635Y-55050D01*
X23621Y-54993D01*
X23621Y-54950D01*
X23635Y-54893D01*
X23650Y-54864D01*
X23678Y-54836D01*
X23721Y-54821D01*
X23750Y-54821D01*
X23793Y-54836D01*
X23807Y-54850D01*
X24093Y-55121D02*
X23921Y-55121D01*
X24007Y-55121D02*
X24007Y-54821D01*
X23978Y-54864D01*
X23950Y-54893D01*
X23921Y-54907D01*
X24350Y-54821D02*
X24293Y-54821D01*
X24264Y-54836D01*
X24250Y-54850D01*
X24221Y-54893D01*
X24207Y-54950D01*
X24207Y-55064D01*
X24221Y-55093D01*
X24236Y-55107D01*
X24264Y-55121D01*
X24321Y-55121D01*
X24350Y-55107D01*
X24364Y-55093D01*
X24379Y-55064D01*
X24379Y-54993D01*
X24364Y-54964D01*
X24350Y-54950D01*
X24321Y-54936D01*
X24264Y-54936D01*
X24236Y-54950D01*
X24221Y-54964D01*
X24207Y-54993D01*
X23507Y-56921D02*
X23507Y-57121D01*
X23436Y-56807D02*
X23364Y-57021D01*
X23550Y-57021D01*
X23636Y-56821D02*
X23836Y-56821D01*
X23707Y-57121D01*
X24008Y-56821D02*
X24036Y-56821D01*
X24065Y-56836D01*
X24079Y-56850D01*
X24093Y-56879D01*
X24108Y-56936D01*
X24108Y-57007D01*
X24093Y-57064D01*
X24079Y-57093D01*
X24065Y-57107D01*
X24036Y-57121D01*
X24008Y-57121D01*
X23979Y-57107D01*
X23965Y-57093D01*
X23950Y-57064D01*
X23936Y-57007D01*
X23936Y-56936D01*
X23950Y-56879D01*
X23965Y-56850D01*
X23979Y-56836D01*
X24008Y-56821D01*
X24365Y-56921D02*
X24365Y-57121D01*
X24236Y-56921D02*
X24236Y-57079D01*
X24251Y-57107D01*
X24279Y-57121D01*
X24322Y-57121D01*
X24351Y-57107D01*
X24365Y-57093D01*
X24607Y-56964D02*
X24507Y-56964D01*
X24507Y-57121D02*
X24507Y-56821D01*
X24650Y-56821D01*
X38593Y-71693D02*
X38607Y-71707D01*
X38621Y-71750D01*
X38621Y-71779D01*
X38607Y-71822D01*
X38579Y-71850D01*
X38550Y-71865D01*
X38493Y-71879D01*
X38450Y-71879D01*
X38393Y-71865D01*
X38364Y-71850D01*
X38336Y-71822D01*
X38321Y-71779D01*
X38321Y-71750D01*
X38336Y-71707D01*
X38350Y-71693D01*
X38621Y-71407D02*
X38621Y-71579D01*
X38621Y-71493D02*
X38321Y-71493D01*
X38364Y-71522D01*
X38393Y-71550D01*
X38407Y-71579D01*
X38621Y-71121D02*
X38621Y-71293D01*
X38621Y-71207D02*
X38321Y-71207D01*
X38364Y-71236D01*
X38393Y-71264D01*
X38407Y-71293D01*
X36421Y-71993D02*
X36621Y-71993D01*
X36307Y-72064D02*
X36521Y-72136D01*
X36521Y-71950D01*
X36321Y-71864D02*
X36321Y-71664D01*
X36621Y-71793D01*
X36321Y-71492D02*
X36321Y-71464D01*
X36336Y-71435D01*
X36350Y-71421D01*
X36379Y-71407D01*
X36436Y-71392D01*
X36507Y-71392D01*
X36564Y-71407D01*
X36593Y-71421D01*
X36607Y-71435D01*
X36621Y-71464D01*
X36621Y-71492D01*
X36607Y-71521D01*
X36593Y-71535D01*
X36564Y-71550D01*
X36507Y-71564D01*
X36436Y-71564D01*
X36379Y-71550D01*
X36350Y-71535D01*
X36336Y-71521D01*
X36321Y-71492D01*
X36421Y-71135D02*
X36621Y-71135D01*
X36421Y-71264D02*
X36579Y-71264D01*
X36607Y-71249D01*
X36621Y-71221D01*
X36621Y-71178D01*
X36607Y-71149D01*
X36593Y-71135D01*
X36464Y-70893D02*
X36464Y-70993D01*
X36621Y-70993D02*
X36321Y-70993D01*
X36321Y-70850D01*
X41807Y-55093D02*
X41793Y-55107D01*
X41750Y-55121D01*
X41721Y-55121D01*
X41678Y-55107D01*
X41650Y-55079D01*
X41635Y-55050D01*
X41621Y-54993D01*
X41621Y-54950D01*
X41635Y-54893D01*
X41650Y-54864D01*
X41678Y-54836D01*
X41721Y-54821D01*
X41750Y-54821D01*
X41793Y-54836D01*
X41807Y-54850D01*
X42093Y-55121D02*
X41921Y-55121D01*
X42007Y-55121D02*
X42007Y-54821D01*
X41978Y-54864D01*
X41950Y-54893D01*
X41921Y-54907D01*
X42193Y-54821D02*
X42393Y-54821D01*
X42264Y-55121D01*
X41507Y-56921D02*
X41507Y-57121D01*
X41436Y-56807D02*
X41364Y-57021D01*
X41550Y-57021D01*
X41636Y-56821D02*
X41836Y-56821D01*
X41707Y-57121D01*
X42008Y-56821D02*
X42036Y-56821D01*
X42065Y-56836D01*
X42079Y-56850D01*
X42093Y-56879D01*
X42108Y-56936D01*
X42108Y-57007D01*
X42093Y-57064D01*
X42079Y-57093D01*
X42065Y-57107D01*
X42036Y-57121D01*
X42008Y-57121D01*
X41979Y-57107D01*
X41965Y-57093D01*
X41950Y-57064D01*
X41936Y-57007D01*
X41936Y-56936D01*
X41950Y-56879D01*
X41965Y-56850D01*
X41979Y-56836D01*
X42008Y-56821D01*
X42365Y-56921D02*
X42365Y-57121D01*
X42236Y-56921D02*
X42236Y-57079D01*
X42251Y-57107D01*
X42279Y-57121D01*
X42322Y-57121D01*
X42351Y-57107D01*
X42365Y-57093D01*
X42607Y-56964D02*
X42507Y-56964D01*
X42507Y-57121D02*
X42507Y-56821D01*
X42650Y-56821D01*
X11093Y-69193D02*
X11107Y-69207D01*
X11121Y-69250D01*
X11121Y-69279D01*
X11107Y-69322D01*
X11079Y-69350D01*
X11050Y-69365D01*
X10993Y-69379D01*
X10950Y-69379D01*
X10893Y-69365D01*
X10864Y-69350D01*
X10836Y-69322D01*
X10821Y-69279D01*
X10821Y-69250D01*
X10836Y-69207D01*
X10850Y-69193D01*
X11121Y-68907D02*
X11121Y-69079D01*
X11121Y-68993D02*
X10821Y-68993D01*
X10864Y-69022D01*
X10893Y-69050D01*
X10907Y-69079D01*
X11121Y-68764D02*
X11121Y-68707D01*
X11107Y-68679D01*
X11093Y-68664D01*
X11050Y-68636D01*
X10993Y-68621D01*
X10879Y-68621D01*
X10850Y-68636D01*
X10836Y-68650D01*
X10821Y-68679D01*
X10821Y-68736D01*
X10836Y-68764D01*
X10850Y-68779D01*
X10879Y-68793D01*
X10950Y-68793D01*
X10979Y-68779D01*
X10993Y-68764D01*
X11007Y-68736D01*
X11007Y-68679D01*
X10993Y-68650D01*
X10979Y-68636D01*
X10950Y-68621D01*
X12850Y-69636D02*
X12836Y-69622D01*
X12821Y-69593D01*
X12821Y-69522D01*
X12836Y-69493D01*
X12850Y-69479D01*
X12879Y-69464D01*
X12907Y-69464D01*
X12950Y-69479D01*
X13121Y-69650D01*
X13121Y-69464D01*
X12850Y-69350D02*
X12836Y-69336D01*
X12821Y-69307D01*
X12821Y-69236D01*
X12836Y-69207D01*
X12850Y-69193D01*
X12879Y-69178D01*
X12907Y-69178D01*
X12950Y-69193D01*
X13121Y-69364D01*
X13121Y-69178D01*
X12821Y-68992D02*
X12821Y-68964D01*
X12836Y-68935D01*
X12850Y-68921D01*
X12879Y-68907D01*
X12936Y-68892D01*
X13007Y-68892D01*
X13064Y-68907D01*
X13093Y-68921D01*
X13107Y-68935D01*
X13121Y-68964D01*
X13121Y-68992D01*
X13107Y-69021D01*
X13093Y-69035D01*
X13064Y-69050D01*
X13007Y-69064D01*
X12936Y-69064D01*
X12879Y-69050D01*
X12850Y-69035D01*
X12836Y-69021D01*
X12821Y-68992D01*
X12921Y-68635D02*
X13121Y-68635D01*
X12921Y-68764D02*
X13079Y-68764D01*
X13107Y-68749D01*
X13121Y-68721D01*
X13121Y-68678D01*
X13107Y-68649D01*
X13093Y-68635D01*
X12964Y-68393D02*
X12964Y-68493D01*
X13121Y-68493D02*
X12821Y-68493D01*
X12821Y-68350D01*
X20807Y-69093D02*
X20793Y-69107D01*
X20750Y-69121D01*
X20721Y-69121D01*
X20678Y-69107D01*
X20650Y-69079D01*
X20635Y-69050D01*
X20621Y-68993D01*
X20621Y-68950D01*
X20635Y-68893D01*
X20650Y-68864D01*
X20678Y-68836D01*
X20721Y-68821D01*
X20750Y-68821D01*
X20793Y-68836D01*
X20807Y-68850D01*
X20921Y-68850D02*
X20935Y-68836D01*
X20964Y-68821D01*
X21035Y-68821D01*
X21064Y-68836D01*
X21078Y-68850D01*
X21093Y-68879D01*
X21093Y-68907D01*
X21078Y-68950D01*
X20907Y-69121D01*
X21093Y-69121D01*
X21279Y-68821D02*
X21307Y-68821D01*
X21336Y-68836D01*
X21350Y-68850D01*
X21364Y-68879D01*
X21379Y-68936D01*
X21379Y-69007D01*
X21364Y-69064D01*
X21350Y-69093D01*
X21336Y-69107D01*
X21307Y-69121D01*
X21279Y-69121D01*
X21250Y-69107D01*
X21236Y-69093D01*
X21221Y-69064D01*
X21207Y-69007D01*
X21207Y-68936D01*
X21221Y-68879D01*
X21236Y-68850D01*
X21250Y-68836D01*
X21279Y-68821D01*
X19121Y-69607D02*
X19121Y-69779D01*
X19121Y-69693D02*
X18821Y-69693D01*
X18864Y-69722D01*
X18893Y-69750D01*
X18907Y-69779D01*
X18821Y-69421D02*
X18821Y-69393D01*
X18836Y-69364D01*
X18850Y-69350D01*
X18879Y-69336D01*
X18936Y-69321D01*
X19007Y-69321D01*
X19064Y-69336D01*
X19093Y-69350D01*
X19107Y-69364D01*
X19121Y-69393D01*
X19121Y-69421D01*
X19107Y-69450D01*
X19093Y-69464D01*
X19064Y-69479D01*
X19007Y-69493D01*
X18936Y-69493D01*
X18879Y-69479D01*
X18850Y-69464D01*
X18836Y-69450D01*
X18821Y-69421D01*
X18821Y-69135D02*
X18821Y-69107D01*
X18836Y-69078D01*
X18850Y-69064D01*
X18879Y-69050D01*
X18936Y-69035D01*
X19007Y-69035D01*
X19064Y-69050D01*
X19093Y-69064D01*
X19107Y-69078D01*
X19121Y-69107D01*
X19121Y-69135D01*
X19107Y-69164D01*
X19093Y-69178D01*
X19064Y-69193D01*
X19007Y-69207D01*
X18936Y-69207D01*
X18879Y-69193D01*
X18850Y-69178D01*
X18836Y-69164D01*
X18821Y-69135D01*
X18821Y-68849D02*
X18821Y-68821D01*
X18836Y-68792D01*
X18850Y-68778D01*
X18879Y-68764D01*
X18936Y-68749D01*
X19007Y-68749D01*
X19064Y-68764D01*
X19093Y-68778D01*
X19107Y-68792D01*
X19121Y-68821D01*
X19121Y-68849D01*
X19107Y-68878D01*
X19093Y-68892D01*
X19064Y-68907D01*
X19007Y-68921D01*
X18936Y-68921D01*
X18879Y-68907D01*
X18850Y-68892D01*
X18836Y-68878D01*
X18821Y-68849D01*
X18921Y-68492D02*
X19121Y-68492D01*
X18921Y-68621D02*
X19079Y-68621D01*
X19107Y-68606D01*
X19121Y-68578D01*
X19121Y-68535D01*
X19107Y-68506D01*
X19093Y-68492D01*
X18964Y-68250D02*
X18964Y-68350D01*
X19121Y-68350D02*
X18821Y-68350D01*
X18821Y-68207D01*
X29950Y-64093D02*
X29936Y-64107D01*
X29893Y-64121D01*
X29864Y-64121D01*
X29821Y-64107D01*
X29793Y-64079D01*
X29778Y-64050D01*
X29764Y-63993D01*
X29764Y-63950D01*
X29778Y-63893D01*
X29793Y-63864D01*
X29821Y-63836D01*
X29864Y-63821D01*
X29893Y-63821D01*
X29936Y-63836D01*
X29950Y-63850D01*
X30121Y-63950D02*
X30093Y-63936D01*
X30078Y-63921D01*
X30064Y-63893D01*
X30064Y-63879D01*
X30078Y-63850D01*
X30093Y-63836D01*
X30121Y-63821D01*
X30178Y-63821D01*
X30207Y-63836D01*
X30221Y-63850D01*
X30236Y-63879D01*
X30236Y-63893D01*
X30221Y-63921D01*
X30207Y-63936D01*
X30178Y-63950D01*
X30121Y-63950D01*
X30093Y-63964D01*
X30078Y-63979D01*
X30064Y-64007D01*
X30064Y-64064D01*
X30078Y-64093D01*
X30093Y-64107D01*
X30121Y-64121D01*
X30178Y-64121D01*
X30207Y-64107D01*
X30221Y-64093D01*
X30236Y-64064D01*
X30236Y-64007D01*
X30221Y-63979D01*
X30207Y-63964D01*
X30178Y-63950D01*
X28536Y-62121D02*
X28364Y-62121D01*
X28450Y-62121D02*
X28450Y-61821D01*
X28421Y-61864D01*
X28393Y-61893D01*
X28364Y-61907D01*
X28722Y-61821D02*
X28750Y-61821D01*
X28779Y-61836D01*
X28793Y-61850D01*
X28807Y-61879D01*
X28822Y-61936D01*
X28822Y-62007D01*
X28807Y-62064D01*
X28793Y-62093D01*
X28779Y-62107D01*
X28750Y-62121D01*
X28722Y-62121D01*
X28693Y-62107D01*
X28679Y-62093D01*
X28664Y-62064D01*
X28650Y-62007D01*
X28650Y-61936D01*
X28664Y-61879D01*
X28679Y-61850D01*
X28693Y-61836D01*
X28722Y-61821D01*
X29008Y-61821D02*
X29036Y-61821D01*
X29065Y-61836D01*
X29079Y-61850D01*
X29093Y-61879D01*
X29108Y-61936D01*
X29108Y-62007D01*
X29093Y-62064D01*
X29079Y-62093D01*
X29065Y-62107D01*
X29036Y-62121D01*
X29008Y-62121D01*
X28979Y-62107D01*
X28965Y-62093D01*
X28950Y-62064D01*
X28936Y-62007D01*
X28936Y-61936D01*
X28950Y-61879D01*
X28965Y-61850D01*
X28979Y-61836D01*
X29008Y-61821D01*
X29365Y-61921D02*
X29365Y-62121D01*
X29236Y-61921D02*
X29236Y-62079D01*
X29251Y-62107D01*
X29279Y-62121D01*
X29322Y-62121D01*
X29351Y-62107D01*
X29365Y-62093D01*
X29607Y-61964D02*
X29507Y-61964D01*
X29507Y-62121D02*
X29507Y-61821D01*
X29650Y-61821D01*
X45771Y-60321D02*
X45771Y-60564D01*
X45786Y-60593D01*
X45800Y-60607D01*
X45829Y-60621D01*
X45886Y-60621D01*
X45914Y-60607D01*
X45929Y-60593D01*
X45943Y-60564D01*
X45943Y-60321D01*
X46228Y-60321D02*
X46085Y-60321D01*
X46071Y-60464D01*
X46085Y-60450D01*
X46114Y-60436D01*
X46185Y-60436D01*
X46214Y-60450D01*
X46228Y-60464D01*
X46243Y-60493D01*
X46243Y-60564D01*
X46228Y-60593D01*
X46214Y-60607D01*
X46185Y-60621D01*
X46114Y-60621D01*
X46085Y-60607D01*
X46071Y-60593D01*
G54D10*
X09102Y-41619D02*
X09507Y-41619D01*
X09555Y-41595D01*
X09579Y-41571D01*
X09602Y-41524D01*
X09602Y-41428D01*
X09579Y-41381D01*
X09555Y-41357D01*
X09507Y-41333D01*
X09102Y-41333D01*
X09602Y-40833D02*
X09602Y-41119D01*
X09602Y-40976D02*
X09102Y-40976D01*
X09174Y-41024D01*
X09221Y-41071D01*
X09245Y-41119D01*
X09602Y-40357D02*
X09602Y-40643D01*
X09602Y-40500D02*
X09102Y-40500D01*
X09174Y-40548D01*
X09221Y-40595D01*
X09245Y-40643D01*
X13902Y-41988D02*
X13902Y-42226D01*
X13402Y-42226D01*
X13402Y-41892D02*
X13402Y-41607D01*
X13902Y-41750D02*
X13402Y-41750D01*
X13902Y-41178D02*
X13902Y-41464D01*
X13902Y-41321D02*
X13402Y-41321D01*
X13474Y-41369D01*
X13521Y-41416D01*
X13545Y-41464D01*
X13902Y-40940D02*
X13902Y-40845D01*
X13879Y-40797D01*
X13855Y-40773D01*
X13783Y-40726D01*
X13688Y-40702D01*
X13498Y-40702D01*
X13450Y-40726D01*
X13426Y-40750D01*
X13402Y-40797D01*
X13402Y-40893D01*
X13426Y-40940D01*
X13450Y-40964D01*
X13498Y-40988D01*
X13617Y-40988D01*
X13664Y-40964D01*
X13688Y-40940D01*
X13712Y-40893D01*
X13712Y-40797D01*
X13688Y-40750D01*
X13664Y-40726D01*
X13617Y-40702D01*
X13402Y-40274D02*
X13402Y-40369D01*
X13426Y-40417D01*
X13450Y-40440D01*
X13521Y-40488D01*
X13617Y-40512D01*
X13807Y-40512D01*
X13855Y-40488D01*
X13879Y-40464D01*
X13902Y-40417D01*
X13902Y-40321D01*
X13879Y-40274D01*
X13855Y-40250D01*
X13807Y-40226D01*
X13688Y-40226D01*
X13640Y-40250D01*
X13617Y-40274D01*
X13593Y-40321D01*
X13593Y-40417D01*
X13617Y-40464D01*
X13640Y-40488D01*
X13688Y-40512D01*
X13402Y-39774D02*
X13402Y-40012D01*
X13640Y-40036D01*
X13617Y-40012D01*
X13593Y-39964D01*
X13593Y-39845D01*
X13617Y-39798D01*
X13640Y-39774D01*
X13688Y-39750D01*
X13807Y-39750D01*
X13855Y-39774D01*
X13879Y-39798D01*
X13902Y-39845D01*
X13902Y-39964D01*
X13879Y-40012D01*
X13855Y-40036D01*
G54D11*
X42771Y-69321D02*
X42771Y-69564D01*
X42786Y-69593D01*
X42800Y-69607D01*
X42829Y-69621D01*
X42886Y-69621D01*
X42914Y-69607D01*
X42929Y-69593D01*
X42943Y-69564D01*
X42943Y-69321D01*
X43057Y-69321D02*
X43257Y-69321D01*
X43128Y-69621D01*
X29971Y-31650D02*
X29943Y-31636D01*
X29914Y-31607D01*
X29871Y-31564D01*
X29843Y-31550D01*
X29814Y-31550D01*
X29829Y-31621D02*
X29800Y-31607D01*
X29771Y-31579D01*
X29757Y-31521D01*
X29757Y-31421D01*
X29771Y-31364D01*
X29800Y-31336D01*
X29829Y-31321D01*
X29886Y-31321D01*
X29914Y-31336D01*
X29943Y-31364D01*
X29957Y-31421D01*
X29957Y-31521D01*
X29943Y-31579D01*
X29914Y-31607D01*
X29886Y-31621D01*
X29829Y-31621D01*
X30243Y-31621D02*
X30071Y-31621D01*
X30157Y-31621D02*
X30157Y-31321D01*
X30128Y-31364D01*
X30100Y-31393D01*
X30071Y-31407D01*
X31150Y-22029D02*
X31136Y-22057D01*
X31107Y-22086D01*
X31064Y-22129D01*
X31050Y-22157D01*
X31050Y-22186D01*
X31121Y-22171D02*
X31107Y-22200D01*
X31079Y-22229D01*
X31021Y-22243D01*
X30921Y-22243D01*
X30864Y-22229D01*
X30836Y-22200D01*
X30821Y-22171D01*
X30821Y-22114D01*
X30836Y-22086D01*
X30864Y-22057D01*
X30921Y-22043D01*
X31021Y-22043D01*
X31079Y-22057D01*
X31107Y-22086D01*
X31121Y-22114D01*
X31121Y-22171D01*
X30850Y-21929D02*
X30836Y-21915D01*
X30821Y-21886D01*
X30821Y-21815D01*
X30836Y-21786D01*
X30850Y-21772D01*
X30879Y-21757D01*
X30907Y-21757D01*
X30950Y-21772D01*
X31121Y-21943D01*
X31121Y-21757D01*
X48150Y-22029D02*
X48136Y-22057D01*
X48107Y-22086D01*
X48064Y-22129D01*
X48050Y-22157D01*
X48050Y-22186D01*
X48121Y-22171D02*
X48107Y-22200D01*
X48079Y-22229D01*
X48021Y-22243D01*
X47921Y-22243D01*
X47864Y-22229D01*
X47836Y-22200D01*
X47821Y-22171D01*
X47821Y-22114D01*
X47836Y-22086D01*
X47864Y-22057D01*
X47921Y-22043D01*
X48021Y-22043D01*
X48079Y-22057D01*
X48107Y-22086D01*
X48121Y-22114D01*
X48121Y-22171D01*
X47821Y-21943D02*
X47821Y-21757D01*
X47936Y-21857D01*
X47936Y-21815D01*
X47950Y-21786D01*
X47964Y-21772D01*
X47993Y-21757D01*
X48064Y-21757D01*
X48093Y-21772D01*
X48107Y-21786D01*
X48121Y-21815D01*
X48121Y-21900D01*
X48107Y-21929D01*
X48093Y-21943D01*
X36271Y-46821D02*
X36271Y-47064D01*
X36286Y-47093D01*
X36300Y-47107D01*
X36329Y-47121D01*
X36386Y-47121D01*
X36414Y-47107D01*
X36429Y-47093D01*
X36443Y-47064D01*
X36443Y-46821D01*
X36600Y-47121D02*
X36657Y-47121D01*
X36685Y-47107D01*
X36700Y-47093D01*
X36728Y-47050D01*
X36743Y-46993D01*
X36743Y-46879D01*
X36728Y-46850D01*
X36714Y-46836D01*
X36685Y-46821D01*
X36628Y-46821D01*
X36600Y-46836D01*
X36585Y-46850D01*
X36571Y-46879D01*
X36571Y-46950D01*
X36585Y-46979D01*
X36600Y-46993D01*
X36628Y-47007D01*
X36685Y-47007D01*
X36714Y-46993D01*
X36728Y-46979D01*
X36743Y-46950D01*
X35906Y-47621D02*
X35763Y-47621D01*
X35763Y-47321D01*
X35964Y-47321D02*
X36135Y-47321D01*
X36049Y-47621D02*
X36049Y-47321D01*
X36393Y-47621D02*
X36221Y-47621D01*
X36307Y-47621D02*
X36307Y-47321D01*
X36278Y-47364D01*
X36250Y-47393D01*
X36221Y-47407D01*
X36579Y-47321D02*
X36607Y-47321D01*
X36636Y-47336D01*
X36650Y-47350D01*
X36664Y-47379D01*
X36679Y-47436D01*
X36679Y-47507D01*
X36664Y-47564D01*
X36650Y-47593D01*
X36636Y-47607D01*
X36607Y-47621D01*
X36579Y-47621D01*
X36550Y-47607D01*
X36536Y-47593D01*
X36521Y-47564D01*
X36507Y-47507D01*
X36507Y-47436D01*
X36521Y-47379D01*
X36536Y-47350D01*
X36550Y-47336D01*
X36579Y-47321D01*
X36779Y-47321D02*
X36979Y-47321D01*
X36850Y-47621D01*
X37222Y-47421D02*
X37222Y-47621D01*
X37151Y-47307D02*
X37079Y-47521D01*
X37265Y-47521D01*
X18271Y-46821D02*
X18271Y-47064D01*
X18286Y-47093D01*
X18300Y-47107D01*
X18329Y-47121D01*
X18386Y-47121D01*
X18414Y-47107D01*
X18429Y-47093D01*
X18443Y-47064D01*
X18443Y-46821D01*
X18628Y-46950D02*
X18600Y-46936D01*
X18585Y-46921D01*
X18571Y-46893D01*
X18571Y-46879D01*
X18585Y-46850D01*
X18600Y-46836D01*
X18628Y-46821D01*
X18685Y-46821D01*
X18714Y-46836D01*
X18728Y-46850D01*
X18743Y-46879D01*
X18743Y-46893D01*
X18728Y-46921D01*
X18714Y-46936D01*
X18685Y-46950D01*
X18628Y-46950D01*
X18600Y-46964D01*
X18585Y-46979D01*
X18571Y-47007D01*
X18571Y-47064D01*
X18585Y-47093D01*
X18600Y-47107D01*
X18628Y-47121D01*
X18685Y-47121D01*
X18714Y-47107D01*
X18728Y-47093D01*
X18743Y-47064D01*
X18743Y-47007D01*
X18728Y-46979D01*
X18714Y-46964D01*
X18685Y-46950D01*
X17906Y-47621D02*
X17763Y-47621D01*
X17763Y-47321D01*
X17964Y-47321D02*
X18135Y-47321D01*
X18049Y-47621D02*
X18049Y-47321D01*
X18393Y-47621D02*
X18221Y-47621D01*
X18307Y-47621D02*
X18307Y-47321D01*
X18278Y-47364D01*
X18250Y-47393D01*
X18221Y-47407D01*
X18579Y-47321D02*
X18607Y-47321D01*
X18636Y-47336D01*
X18650Y-47350D01*
X18664Y-47379D01*
X18679Y-47436D01*
X18679Y-47507D01*
X18664Y-47564D01*
X18650Y-47593D01*
X18636Y-47607D01*
X18607Y-47621D01*
X18579Y-47621D01*
X18550Y-47607D01*
X18536Y-47593D01*
X18521Y-47564D01*
X18507Y-47507D01*
X18507Y-47436D01*
X18521Y-47379D01*
X18536Y-47350D01*
X18550Y-47336D01*
X18579Y-47321D01*
X18779Y-47321D02*
X18979Y-47321D01*
X18850Y-47621D01*
X19222Y-47421D02*
X19222Y-47621D01*
X19151Y-47307D02*
X19079Y-47521D01*
X19265Y-47521D01*
X24271Y-23321D02*
X24271Y-23564D01*
X24286Y-23593D01*
X24300Y-23607D01*
X24329Y-23621D01*
X24386Y-23621D01*
X24414Y-23607D01*
X24429Y-23593D01*
X24443Y-23564D01*
X24443Y-23321D01*
X24557Y-23321D02*
X24743Y-23321D01*
X24643Y-23436D01*
X24685Y-23436D01*
X24714Y-23450D01*
X24728Y-23464D01*
X24743Y-23493D01*
X24743Y-23564D01*
X24728Y-23593D01*
X24714Y-23607D01*
X24685Y-23621D01*
X24600Y-23621D01*
X24571Y-23607D01*
X24557Y-23593D01*
X37771Y-42821D02*
X37771Y-43064D01*
X37786Y-43093D01*
X37800Y-43107D01*
X37829Y-43121D01*
X37886Y-43121D01*
X37914Y-43107D01*
X37929Y-43093D01*
X37943Y-43064D01*
X37943Y-42821D01*
X38214Y-42921D02*
X38214Y-43121D01*
X38143Y-42807D02*
X38071Y-43021D01*
X38257Y-43021D01*
M02*
