G04 (created by PCBNEW-RS274X (2011-05-25)-stable) date Sun 19 Apr 2015 11:47:36 PM CDT*
G01*
G70*
G90*
%MOIN*%
G04 Gerber Fmt 3.4, Leading zero omitted, Abs format*
%FSLAX34Y34*%
G04 APERTURE LIST*
%ADD10C,0.006000*%
%ADD11R,0.080000X0.080000*%
%ADD12C,0.080000*%
%ADD13C,0.075000*%
%ADD14R,0.110000X0.082000*%
%ADD15O,0.110000X0.082000*%
%ADD16C,0.170000*%
%ADD17C,0.109800*%
%ADD18C,0.085400*%
%ADD19R,0.090000X0.090000*%
%ADD20C,0.090000*%
%ADD21R,0.075000X0.075000*%
%ADD22C,0.180000*%
G04 APERTURE END LIST*
G54D10*
G54D11*
X17000Y-31000D03*
G54D12*
X17000Y-32000D03*
X17000Y-33000D03*
X17000Y-34000D03*
X17000Y-35000D03*
G54D11*
X47000Y-66500D03*
G54D12*
X47000Y-65500D03*
G54D11*
X47000Y-72500D03*
G54D12*
X47000Y-71500D03*
X35500Y-62500D03*
X33500Y-62500D03*
X18000Y-57000D03*
X16000Y-57000D03*
X36000Y-57000D03*
X34000Y-57000D03*
X21000Y-61000D03*
X21000Y-63000D03*
G54D13*
X24500Y-71512D03*
X24500Y-60488D03*
G54D14*
X15000Y-61500D03*
G54D15*
X15000Y-62500D03*
X15000Y-63500D03*
X15000Y-64500D03*
X18000Y-64500D03*
X18000Y-63500D03*
X18000Y-62500D03*
X18000Y-61500D03*
G54D14*
X31500Y-65500D03*
G54D15*
X31500Y-66500D03*
X31500Y-67500D03*
X31500Y-68500D03*
X34500Y-68500D03*
X34500Y-67500D03*
X34500Y-66500D03*
X34500Y-65500D03*
X23500Y-29500D03*
X23500Y-30500D03*
X23500Y-31500D03*
X23500Y-32500D03*
X23500Y-33500D03*
X23500Y-34500D03*
X23500Y-35500D03*
X23500Y-36500D03*
X23500Y-37500D03*
X23500Y-38500D03*
X23500Y-39500D03*
X23500Y-40500D03*
X23500Y-41500D03*
G54D14*
X23500Y-28500D03*
G54D15*
X26500Y-41500D03*
X26500Y-40500D03*
X26500Y-39500D03*
X26500Y-38500D03*
X26500Y-37500D03*
X26500Y-36500D03*
X26500Y-35500D03*
X26500Y-34500D03*
X26500Y-33500D03*
X26500Y-32500D03*
X26500Y-31500D03*
X26500Y-30500D03*
X26500Y-29500D03*
X26500Y-28500D03*
G54D16*
X26550Y-19000D03*
X16550Y-19000D03*
G54D11*
X19350Y-20000D03*
G54D12*
X20450Y-20000D03*
X21500Y-20000D03*
X22600Y-20000D03*
X23700Y-20000D03*
X19900Y-19000D03*
X21000Y-19000D03*
X22050Y-19000D03*
X23150Y-19000D03*
G54D17*
X43000Y-51165D03*
X43000Y-46835D03*
X25000Y-51165D03*
X25000Y-46835D03*
G54D18*
X41500Y-66606D03*
X41500Y-62394D03*
G54D19*
X12000Y-55000D03*
G54D20*
X12000Y-57000D03*
G54D19*
X30000Y-55000D03*
G54D20*
X30000Y-57000D03*
G54D19*
X25000Y-56000D03*
G54D20*
X23000Y-56000D03*
G54D19*
X37500Y-72500D03*
G54D20*
X37500Y-70500D03*
G54D19*
X43000Y-56000D03*
G54D20*
X41000Y-56000D03*
G54D19*
X12000Y-68000D03*
G54D20*
X12000Y-70000D03*
G54D19*
X20000Y-70000D03*
G54D20*
X20000Y-68000D03*
G54D19*
X28000Y-63000D03*
G54D20*
X30000Y-63000D03*
G54D11*
X47000Y-60500D03*
G54D12*
X47000Y-59500D03*
X47000Y-58500D03*
X47000Y-57500D03*
G54D20*
X35500Y-46500D03*
X34500Y-46500D03*
X33500Y-46500D03*
X32500Y-46500D03*
X35000Y-48000D03*
X34000Y-48000D03*
X33000Y-48000D03*
X17500Y-46500D03*
X16500Y-46500D03*
X15500Y-46500D03*
X14500Y-46500D03*
X17000Y-48000D03*
X16000Y-48000D03*
X15000Y-48000D03*
G54D21*
X18500Y-25000D03*
G54D13*
X19500Y-25000D03*
X20500Y-25000D03*
X21500Y-25000D03*
X22500Y-25000D03*
X23500Y-25000D03*
X24500Y-25000D03*
X25500Y-25000D03*
X25500Y-22000D03*
X24500Y-22000D03*
X23500Y-22000D03*
X22500Y-22000D03*
X21500Y-22000D03*
X20500Y-22000D03*
X19500Y-22000D03*
X18500Y-22000D03*
G54D21*
X42000Y-69000D03*
G54D13*
X42000Y-70000D03*
X42000Y-71000D03*
X42000Y-72000D03*
X45000Y-72000D03*
X45000Y-71000D03*
X45000Y-70000D03*
X45000Y-69000D03*
G54D20*
X12000Y-41500D03*
X12000Y-40500D03*
X13500Y-42000D03*
X13500Y-41000D03*
X13500Y-40000D03*
G54D22*
X09000Y-15000D03*
X09000Y-75000D03*
X49000Y-75000D03*
X49000Y-15000D03*
M02*
